<?xml version="1.0" standalone="no"?>
<!DOCTYPE svg PUBLIC "-//W3C//DTD SVG 1.1//EN" "http://www.w3.org/Graphics/SVG/1.1/DTD/svg11.dtd" >
<svg xmlns="http://www.w3.org/2000/svg" xmlns:xlink="http://www.w3.org/1999/xlink" version="1.1">
<metadata>
Created by FontForge 20190801 at Sun Sep 26 17:16:51 2021
 By Unknown
Besans (c) (NJ Studio). 2021. All Rights Reserved
</metadata>
<defs>
<font id="Besans" horiz-adv-x="680" >
  <font-face 
    font-family="Besans"
    font-weight="400"
    font-stretch="normal"
    units-per-em="1000"
    panose-1="2 0 5 0 0 0 0 0 0 0"
    ascent="800"
    descent="-200"
    x-height="912"
    cap-height="1214"
    bbox="-195 -396 1070 1584"
    underline-thickness="50"
    underline-position="-100"
    unicode-range="U+001D-2265"
  />
<missing-glyph horiz-adv-x="500" 
 />
    <glyph glyph-name=".notdef" horiz-adv-x="500" 
 />
    <glyph glyph-name=".null" horiz-adv-x="0" 
 />
    <glyph glyph-name=".null" horiz-adv-x="0" 
 />
    <glyph glyph-name="nonmarkingreturn" horiz-adv-x="508" 
 />
    <glyph glyph-name="space" unicode=" " horiz-adv-x="400" 
 />
    <glyph glyph-name="space" unicode="&#xa0;" horiz-adv-x="400" 
 />
    <glyph glyph-name="exclam" unicode="!" horiz-adv-x="299" 
d="M146 320q-31 2 -53.5 35t-32.5 90q-10 55 -10 134q0 11 0.5 34t0.5 34q0 55 3 107l15 339q3 55 25.5 88.5t55.5 33.5l7 -1q28 -1 47.5 -28.5t26.5 -73.5q4 -28 4 -86v-87q0 -31 -0.5 -92t-0.5 -91q0 -161 6 -269v-30q-2 -55 -22.5 -91.5t-52.5 -43.5q-6 -2 -19 -2zM155 0
h-3q-41 0 -70.5 30.5t-29.5 73.5t28 73t69 30t70.5 -31.5t29.5 -73.5v-2q0 -41 -27.5 -69.5t-66.5 -30.5z" />
    <glyph glyph-name="quotedbl" unicode="&#x22;" horiz-adv-x="436" 
d="M322 849q-46 0 -74 50q-18 30 -18 72v6q2 104 6 156q3 35 25.5 58t54.5 24h2q29 0 51 -20.5t28 -53.5q3 -14 5 -61q4 -78 4 -119v-19q-3 -74 -63 -90q-11 -3 -21 -3zM122 849q-46 0 -74 50q-18 30 -18 72v6q2 104 6 156q3 35 25.5 58t54.5 24h2q29 0 51 -20.5t28 -53.5
q3 -14 5 -61q4 -78 4 -119v-19q-3 -74 -63 -90q-11 -3 -21 -3z" />
    <glyph glyph-name="numbersign" unicode="#" horiz-adv-x="809" 
d="M142 444q26 131 70 316l-2 1q-38 11 -57 36q-20 25 -20 46t17 43q27 32 69 32q9 0 25 -4l8 -2q18 60 28 90q28 88 43 151q4 13 14 28q25 34 63 34q10 0 22 -3q50 -21 50 -65q0 -2 -0.5 -6t-0.5 -7q-16 -76 -25 -114l-24 -99l78 7l33 3q17 57 22 71q22 65 44 151
q5 15 13 28q25 34 63 34q11 0 22 -3q50 -21 50 -65q0 -8 -1 -13q-7 -38 -25 -114l-21 -89q37 -8 57 -28q22 -22 22 -53q0 -63 -82 -82q-18 -3 -38 -3q-6 -27 -19.5 -81.5t-20.5 -81.5q-13 -57 -31 -140h6q39 -8 60 -29q22 -22 22 -52q0 -64 -82 -82q-12 -2 -38 -4
q-18 -109 -29 -196q-3 -28 -17 -58q-20 -41 -66 -41h-5q-49 4 -66 48q-7 19 -7 32q-2 20 -2 30q11 108 24 181q-18 -1 -54.5 -2.5t-54.5 -2.5q-20 -124 -28 -187q-1 -28 -17 -58q-20 -41 -65 -41h-6q-50 5 -65 48q-6 14 -8 32q-1 10 -1 30q7 86 23 180q-1 0 -3 0.5t-3 0.5
q-37 11 -56 37q-20 23 -20 45q0 23 17 43q27 32 69 32q14 0 25 -4h1zM381 756q-6 -26 -18.5 -77.5t-18.5 -76.5q-12 -51 -34 -151q15 1 44 3.5t43 3.5q16 2 23 2q36 174 68 300q-18 0 -53.5 -1.5t-53.5 -2.5z" />
    <glyph glyph-name="dollar" unicode="$" horiz-adv-x="575" 
d="M298 0q-45 0 -72 36q-22 31 -22 67l2 20l1 16q0 42 -47 65q-19 10 -41 27.5t-30.5 26t-34.5 35.5q-24 24 -24 53q0 33 29 56q28 23 62 23t65 -23q9 -7 68 -58q32 -27 74 -33h8q19 0 22 21l1 8q0 16 -9 38q-18 40 -61 82q-17 17 -48.5 46.5t-43.5 40.5q-101 102 -111 230
l-1 19q0 71 49 132q36 47 82 80q19 14 19 36q0 13 1 38.5t1 37.5q2 31 15 54q26 41 74 41q10 0 20 -3q28 -7 44.5 -25t16.5 -43l-1 -38q0 -29 3 -56q1 -23 20 -36q53 -37 56 -104v-2q0 -53 -52 -69q-18 -5 -32 -5q-33 0 -59 25q-17 15 -23 15q-7 0 -20 -18q-27 -34 -28 -71
q4 -71 68 -135q90 -85 108 -103q72 -74 92 -159q6 -25 6 -50q0 -41 -18 -80q-36 -76 -121 -99q-20 -6 -25.5 -9.5t-5.5 -13.5l2 -17q0 -6 2.5 -20t3.5 -21v-2q0 -25 -16 -44.5t-43 -27.5q-12 -4 -26 -4z" />
    <glyph glyph-name="percent" unicode="%" horiz-adv-x="792" 
d="M307 0h-5q-43 3 -61 48q-8 24 -8 62q7 100 32 241q53 295 111 531q9 38 36.5 129.5t37.5 142.5q3 9 13 27q20 34 58 34q11 0 21 -3q46 -18 46 -65q0 -8 -1 -13q-4 -19 -11.5 -57t-11.5 -57q-16 -73 -48 -213t-47 -205q-62 -294 -85 -503q-6 -37 -16 -58q-19 -41 -61 -41z
M181 876q36 40 36 58q0 24 -41 45q-16 -29 -16 -51q0 -25 21 -52zM172 716q-42 0 -77 25t-50 70t-15 89q0 47 18 115q6 24 24 56q5 12 12 19q33 35 92 64q14 6 27 6q35 0 65 -37q55 -69 72 -149q6 -28 6 -43q-5 -84 -48 -147q-27 -34 -52 -47q-34 -21 -74 -21zM597 191
q36 40 36 58q0 25 -41 45q-16 -29 -16 -51q0 -25 21 -52zM588 31q-42 0 -77 25t-50 70t-15 89q0 47 18 115q6 24 24 56q5 12 12 19q33 35 92 64q14 6 27 6q35 0 65 -37q55 -69 72 -149q6 -28 6 -43q-5 -84 -48 -147q-27 -34 -52 -47q-34 -21 -74 -21z" />
    <glyph glyph-name="ampersand" unicode="&#x26;" horiz-adv-x="628" 
d="M230 196q19 0 24 15l1 5q0 13 -18 23l-15 -42zM263 746q15 52 15 105q0 46 -12 91q-10 -50 -10 -106q0 -48 7 -90zM458 -43q-30 0 -58 25q-20 17 -42 61q-8 14 -17 14t-16 -5q-35 -18 -72 -33q-42 -18 -81 -19h-9q-60 0 -96.5 34.5t-36.5 92.5v7q2 48 26 121
q25 80 75 175q9 15 9 30q0 9 -5 21q-57 158 -57 338q0 49 5 111q6 78 39 159q29 63 65 93q39 32 87 32q56 0 97 -44q29 -33 49 -90q35 -109 35 -223q0 -152 -65 -297q-31 -69 -42 -89q-6 -13 -6 -25q0 -10 4 -19q14 -27 58 -119q5 4 27 19.5t33 22.5q28 17 55 17
q33 0 57 -24q22 -22 22 -52q0 -29 -19 -55q-24 -32 -73 -68q-18 -12 -18 -24q0 -9 7 -19q4 -7 29 -56q11 -20 11 -40q0 -34 -31 -57q-21 -15 -46 -15z" />
    <glyph glyph-name="quotesingle" unicode="'" horiz-adv-x="236" 
d="M122 849q-46 0 -74 50q-18 30 -18 72v6q2 104 6 156q3 35 25.5 58t54.5 24h2q29 0 51 -20.5t28 -53.5q3 -14 5 -61q4 -78 4 -119v-19q-3 -74 -63 -90q-11 -3 -21 -3z" />
    <glyph glyph-name="parenleft" unicode="(" horiz-adv-x="311" 
d="M202 0q-33 0 -58 21q-26 23 -39 64q-17 48 -26 125q-20 149 -26 288l-1 21q-2 54 -2 81q0 240 55 472q13 56 29 88q24 47 72 54h13q28 0 49.5 -20t22.5 -46q0 -16 -7 -30q-23 -46 -35 -133q-31 -241 -31 -396q0 -45 1 -68q2 -54 5 -80q14 -168 29 -252q6 -42 20 -61
q14 -22 16 -45v-3q0 -34 -30 -56q-25 -22 -57 -24z" />
    <glyph glyph-name="parenright" unicode=")" horiz-adv-x="311" 
d="M109 0q-32 2 -57 24q-30 22 -30 56v3q2 23 16 45q14 19 20 61q15 84 29 252q3 26 5 80q2 46 2 68q0 161 -32 396q-12 87 -35 133q-7 14 -7 30q1 26 22.5 46t50.5 20h12q48 -7 72 -54q16 -32 29 -88q55 -232 55 -472q0 -27 -2 -81l-1 -21q-6 -139 -26 -288
q-9 -77 -26 -125q-13 -41 -39 -64q-25 -21 -58 -21z" />
    <glyph glyph-name="asterisk" unicode="*" horiz-adv-x="393" 
d="M213 793q-42 0 -68 48q-10 18 -23 18l-19 -2q-41 0 -61 41q-7 14 -7 31q0 23 20 50q3 3 9 8.5t10 10t4 9.5v1q0 5 -4 9t-10 8.5t-9 7.5q-25 25 -25 52q0 13 6 28q18 44 64 44h5q25 0 36 18q21 36 59 36q28 0 51 -23q18 -17 40 -17q30 -2 49.5 -23.5t20.5 -50.5v-4
q0 -27 -18 -48q-8 -9 -8 -18q0 -8 8 -19q11 -12 15 -27q5 -12 5 -29q0 -23 -13 -41.5t-36 -26.5q-9 -5 -12.5 -7t-8 -7.5t-5.5 -13.5q-11 -55 -63 -62z" />
    <glyph glyph-name="plus" unicode="+" horiz-adv-x="591" 
d="M312 245q-24 2 -44 16q-42 30 -52 87q-6 40 -6 99v38q0 18 -2.5 23.5t-11.5 6.5h-17l-68 -2q-34 3 -56 24t-25 52v14q2 28 22.5 48t53.5 26q36 7 87 11q15 1 21 8t8 22q5 54 22 184q1 24 12 54q20 56 76 56h7l12 -2q29 -6 46 -27.5t17 -52.5v-5l-7 -89h1l-6 -76v-18
q0 -20 13 -21q14 0 24 1q6 1 16 1q11 0 16 -1q9 0 23 -4q58 -16 66 -74q1 -3 1 -10q0 -6 -1 -10q-3 -42 -45 -67q-25 -16 -89 -22q-20 -2 -24.5 -5t-5.5 -16l-1 -12v-39q0 -55 5 -94q2 -16 2 -24q0 -10 -1 -15l-1 -13q-5 -33 -28 -52.5t-54 -19.5h-6z" />
    <glyph glyph-name="comma" unicode="," horiz-adv-x="239" 
d="M111 -85q-18 0 -32 10q-26 16 -26 43q0 6 4 18q4 10 4 13q0 8 -9 22q-22 28 -22 61q0 19 6 37q18 50 83 62l12 1q35 0 61 -38q17 -23 17 -53q0 -13 -3 -27v-4q0 -52 -26 -97q-14 -24 -32 -36t-37 -12z" />
    <glyph glyph-name="hyphen" unicode="-" horiz-adv-x="467" 
d="M163 513l-9 1q-34 3 -65 15q-59 20 -59 78v9l2 10q6 28 27.5 45t52.5 17q1 0 5 -0.5t6 -0.5q33 -3 66 -3q45 0 110 7q24 2 36 2q10 0 15 -1q18 -2 36 -9q51 -25 51 -78v-7q-5 -35 -32 -56q-30 -26 -77 -29q-39 -3 -77 -3q-45 0 -88 3z" />
    <glyph glyph-name="hyphen" unicode="&#xad;" horiz-adv-x="467" 
d="M163 513l-9 1q-34 3 -65 15q-59 20 -59 78v9l2 10q6 28 27.5 45t52.5 17q1 0 5 -0.5t6 -0.5q33 -3 66 -3q45 0 110 7q24 2 36 2q10 0 15 -1q18 -2 36 -9q51 -25 51 -78v-7q-5 -35 -32 -56q-30 -26 -77 -29q-39 -3 -77 -3q-45 0 -88 3z" />
    <glyph glyph-name="period" unicode="." horiz-adv-x="243" 
d="M125 0h-2q-38 0 -65.5 26.5t-27.5 63.5q0 38 26 64.5t64 26.5q37 0 65 -27.5t28 -64.5v-2q0 -36 -26 -61t-62 -26z" />
    <glyph glyph-name="slash" unicode="/" horiz-adv-x="408" 
d="M109 0h-5q-47 3 -65 48q-9 24 -9 62q7 99 34 240q57 299 119 532q10 41 39 131.5t40 139.5q1 6 13 27q23 35 62 35q13 0 22 -4q22 -7 35.5 -24.5t13.5 -39.5q0 -9 -1 -13q-1 -6 -10 -49t-14 -66q-85 -348 -101 -417q-66 -290 -91 -503q-6 -38 -17 -58q-20 -41 -65 -41z
" />
    <glyph glyph-name="zero" unicode="0" 
d="M322 197q11 2 23 22q16 29 28 62q63 167 63 334q0 29 -1 44q-4 136 -51 286q-14 41 -25 58q-10 16 -17 16q-5 0 -18 -13q-31 -35 -50 -112q-32 -161 -32 -351q0 -9 0.5 -27t0.5 -26q6 -134 25 -205q11 -45 28 -66q15 -22 26 -22zM332 0h-5q-59 0 -114 33q-71 44 -109 135
q-33 75 -48 205l-2 42l-2 66q-2 58 -2 89q0 180 32 347q11 59 31 111q15 41 35 67q39 54 91 55h25q14 0 26 15q40 47 88 49h3q42 0 83 -35q67 -60 98 -158q60 -186 67 -357q1 -14 1 -43q0 -131 -33 -264q-24 -101 -59 -186q-31 -68 -66 -104q-61 -64 -140 -67z" />
    <glyph glyph-name="one" unicode="1" horiz-adv-x="337" 
d="M163 0h-10q-21 0 -46 5q-35 7 -55.5 32t-21.5 57v4q0 36 25 64q18 22 18 46v26q-2 53 -2 160q0 81 3 232t3 216q0 83 -2 125q0 59 -24 96q-13 19 -13 43v3q0 50 45 84q27 19 60 21q41 0 72 -28q28 -27 38 -70q12 -57 16 -141l1 -19q1 -25 1 -76q0 -43 -1.5 -129
t-1.5 -128q0 -32 -1 -89t-1.5 -103.5t-0.5 -87.5q0 -82 1 -122q2 -34 19 -56q22 -26 22 -60v-2q0 -30 -17.5 -54t-48.5 -35q-40 -14 -78 -14z" />
    <glyph glyph-name="two" unicode="2" horiz-adv-x="597" 
d="M167 0l-16 1q-41 4 -67 32.5t-26 68.5q0 15 5 35q8 23 44 72q168 232 227 509q20 90 20 163q0 38 -6 77q-2 14 -6 27q0 3 -7 16q-6 -1 -11.5 -5t-7.5 -6.5t-6.5 -10.5t-4.5 -9q-54 -90 -61 -184q-4 -38 -10 -52q-24 -58 -82 -61l-7 -1q-57 0 -83 56q-12 23 -12 55v8
q14 198 134 343q54 67 128 78q20 2 29 2q51 0 94.5 -29t69.5 -81q39 -78 42 -195v-14q0 -180 -68 -381q-40 -122 -105 -244l-18 -38q54 -2 61 -3q41 -5 64 -21q48 -30 48 -83q0 -11 -3 -22q-7 -31 -30 -52t-53 -21l-41 2q-64 0 -207 -29q-15 -3 -28 -3z" />
    <glyph glyph-name="three" unicode="3" horiz-adv-x="588" 
d="M294 0h-8q-121 0 -206 87q-50 50 -50 120v8q2 40 24.5 67t56.5 31l11 1q30 0 51.5 -19t30.5 -55q9 -38 57 -50l13 -2q26 0 47 33q37 61 37 125q0 48 -20 99q-10 25 -35 30q-57 11 -59 12q-60 20 -67 81l-1 14q0 52 45 77q54 31 90 114q24 56 24 122q0 41 -10 93
q-6 30 -19 30q-8 0 -25 -12q-55 -44 -67 -86q-12 -37 -48 -54q-22 -11 -41 -11q-36 0 -62.5 27t-26.5 67q0 37 22 76q63 109 168 164q46 25 91 25q88 0 145 -92q32 -49 42 -117q8 -50 8 -94v-33q0 -114 -59 -226q-9 -18 -9 -28q0 -13 14 -27q4 -4 8 -8.5t8 -10t6.5 -9.5
t6 -11.5t5 -11t5 -12t4.5 -11t4.5 -12t4.5 -11.5q28 -72 28 -152q0 -173 -122 -297q-49 -49 -122 -51z" />
    <glyph glyph-name="four" unicode="4" horiz-adv-x="640" 
d="M487 0q-29 0 -53 16t-35 44q-13 29 -17 85q-5 83 -5 151l3 143q0 29 -5 34t-35 7l-49 1q-55 0 -99 -4l-22 -1q-22 0 -49 5q-42 10 -66.5 40.5t-24.5 69.5q0 15 3 28q6 25 24 60q123 232 212 431q18 38 31 56q22 28 53 41q17 7 37 7q43 0 70 -29q25 -28 25 -62
q0 -23 -11 -41q-34 -61 -90.5 -184t-87.5 -180q-17 -29 -17 -47h42q27 0 40 -1h4q25 0 25 27q0 4 6 146q0 30 3 44q8 35 34.5 57t60.5 22h6q36 -2 62 -28t27 -63l1 -28q0 -31 -4 -91q-13 -300 -14 -405l-1 -70q0 -94 9 -163l1 -16l-1 -16q-4 -34 -26.5 -57t-55.5 -28z" />
    <glyph glyph-name="five" unicode="5" horiz-adv-x="550" 
d="M231 0q-50 0 -102 33q-65 42 -93 126q-6 21 -6 41q0 35 17 67q26 50 74 50l12 -1q27 -5 46.5 -25t24.5 -50l3 -17q0 -3 -1 -9.5t-1 -9.5q0 -10 8 -15q6 -2 10 -2q11 0 34 16q28 17 43 53q35 80 35 166q0 71 -23 146q-13 41 -35 41q-11 0 -35 -8q-37 -15 -46 -17
q-15 -4 -33 -4q-38 0 -66 23.5t-38 65.5q-16 66 -16 127v261q0 35 6 58q21 76 96 85q20 2 28 2q128 6 192 10l13 1q29 0 51 -9q26 -9 41.5 -31.5t16.5 -50.5v-2q0 -56 -54 -82q-15 -7 -47 -9q-44 -3 -132 -7q-15 0 -22.5 -6t-7.5 -22q0 -89 -3 -178q0 -14 4 -19.5t16 -5.5
l35 1q72 0 118 -35.5t73 -112.5q33 -92 33 -196q0 -62 -13 -135q-18 -97 -55 -173q-45 -93 -131 -127q-37 -14 -70 -14z" />
    <glyph glyph-name="six" unicode="6" horiz-adv-x="622" 
d="M306 204q34 24 53 75.5t19 114.5q0 97 -43 179q-21 -12 -49.5 -44.5t-34.5 -38.5t-6 -15l1 -12q11 -139 40 -221q9 -30 20 -38zM299 0q-85 0 -143 73q-31 41 -57 114q-33 104 -43 230q-6 67 -6 133q0 217 65 412q20 65 52 120q20 39 48 68q58 64 135 64q69 0 125 -53
q74 -66 93 -175q1 -6 1 -18q0 -32 -17 -56t-46 -34q-17 -5 -30 -5q-56 0 -88 56q-3 6 -13 34.5t-22 41.5q-28 -26 -56 -106.5t-28 -133.5v-4q6 2 18 5t21.5 5.5t17.5 4.5q16 3 32 3q77 0 126 -67q8 -10 15 -23q73 -152 73 -293q0 -91 -30 -177q-24 -69 -68 -125
q-35 -44 -82 -69q-46 -25 -93 -25z" />
    <glyph glyph-name="seven" unicode="7" horiz-adv-x="571" 
d="M222 0q-5 0 -19 2q-32 7 -52.5 32t-21.5 59q0 17 4 47q55 388 179 737q10 27 36 121l3 15q0 10 -16 10h-8q-31 -3 -178 -25q-34 -6 -52 -6q-34 0 -60 20t-34 51q-3 12 -3 23q0 59 56 86q16 8 26 9q14 2 111.5 16.5t145.5 16.5q64 0 104 -13q98 -31 107 -133l1 -18
q0 -43 -16 -102q-14 -58 -58 -189q-99 -286 -152 -646q-5 -30 -14 -54q-13 -27 -37 -43t-52 -16z" />
    <glyph glyph-name="eight" unicode="8" horiz-adv-x="629" 
d="M368 687q13 51 13 135q0 32 -1 47q-5 106 -27 137q-37 -30 -67.5 -87t-31.5 -101v-11q2 -32 22 -51q26 -25 92 -69zM296 196q3 0 13 2q31 11 52 38.5t21 61.5v8q-5 102 -94 192q-11 -3 -15 -13q-28 -78 -28 -153q0 -4 0.5 -11t0.5 -10q2 -30 5 -45q8 -34 21 -55
q9 -15 22 -15h2zM295 0h-13q-89 0 -152 74q-56 64 -72 162q-5 31 -7 69q-1 11 -1 34q0 137 64 264q6 18 6 22v3q0 10 -9 22q-48 66 -53 145q0 3 -0.5 9t-0.5 9q0 35 9 71q35 149 144 257q27 29 59 46q42 24 86 27h9q85 0 142 -72q42 -55 57 -142q8 -53 11 -95l1 -19v-18
q0 -110 -16 -332v-8q0 -11 -3 -15q-10 -19 -10 -42q1 -13 14 -57q17 -48 18 -95q0 -3 0.5 -9t0.5 -10q0 -84 -49 -161q-79 -120 -219 -138z" />
    <glyph glyph-name="nine" unicode="9" horiz-adv-x="638" 
d="M239 609q3 1 6.5 2t4.5 1l9 7q104 104 120 226q6 44 6 66v8q0 46 -20 82q-1 2 -2.5 4.5t-2.5 4.5t-2.5 4t-2.5 3t-2 2.5t-2 2t-2.5 1t-2.5 0.5q-8 0 -24 -16q-42 -42 -63 -104q-31 -89 -31 -204v-53q2 -25 11 -37zM280 0q-61 0 -108 24q-56 27 -89 77q-18 29 -18 58
q0 43 31 70q25 20 51 20q36 0 69 -30q6 -5 18 -17q20 -18 45 -18h4q44 0 66 41q22 39 31 84q16 93 25 194q-15 -12 -36 -29.5t-29 -23.5q-45 -34 -100 -36h-2q-52 0 -97.5 33t-65.5 81q-22 52 -23 96l-2 55v22q0 135 35 247q30 94 90 167q30 37 68 64q53 35 108 35h4
q58 0 105 -37.5t66 -102.5q17 -50 27 -69q16 -32 18 -98q3 -71 15 -215l2 -55v-22q0 -170 -39 -365q-13 -68 -68 -155q-43 -70 -122 -85q-47 -9 -79 -10z" />
    <glyph glyph-name="colon" unicode=":" horiz-adv-x="243" 
d="M125 144h-2q-38 0 -65.5 26.5t-27.5 63.5q0 38 26 64.5t64 26.5q37 0 65 -27.5t28 -64.5v-2q0 -36 -26 -61t-62 -26zM125 586h-2q-38 0 -65.5 26.5t-27.5 63.5q0 38 26 64.5t64 26.5q37 0 65 -27.5t28 -64.5v-2q0 -36 -26 -61t-62 -26z" />
    <glyph glyph-name="semicolon" unicode=";" horiz-adv-x="244" 
d="M125 586h-2q-38 0 -65.5 26.5t-27.5 63.5q0 38 26 64.5t64 26.5q37 0 65 -27.5t28 -64.5v-2q0 -36 -26 -61t-62 -26zM116 55q-18 0 -32 10q-26 16 -26 43q0 6 4 18q4 10 4 13q0 8 -9 22q-22 28 -22 61q0 19 6 37q18 50 83 62l12 1q35 0 61 -38q17 -23 17 -53
q0 -13 -3 -27v-4q0 -52 -26 -97q-14 -24 -32 -36t-37 -12z" />
    <glyph glyph-name="semicolon" unicode="&#x37e;" horiz-adv-x="244" 
d="M125 586h-2q-38 0 -65.5 26.5t-27.5 63.5q0 38 26 64.5t64 26.5q37 0 65 -27.5t28 -64.5v-2q0 -36 -26 -61t-62 -26zM116 55q-18 0 -32 10q-26 16 -26 43q0 6 4 18q4 10 4 13q0 8 -9 22q-22 28 -22 61q0 19 6 37q18 50 83 62l12 1q35 0 61 -38q17 -23 17 -53
q0 -13 -3 -27v-4q0 -52 -26 -97q-14 -24 -32 -36t-37 -12z" />
    <glyph glyph-name="less" unicode="&#x3c;" horiz-adv-x="510" 
d="M364 308q-14 0 -29 6q-4 2 -8.5 4.5t-10 5.5t-8.5 5q-122 86 -182 129q-42 28 -60 50q-36 41 -36 87l1 14q3 37 29 73q127 165 250 261q26 21 52 32q19 8 37 8q17 0 33 -6q48 -17 48 -64v-2q0 -22 -12.5 -39.5t-34.5 -24.5q-24 -6 -48 -30q-29 -28 -56 -57.5t-69 -80
t-52 -62.5q-7 -8 -7 -14t12 -16l104 -71q55 -39 73 -54q39 -29 42 -74l1 -9q0 -30 -20 -50.5t-49 -20.5z" />
    <glyph glyph-name="equal" unicode="=" horiz-adv-x="600" 
d="M149 378q-86 10 -110 64q-9 20 -9 40q0 24 16 47q27 37 67 37q11 0 21 -3q28 -9 64 -9q22 0 62.5 4.5t55.5 5.5q108 5 128 5h16q35 0 62 -14q48 -25 48 -76q0 -35 -27 -62q-31 -29 -60 -30q-66 -2 -181 -5t-153 -4zM149 642q-86 10 -110 64q-9 20 -9 40q0 24 16 47
q27 37 67 37q11 0 21 -3q28 -9 64 -9q22 0 62.5 4.5t55.5 5.5q108 5 128 5h16q35 0 62 -14q48 -25 48 -76q0 -35 -27 -62q-31 -29 -60 -30q-66 -2 -181 -5t-153 -4z" />
    <glyph glyph-name="greater" unicode="&#x3e;" horiz-adv-x="510" 
d="M146 308q-29 0 -49 20.5t-20 50.5l1 9q3 45 42 74q14 12 73 54l103 71q13 10 13 16t-7 14q-15 17 -42.5 50t-44.5 53.5t-42 48t-48 48.5q-26 24 -48 30q-22 7 -34.5 24.5t-12.5 39.5v2q0 47 48 64q16 6 33 6q16 0 37 -8q26 -11 52 -32q124 -97 249 -261q27 -35 30 -73
l1 -14q0 -46 -36 -87q-18 -22 -60 -50q-60 -43 -182 -129q-3 -2 -8.5 -5t-10 -5.5t-8.5 -4.5q-15 -6 -29 -6z" />
    <glyph glyph-name="question" unicode="?" horiz-adv-x="499" 
d="M210 291q-41 0 -68 35q-28 35 -32 103v8q0 5 1 16.5t1 17.5q6 65 39 120q11 20 47 77t52 89q55 110 55 195v21q-2 33 -15 61q-9 18 -27 18h-8q-35 -7 -71 -30q-8 -4 -12 -24q-13 -61 -66 -66h-6q-23 0 -42.5 15t-29.5 40q-8 21 -8 38q0 13 7 34q9 24 25 43q83 95 202 111
l23 1q82 0 137 -72q49 -63 54 -167l1 -23q0 -141 -87 -293q-20 -35 -82 -135q-26 -41 -26 -83q0 -21 8 -45q4 -13 4 -29q0 -47 -41 -67q-17 -9 -35 -9zM224 0h-2q-38 0 -65.5 26.5t-27.5 63.5q0 38 26 64.5t64 26.5q37 0 65 -27.5t28 -64.5v-2q0 -36 -26 -61t-62 -26z" />
    <glyph glyph-name="at" unicode="@" horiz-adv-x="847" 
d="M357 620q27 24 46 55.5t22 57.5q-3 -2 -20.5 -8.5t-22.5 -15.5q-25 -48 -25 -89zM636 630q9 56 9 123q0 66 -8 105q-16 84 -80 136.5t-148 52.5h-2q-83 -1 -126 -70q-61 -103 -77 -231l-4 -44q7 13 19.5 37.5t23 43.5t21.5 35q25 38 48 53q25 16 49 16q27 0 53 -19
q2 -1 5 -4.5t6.5 -5.5t7.5 -2h1l6 17q20 52 74 55h5q51 0 76 -51q10 -23 14 -45q11 -50 17 -136q2 -47 10 -66zM519 0q-33 0 -76 12q-99 26 -183 77q-117 67 -171 208q-45 111 -55 254q-4 41 -4 92q0 183 65 337q27 65 70 122q72 93 179 107q54 6 80 6q38 0 72 -7
q110 -24 184 -93.5t106 -175.5q31 -100 31 -203q0 -138 -53 -274q-17 -41 -45 -74q-39 -46 -89 -46q-55 0 -94 56q-9 14 -17 30.5t-17.5 40t-15.5 35.5l-47 -57q-33 -36 -60 -53q-37 -23 -73 -23q-27 0 -54 13q-3 2 -18 6q30 -104 98 -149q71 -46 163 -70q9 -3 29 -3h14
q22 0 40 -5q24 -9 38.5 -29t14.5 -44t-15 -46q-26 -37 -76 -43q-7 -1 -21 -1z" />
    <glyph glyph-name="A" unicode="A" 
d="M329 545l33 3q21 1 21 19v6l-20 130q-1 3 -2 10.5t-2 11t-4.5 9.5t-9.5 10l-33 -144q-6 -24 -6 -36q0 -11 5 -15t18 -4zM116 0q-17 0 -28 5q-27 9 -42.5 30.5t-15.5 50.5q0 8 4 30q6 33 21 111t24 123q76 384 152 677q17 70 35 120q25 67 98 67q77 0 102 -73
q21 -60 37 -171q76 -508 96 -621q17 -95 40 -197q1 -7 3.5 -16.5t4 -17t2.5 -13.5l1 -14q0 -33 -18 -56.5t-48 -31.5q-10 -3 -22 -3q-28 0 -51 16.5t-31 46.5q-24 86 -40 177q-20 100 -21 106q-4 26 -27 26h-4q-16 -2 -89 -4q-25 -1 -30.5 -5.5t-11.5 -32.5
q-10 -43 -25 -121.5t-19 -97.5q-6 -36 -12 -49q-13 -29 -35.5 -45.5t-49.5 -16.5z" />
    <glyph glyph-name="B" unicode="B" horiz-adv-x="648" 
d="M244 171q57 9 96 25.5t65 52.5q27 35 27 73q0 24 -12 48q-28 57 -94 57l-32 -1l-41 2q-21 0 -21 -25l-3 -105v-109q0 -18 12 -18h3zM239 602q5 0 13 5l9 9l11 11l9 9q116 132 137 312q1 7 1 21l-1 28q-3 25 -11 36t-24 11q-9 0 -29 -5q-34 -9 -99 -51q-24 -16 -24 -42
q0 -32 -1.5 -97t-1.5 -97q0 -22 0.5 -47t1.5 -55t1 -47zM209 0q-45 0 -108 28q-51 21 -51 93q0 23 1 61t1.5 71t0.5 68l-1 139q0 20 -0.5 68.5t-0.5 93.5v108q0 45 2.5 148.5t2.5 158.5v20q0 24 6 45q7 30 29 48t50 18q15 0 28 -5q15 -5 26 -5q16 0 38 12q51 30 117 41
q18 3 36 3q68 0 119 -41t70 -111q11 -47 11 -90q0 -52 -15 -119q-35 -144 -109 -255q-11 -17 -11 -23q0 -2 0.5 -3.5t3 -3.5t4 -3l6 -4t6.5 -5q127 -87 127 -230q0 -66 -28.5 -127t-74.5 -99q-116 -97 -286 -100z" />
    <glyph glyph-name="C" unicode="C" horiz-adv-x="584" 
d="M295 0q-22 0 -50 5q-69 14 -122 81q-93 116 -93 274v5q0 162 21 273q36 196 95 354q31 84 79 141q44 51 92 69q32 12 61 12q85 0 131 -77q45 -75 45 -165q0 -26 -5 -59q-4 -32 -26.5 -52t-52.5 -20h-4q-31 1 -53 22t-27 55q-1 9 -1.5 26.5t-1.5 26.5q-2 42 -12 58
q-6 -1 -10.5 -3.5t-8.5 -7t-6 -7t-6 -8.5t-5 -8q-25 -43 -38 -85q-98 -292 -98 -515q0 -109 31 -162q10 -21 26 -41q18 -19 38 -19q21 0 41 20q25 26 50 77q15 31 39 46q26 16 47 16t43 -14q39 -24 39 -62q0 -9 -3 -18q-24 -90 -95.5 -164t-159.5 -74z" />
    <glyph glyph-name="D" unicode="D" horiz-adv-x="662" 
d="M286 168q68 3 89 50q47 93 52 160q6 75 13 343q0 49 -1 73q-3 58 -13 109q-17 82 -55 115q-24 23 -49 23h-3q-18 0 -42 -15q-16 -11 -23 -14q-22 -8 -22 -32v-87q0 -9 0.5 -29t0.5 -29q0 -67 -1.5 -198.5t-1.5 -197.5v-21l-1 -39v-27q0 -45 1 -66q0 -13 0.5 -28.5
t0.5 -27t1 -24.5q0 -2 0.5 -7t0.5 -7.5t1.5 -6.5t4 -6t6.5 -4q15 -7 34 -7h7zM154 0h-5q-56 0 -76 46q-8 16 -11 42q-4 30 -5.5 63.5t-2 75t-1.5 63.5q-2 48 -2 70l2 342q2 108 2 121q0 25 0.5 74.5t0.5 77.5l-4 75l-1 18q0 2 -0.5 6t-0.5 6q0 12 3 22q5 32 26.5 52t52.5 22
q14 0 21 -1q4 -1 13 -1h5q13 0 35 10q56 29 104 30h10q63 0 121 -36q115 -67 151 -227q14 -60 19 -146l1 -71q-2 -243 -15 -382q-10 -117 -79 -231q-68 -115 -204 -121h-27q-24 0 -51 3l-22 1h-18q-4 0 -18 -2q-9 -2 -24 -2z" />
    <glyph glyph-name="E" unicode="E" horiz-adv-x="572" 
d="M322 0h-127q-61 0 -102.5 42.5t-41.5 99.5l2 65l-1 77v130q-2 160 -2 215q0 53 2 283v90l1 63q0 56 34 95t90 46q64 8 120 8q91 0 148 -4q24 -2 46 -13q51 -24 51 -79l-1 -13q-5 -29 -25.5 -49t-50.5 -24q-7 -1 -20 -1l-28 1q-74 2 -130 2l-26 -1q-16 -1 -22.5 -7
t-6.5 -21v-137q0 -78 -1 -119l-1 -25q0 -12 4.5 -15.5t18.5 -3.5l105 1q29 0 55 -10t42 -33t16 -50v-9q-3 -30 -24 -51.5t-52 -25.5q-31 -3 -54 -3h-85q-25 0 -25 -29l-1 -296q0 -22 22 -22h4q68 2 166 4l26 2q6 0 18 -2q29 -4 49 -23t25 -48l1 -14q0 -52 -45 -78
q-27 -14 -66 -16q-78 -2 -108 -2z" />
    <glyph glyph-name="F" unicode="F" horiz-adv-x="573" 
d="M148 2h-2q-35 0 -59.5 24.5t-27.5 63.5q-4 48 -5.5 140.5t-2.5 106.5l-1 74q0 37 1.5 109.5t1.5 123.5q4 311 4 321v24q0 56 -3 110v5q0 95 96 100q84 4 252 10l21 1q20 0 47 -5q32 -8 52.5 -32t20.5 -55v-3q-1 -32 -22.5 -56t-55.5 -27q-17 -2 -156 -7q-52 -2 -63 -10
t-11 -50v-14q0 -40 0.5 -84.5t1 -71.5t0.5 -54l1 -31q0 -12 2.5 -16.5t11.5 -4.5l22 2q15 1 44 4.5t43 4.5l14 1q40 0 65 -20.5t30 -56.5l1 -11q0 -34 -24 -59t-65 -32q-23 -4 -65 -9t-58 -7q-22 -3 -26 -8t-5 -28l-1 -55q0 -104 5 -251q2 -38 2 -59v-13q-2 -42 -26 -68
t-60 -27z" />
    <glyph glyph-name="G" unicode="G" horiz-adv-x="625" 
d="M277 0q-64 0 -119 47q-70 59 -96 161q-32 120 -32 239q0 68 10 131q44 267 101 432q29 84 74 139q50 65 118 65q36 0 81 -20q64 -31 112 -96t48 -131q0 -28 -5 -47q-7 -32 -30 -51t-55 -19t-55 20.5t-29 54.5q-1 7 -1.5 19.5t-0.5 16.5q-1 6 -8 31q-3 10 -15 21t-24 12
h-6q-5 0 -8.5 -3t-5 -6.5t-4 -10t-3.5 -8.5q-24 -48 -57 -165q-29 -99 -56 -293q-6 -48 -6 -95q2 -102 24 -187q9 -33 21 -52q18 -31 48 -31q25 0 50 29t36 57q5 14 7 36l4 47q0 5 2.5 17t2.5 19q0 10 -3 15q-5 10 -25 10h-3q-11 0 -16 2q-32 8 -51.5 31t-19.5 53v4
q2 33 25.5 56t58.5 25q39 3 116 3q87 0 92 -97l1 -16q0 -11 -2.5 -29.5t-2.5 -25.5q-7 -156 -7 -158l-1 -42q0 -37 5 -84q3 -7 3 -16l1 -10q0 -48 -31 -69q-24 -16 -47 -16q-20 0 -40 11q-15 9 -27 9q-11 0 -24 -7q-23 -11 -88 -24q-17 -4 -37 -4z" />
    <glyph glyph-name="H" unicode="H" horiz-adv-x="632" 
d="M146 0h-7q-29 0 -52 17t-33 47q-4 11 -4 39v15q0 38 0.5 101.5t0.5 99.5q0 41 -0.5 113t-0.5 112v87q0 227 5 465q0 32 3 49q7 30 30.5 49t52.5 20h2q28 0 50.5 -17t32.5 -45q6 -17 6 -43l-4 -372l-2 -29q0 -17 18 -17l6 1q37 5 122 13q22 2 26.5 7t4.5 28v94
q0 134 1 249v28q0 24 3 35q8 31 31 49.5t53 18.5h4q31 -1 53.5 -21t28.5 -53q4 -24 4 -52v-40q1 -50 1 -150v-192q0 -44 -1 -123t-1 -118q0 -149 1 -226v-142q0 -18 -4 -33q-17 -54 -71 -63l-12 -1q-50 0 -75 45q-11 18 -14 46q-1 37 -1 110v64l-2 231q-1 19 -3.5 25.5
t-12.5 6.5l-37 -4q-16 -2 -31 -4t-33.5 -4.5t-31.5 -4.5q-17 -1 -21.5 -6.5t-4.5 -22.5v-14q-2 -92 -2 -125v-244q0 -13 -1 -20q-4 -32 -25.5 -54t-52.5 -25z" />
    <glyph glyph-name="I" unicode="I" horiz-adv-x="287" 
d="M152 0h-7q-54 0 -80 53q-12 27 -14 78v32q0 21 0.5 61t0.5 61q0 36 -1 55q-1 51 -1 152q0 139 1 209q1 78 3.5 221.5t3.5 189.5v15q4 38 27 62t57 25h4q32 0 56 -21.5t31 -57.5q2 -12 4 -38q0 -19 -2 -57l-7 -367l1 -68q0 -20 -0.5 -59.5t-0.5 -59.5q0 -54 2 -166
q1 -35 1 -102q0 -69 -1 -107v-10q0 -14 -3 -29q-6 -30 -26.5 -49.5t-48.5 -22.5z" />
    <glyph glyph-name="J" unicode="J" horiz-adv-x="549" 
d="M266 0q-77 0 -140 50q-57 47 -76.5 99t-19.5 151l1 16q2 61 40 99q31 29 67 29q29 0 51 -16q38 -25 38 -69q0 -21 -9 -42q-7 -15 -7 -30q0 -5 5 -40q6 -32 20 -48q15 -15 27 -15q31 0 37 38q17 87 17 166l-1 24q-3 66 -3 131v26q0 84 4 251t4 251v26q0 31 6 53
q9 29 31.5 46.5t51.5 17.5q28 0 51.5 -17.5t32.5 -46.5q5 -20 5 -61v-52q0 -55 -2.5 -166t-2.5 -167v-308q0 -45 -1 -68q-2 -32 -21 -154q-13 -78 -72 -125.5t-134 -48.5z" />
    <glyph glyph-name="K" unicode="K" horiz-adv-x="625" 
d="M141 0h-2q-29 0 -52.5 18t-30.5 48q-4 19 -4 40l-1 301q0 48 -0.5 141t-0.5 140v332q0 61 1 96v7q0 17 6 33q20 54 75 58h7q49 0 75 -45q11 -21 13 -59q1 -10 1 -32q0 -11 -0.5 -32.5t-0.5 -31.5q0 -23 -0.5 -76.5t-0.5 -85.5v-20q0 -5 2 -23q9 7 24 26.5t21 30.5
q51 86 126 226q6 10 16 36.5t19 40.5q31 45 76 45q21 0 42 -12q43 -25 43 -76q0 -24 -10 -44q-21 -49 -32 -73q-63 -124 -118 -217q-10 -17 -10 -31l2 -15q20 -80 71.5 -267t76.5 -290l13 -51q6 -26 7 -39v-8q0 -33 -17.5 -57t-45.5 -31q-10 -3 -21 -3q-51 0 -79 52
q-11 23 -23 69l-108 397q-1 6 -10 32q-8 -9 -25.5 -33.5t-28.5 -35.5q-9 -9 -9 -27v-334q0 -34 -4 -52q-7 -31 -30 -49.5t-53 -18.5z" />
    <glyph glyph-name="L" unicode="L" horiz-adv-x="549" 
d="M263 0q-45 0 -67 1q-40 2 -55 4q-34 4 -51 24t-29 69q-5 21 -9 80q-2 82 -2 123q0 24 0.5 72t0.5 71v304q0 30 -0.5 87t-0.5 89v49q1 25 3 74t2 72q1 41 24.5 66.5t60.5 27.5l4 1q36 0 60.5 -24.5t29.5 -64.5l1 -20l-1 -20q-6 -126 -6 -287q0 -85 1 -125v-85
q0 -55 -0.5 -149.5t-0.5 -141.5l1 -74q1 -33 5.5 -42t24.5 -9l25 1q101 10 126 17q12 3 24 3q27 0 48.5 -15.5t30.5 -41.5q6 -15 6 -31q0 -47 -45 -76q-25 -14 -53 -17q-106 -12 -158 -12z" />
    <glyph glyph-name="M" unicode="M" horiz-adv-x="786" 
d="M652 0q-39 0 -65 26q-19 19 -29 80q0 8 -0.5 22t-0.5 22q0 22 1 65t1 65l-1 359l1 23q0 9 -4 17q-5 -1 -7.5 -4t-3.5 -6l-2.5 -7.5l-2.5 -7.5q-3 -9 -19.5 -57t-25.5 -73q-20 -52 -35 -69q-32 -38 -64 -38h-3q-47 0 -87 84q-12 26 -49 136q-1 4 -3.5 12.5t-5 16
t-5.5 13.5q-3 -8 -6 -50q-1 -31 -3 -116.5t-3.5 -158t-1.5 -117.5q0 -41 1 -62v-74q0 -14 -1 -20q-4 -35 -24 -57t-52 -24h-8q-31 0 -54.5 18.5t-31.5 50.5q-6 27 -8 83v814q0 12 0.5 38t0.5 39v32l-1 40q0 11 1 16q4 37 27 59.5t56 23.5q14 0 28 -3q55 -16 82 -72
q47 -98 90 -216q7 -19 25.5 -67t28.5 -75l5 -14q6 17 9 23q22 62 123 309l26 61q23 52 83 54q56 0 85 -57q15 -34 17 -84v-22q-1 -83 -1 -208v-279q0 -18 0.5 -55t0.5 -56l1 -127q0 -80 -1 -122v-121q-2 -54 -50 -77q-9 -4 -34 -6z" />
    <glyph glyph-name="N" unicode="N" horiz-adv-x="638" 
d="M155 -3h-13q-50 0 -77 47q-14 28 -14 58v450q0 197 -1 321q0 31 0.5 82t0.5 77v78q0 23 5 39q9 31 32.5 48t51.5 17q19 0 43 -8.5t37 -21.5q24 -26 36 -67q22 -74 32 -112q82 -326 98 -380q12 -40 24 -64l1 58q1 45 1 129q0 55 -1.5 161.5t-1.5 141.5q0 22 2 88
q5 35 29 55t57 20h2q34 -1 57 -21.5t28 -55.5q1 -10 1 -28q1 -55 1 -157v-180q0 -100 1 -152q1 -59 1 -168q0 -148 -3 -293v-53q0 -77 -60 -98q-17 -8 -39 -8q-64 0 -92 66q-43 99 -75 191q-50 142 -69 204q-10 25 -15 31q-6 -7 -6 -16v-382q0 -14 -1 -20q-4 -30 -24 -51
t-49 -26z" />
    <glyph glyph-name="O" unicode="O" horiz-adv-x="626" 
d="M304 180q4 0 7 0.5t6.5 2.5t5.5 3t5 4l4.5 4.5t4.5 6t3.5 5.5t4 6t3.5 6q20 38 35 107q7 32 11.5 71t6.5 62.5t4 74.5t3 66v126q0 85 -27 191q-16 64 -44 99q-13 18 -23 18q-12 0 -22 -25l-4 -12q-71 -241 -71 -444q0 -97 16 -190q14 -97 30 -139q15 -40 38 -43h3zM306 0
q-45 0 -92 26q-71 39 -104 124q-20 48 -38 152q-22 123 -22 251q0 246 86 520q11 36 28 66q26 44 68 52q14 3 27 9q31 14 63 14q53 0 104 -43q62 -54 94 -140q47 -120 55 -263l1 -56l-1 -113q0 -7 -1.5 -45.5t-2 -50t-2 -44.5t-3.5 -50.5t-5.5 -44.5t-7.5 -50t-10 -46
q-16 -69 -41 -122q-34 -71 -95 -112q-49 -34 -101 -34z" />
    <glyph glyph-name="P" unicode="P" horiz-adv-x="595" 
d="M230 579q25 11 51 42q104 112 104 306q0 22 -2 64q-3 31 -38 36q-15 3 -28 3q-26 0 -55 -8q-23 -5 -27 -10.5t-5 -30.5q-4 -108 -4 -239q0 -20 0.5 -61t0.5 -62v-17q0 -12 3 -23zM142 0q-33 0 -60.5 20t-28.5 54q-2 70 -2 104q0 57 -0.5 137t-0.5 124q0 18 1.5 55.5
t1.5 59.5q0 6 -0.5 17t-0.5 16q-2 49 -2 148q0 69 2 191.5t2 168.5v8q0 18 6 36q9 26 30 43t45 17l12 -1q15 -3 29 -3q25 0 61 9q45 10 81 10q48 0 94 -15q125 -41 144 -165q9 -58 9 -117q0 -182 -90 -340q-78 -135 -219 -186q-21 -8 -26 -12.5t-5 -20.5v-13q1 -45 1.5 -127
t0.5 -109v-23q0 -33 -17.5 -55.5t-47.5 -28.5z" />
    <glyph glyph-name="Q" unicode="Q" horiz-adv-x="627" 
d="M304 179q6 0 10 4q6 5 6 10q0 3 -4 11q-3 8 -23 47q-29 64 -33 78q-3 12 -3 24q0 37 25 62.5t62 25.5q12 0 26 -3q4 -1 12.5 -3.5t14.5 -4.5l4 23q8 122 8 226l-1 69q-1 86 -34 194q-16 50 -41 78q-10 13 -18 13q-10 0 -18 -16q-5 -8 -7 -19q-72 -241 -72 -447
q0 -104 17 -199q16 -93 26 -122q11 -33 30 -46q7 -5 13 -5zM490 -18q-32 0 -58 24q-18 18 -32 18q-10 0 -26 -8q-32 -16 -67 -16q-41 0 -87 23q-78 43 -112 133q-23 60 -44 204q-14 91 -14 194q0 241 86 517q7 23 24 59q27 53 75 62q9 1 23 7q33 15 64 15q57 0 113 -51
q61 -57 92 -149q42 -120 48 -245l2 -73l-1 -99q0 -13 -1.5 -53.5t-2 -57.5t-3 -52t-5.5 -57t-9 -51t-13 -55q-11 -38 -11 -69q0 -47 31 -82q2 -3 7 -15q7 -17 7 -36q0 -46 -37 -72q-23 -15 -49 -15z" />
    <glyph glyph-name="R" unicode="R" horiz-adv-x="591" 
d="M227 584q39 22 61.5 45.5t42.5 61.5q25 49 36 99q19 78 19 150l-1 28q-1 35 -13.5 47t-47.5 14h-7q-19 0 -57 -6q-30 -5 -31 -39q-2 -56 -2 -156v-244zM132 0q-45 0 -72 36q-4 5 -5.5 11.5t-2 11t-0.5 13.5v14v275q0 34 -0.5 105t-0.5 108v138q0 40 -0.5 122t-0.5 124
q0 50 2 148q1 44 25.5 69t64.5 25q6 0 22 -2q14 -2 20 -2q20 0 39 6q55 12 94 12q37 0 73 -9q151 -38 165 -177q6 -54 6 -108q0 -244 -141 -411q-13 -16 -13 -30q0 -7 5 -22q30 -85 123 -277q26 -58 26 -90v-7q-5 -55 -52 -76q-17 -7 -34 -7q-29 0 -56 22q-17 15 -33 51
q-10 21 -42 87.5t-52 112t-35 89.5q-7 24 -21 24h-4q-2 0 -6 -2q0 -4 0.5 -20.5t1.5 -31.5l-1 -50v-204q0 -54 -71 -76q-8 -2 -24 -2z" />
    <glyph glyph-name="S" unicode="S" horiz-adv-x="528" 
d="M232 0h-2q-78 0 -138.5 57.5t-61.5 144.5q0 32 6 56q7 30 30 48.5t52 18.5l14 -1q31 -4 50 -27.5t21 -59.5v-24l1 -11q3 -32 31 -32q7 0 16 3q34 12 54.5 41.5t20.5 74.5v3q0 8 -2 26q-11 71 -59 115q-43 43 -73 66q-159 126 -162 345q0 41 2 61q8 97 49 182q33 62 75 92
q47 34 96 35q41 0 78 -20q164 -88 168 -273q0 -1 -1 -15t-3 -23q-4 -31 -26 -50.5t-52 -21.5h-4q-30 0 -52.5 18.5t-29.5 50.5q-2 9 -2.5 28t-1.5 26q-3 59 -48 91q-14 12 -21 12q-8 0 -19 -20q-38 -78 -38 -160v-6q0 -11 2 -33q13 -126 105 -194q57 -43 93 -86
q95 -109 98 -234q0 -51 -14 -100q-47 -161 -215 -199q-12 -3 -37 -5z" />
    <glyph glyph-name="T" unicode="T" horiz-adv-x="621" 
d="M321 0h-2q-31 0 -55 19t-30 49q-9 44 -9 88q1 82 1 210q0 22 0.5 71.5t0.5 85.5l-1 368q2 64 2 102q0 33 -5.5 38.5t-37.5 5.5l-30 -1l-30 1q-32 2 -57 19q-38 27 -38 68l1 11q4 52 56 72q12 5 47 7q27 0 80.5 -0.5t79.5 -0.5q27 0 78.5 0.5t75.5 0.5h24l25 -1
q22 0 42 -11q52 -25 52 -79q0 -11 -1 -16q-5 -28 -26.5 -47.5t-51.5 -22.5q-15 -1 -39 -1.5t-39 -1.5q-20 -2 -24 -6t-4 -25q1 -51 1 -140q0 -46 -0.5 -128.5t-0.5 -124.5q0 -123 2 -197l-1 -36v-239l-1 -33q0 -23 -3 -34q-7 -31 -29.5 -50t-52.5 -21z" />
    <glyph glyph-name="U" unicode="U" horiz-adv-x="616" 
d="M306 0q-36 0 -64 14.5t-61 51.5q-42 47 -62 102q-40 115 -52 230q-15 131 -17 256v180q1 12 1 47v234q0 17 2 26q7 32 29.5 52t53.5 21h4q30 0 53.5 -18t30.5 -48q5 -21 5 -52v-44q0 -28 0.5 -85.5t0.5 -93.5t-1 -95.5t-1 -88.5v-28q0 -104 14 -260q8 -88 30 -151
q6 -17 14 -37q9 -21 22 -21q8 0 20 18q18 26 28 66q15 58 22 139q9 113 9 371v39l2 146l-1 128q0 41 11 64q25 51 76 51h7q27 -2 48 -18t29 -43q7 -20 7 -43v-91l-1 -199q0 -177 -7 -265q-11 -195 -34 -301q-19 -77 -47 -128q-36 -62 -55 -80q-18 -17 -41 -28
q-39 -18 -75 -18z" />
    <glyph glyph-name="V" unicode="V" horiz-adv-x="640" 
d="M327 0h-3q-65 0 -91 68q-38 109 -54 204q-11 63 -42.5 225.5t-51.5 279.5t-35 226q-2 16 -14 71q-6 43 -6 47v2q0 36 21.5 60.5t55.5 29.5l10 1h2q29 0 52 -18.5t31 -49.5q16 -60 34 -180q28 -200 76 -437q1 -5 3.5 -14.5t2.5 -11.5q2 -1 7 -1l35 186q48 241 65 392
q7 44 10 55q10 36 32.5 57t52.5 22q7 0 19 -2q33 -6 51.5 -29.5t19.5 -59.5q0 -3 -0.5 -10t-0.5 -10q-3 -23 -13 -96.5t-16 -113.5q-98 -542 -151 -785q-3 -22 -10 -38q-25 -68 -92 -70z" />
    <glyph glyph-name="W" unicode="W" horiz-adv-x="832" 
d="M259 0h-12q-58 4 -83 64q-4 16 -6 23q-14 67 -23.5 133t-20 161.5t-15.5 134.5q-26 197 -52 461l-17 144v17q2 28 22 49.5t47 26.5l13 2h5q44 0 71 -42q10 -16 17 -49q5 -40 10.5 -100t9.5 -88q36 -282 52 -434q2 -22 7 -41q4 16 10 42q22 112 50 219q11 41 21 64
q19 42 46 43h14q49 -6 70 -59q9 -21 16 -55q13 -65 40 -204q5 -24 13 -52q3 17 10 89q15 134 58 573l1 12q5 35 27 57.5t53 23.5h9q33 -2 55.5 -26t24.5 -61v-11q0 -21 -10 -126l-51 -548q-19 -204 -47 -325q-7 -33 -22 -63q-24 -52 -75 -55h-8q-51 0 -74 50q-33 63 -60 148
l-39 139q-4 -8 -13 -43l-40 -159q-12 -49 -32 -84q-26 -48 -72 -51z" />
    <glyph glyph-name="X" unicode="X" horiz-adv-x="592" 
d="M119 0q-17 0 -33 6q-25 9 -40 30.5t-16 48.5v12q4 25 16 58q20 59 64.5 198t73.5 220q7 25 7 39v5q0 15 -7 38q-17 53 -56.5 165t-56.5 165q-13 43 -28 84l-6 15q-7 23 -7 39v3q0 67 60 85q18 4 25 4h2q30 0 55.5 -20.5t36.5 -55.5l76 -200q4 -16 16 -37q13 17 20 47
q13 36 32.5 96.5t27.5 82.5q14 36 25 50q26 35 68 37q18 0 31 -5q25 -9 40.5 -31t16.5 -50v-7q-1 -24 -14 -57q-25 -75 -77 -212t-75 -205q-7 -20 -7 -41q2 -19 6 -29q16 -45 45.5 -138t55 -166t53.5 -135q12 -25 13 -50q0 -57 -49 -80q-12 -7 -33 -9q-36 0 -63 24
q-24 21 -38 60q-14 33 -36.5 105.5t-35.5 105.5q-10 24 -15 30q-9 -8 -19 -38l-61 -197q-16 -42 -23 -51q-28 -37 -70 -39z" />
    <glyph glyph-name="Y" unicode="Y" horiz-adv-x="637" 
d="M312 0q-49 0 -75 45q-15 26 -15 65l-2 349q0 20 -5 29q-69 170 -113 378q-32 154 -63 222q-9 19 -9 40q0 18 9 38q22 48 76 48q32 0 56 -20q29 -22 45 -69q53 -168 59 -192q23 -93 43 -150q11 14 20 48q56 193 66 219q9 26 25 80q7 27 17 45q28 42 75 42q10 0 22 -3
q27 -7 45 -29t19 -52v-6q0 -24 -11 -57q-19 -54 -83.5 -248t-107.5 -303q-6 -18 -6 -43v-12l-1 -45q0 -45 1 -133t1 -132l-1 -43q0 -26 -2 -39q-5 -28 -23.5 -47t-44.5 -23z" />
    <glyph glyph-name="Z" unicode="Z" horiz-adv-x="610" 
d="M158 0q-19 0 -28 1q-42 4 -67.5 30t-25.5 65q0 16 2 24q9 45 48 157q160 464 262 720l4 11l4 16q0 9 -16 9h-6q-29 -1 -80 -5l-38 -1q-41 0 -74 4q-46 3 -75 26q-38 28 -38 66l2 16q10 51 68 66q12 3 23 3l13 -1q35 -4 78 -4q50 0 210 16q51 3 52 3q43 -1 69.5 -27
t26.5 -65q0 -14 -3 -27q-6 -28 -26 -84q-79 -219 -131 -355q-62 -165 -104 -294q-8 -27 -26 -75t-22 -60q-11 -33 -11 -38v-5l13 -1q7 0 19.5 2t15.5 2q103 17 143 23q3 0 9.5 1t11.5 1.5t9 0.5q12 0 26 -3q37 -7 60 -32.5t24 -60.5q0 -35 -22.5 -60t-60.5 -32
q-13 -3 -40 -5q-144 -15 -227 -23q-40 -5 -72 -5z" />
    <glyph glyph-name="bracketleft" unicode="[" horiz-adv-x="400" 
d="M242 0q-21 0 -46 5q-85 19 -115 107q-7 20 -14 91q-17 198 -17 385q0 155 13 339q7 96 33 167q21 54 60 88q38 34 94 34q57 0 99 -37q24 -23 30 -54l1 -14q0 -36 -31 -56q-18 -10 -35 -10q-22 0 -42 14q-2 1 -5 4.5t-7 6t-10 3.5q-5 -8 -9 -16.5t-7 -20.5t-4 -17
t-3.5 -20.5t-2.5 -18.5q-18 -122 -20 -367v-48q0 -189 18 -378q3 -19 3 -20q2 -17 18 -17q10 0 20 5q26 10 41 11h3q41 0 62 -32q11 -18 11 -38q0 -19 -10 -36q-13 -23 -34 -35q-46 -25 -94 -25z" />
    <glyph glyph-name="backslash" unicode="\" horiz-adv-x="399" 
d="M292 -2q-42 0 -71 40q-8 11 -22 54q-50 171 -107 422q-66 282 -82 468q-7 63 -10 139v2q0 63 57 87q17 5 29 5q29 0 50 -19.5t21 -46.5v-2q-3 -21 -3 -42q0 -26 3 -51.5t10.5 -64.5t9.5 -48q55 -347 164 -747l19 -63q6 -18 8 -32l1 -14q0 -27 -14 -50t-37 -32
q-13 -5 -26 -5z" />
    <glyph glyph-name="bracketright" unicode="]" horiz-adv-x="400" 
d="M159 0q-48 0 -94 25q-21 12 -34 35q-11 19 -11 36q0 18 12 38q21 32 62 32h3q15 -1 41 -11q10 -5 20 -5q16 0 18 17q0 1 3 20q18 189 18 378v48q-2 245 -20 367q0 3 -2.5 18.5t-3.5 20.5t-4 17t-7 20.5t-9 16.5q-6 -1 -10 -3.5t-7 -6t-5 -4.5q-20 -14 -42 -14
q-17 0 -35 10q-31 20 -31 56l1 14q6 31 30 54q42 37 99 37q56 0 94 -34q37 -31 60 -88q26 -71 33 -167q12 -169 12 -339q0 -199 -16 -385q-7 -70 -15 -91q-28 -88 -114 -107q-27 -5 -46 -5z" />
    <glyph glyph-name="asciicircum" unicode="^" horiz-adv-x="490" 
d="M102 757q-12 0 -22 3q-22 6 -36 25.5t-14 44.5v2q2 16 4 21q50 176 89 259q18 40 39 62q34 40 79 40q44 0 78 -37q16 -16 31 -46q46 -100 104 -258q6 -16 6 -32q0 -53 -49 -73q-15 -6 -30 -6q-39 0 -66 36q-8 12 -27 57q-9 21 -25.5 62.5t-23.5 58.5q-12 -23 -22.5 -47.5
t-21.5 -54.5t-17 -44q-9 -27 -14 -36q-22 -37 -62 -37z" />
    <glyph glyph-name="underscore" unicode="_" horiz-adv-x="662" 
d="M192 -10h-25q-41 2 -66 9q-33 10 -53 40q-18 24 -18 50q0 23 16 47q24 35 64 35q13 0 24 -4q21 -6 40 -6q9 0 27 2q219 26 303 26q35 0 52 -3q34 -6 55 -31t21 -58q0 -34 -20.5 -58.5t-55.5 -31.5q-20 -4 -45 -4l-35 1l-20 -1q-88 -5 -264 -13z" />
    <glyph glyph-name="grave" unicode="`" horiz-adv-x="284" 
d="M115 1215q26 0 47 -15.5t30 -43.5q22 -81 58 -186q4 -11 4 -24q0 -22 -11.5 -41.5t-31.5 -29.5t-38 -10q-36 0 -56 29q-65 98 -87 219q0 40 18.5 67t48.5 33z" />
    <glyph glyph-name="a" unicode="a" horiz-adv-x="596" 
d="M239 167q11 0 25 6q37 18 64 58q37 53 39 131v12q0 55 -35 55q-14 0 -29 -4q-23 -7 -35 -18q-71 -74 -71 -168q0 -10 2 -32q5 -40 40 -40zM445 -12q-35 0 -61 26q-15 15 -28 15q-7 0 -23 -7q-47 -22 -95 -22q-80 0 -138.5 53.5t-67.5 139.5q-2 28 -2 43q0 150 99 265
q75 90 208 95q14 1 19.5 2t9 4.5t3.5 9.5l-3 19q-9 42 -24 80q-7 17 -20 17q-7 0 -15 -4q-79 -32 -101 -71q-12 -24 -20 -35q-24 -35 -69 -35q-11 0 -23 3q-25 7 -42.5 27.5t-20.5 47.5l-1 13q0 28 16 57q71 131 249 176q23 5 41 5q91 0 145 -85q41 -66 58 -193
q7 -52 7 -112l-1 -56q-2 -126 -9 -195q-7 -65 -7 -109q0 -29 3 -59l1 -15q0 -14 -3 -29q-7 -32 -31.5 -51.5t-53.5 -19.5z" />
    <glyph glyph-name="b" unicode="b" horiz-adv-x="606" 
d="M238 196q6 0 15 4q37 15 55 47q91 153 91 307q0 31 -5 71t-21 69q-20 37 -51 37q-6 0 -18 -2t-41 -11q-33 -9 -34 -48q-3 -63 -3 -127l1 -98v-231q0 -18 11 -18zM153 0h-9q-40 0 -66 24.5t-27 65.5q-1 47 -1 142q0 48 0.5 143t0.5 142q0 18 -0.5 57t-0.5 59v29
q2 152 2 440q0 23 4 40q7 31 30.5 51.5t52.5 20.5h2q30 0 53 -19t31 -50q5 -25 5 -43l-2 -161l-1 -19q0 -13 6 -21q7 1 29 5t34 5l30 1q107 0 177 -91q47 -60 61 -139q12 -66 12 -132q0 -96 -25 -186q-29 -103 -85 -201q-71 -125 -217 -153q-26 -6 -96 -10z" />
    <glyph glyph-name="c" unicode="c" horiz-adv-x="541" 
d="M254 0q-82 0 -143 69q-58 66 -73 172q-8 51 -8 96l1 34q0 123 53 282q35 107 128 197q48 45 108 58q24 4 35 4q84 0 131 -66q25 -37 25 -72v-4q-2 -61 -52 -83q-17 -7 -34 -7q-32 0 -59 24q-20 17 -25 17q-6 0 -24 -19q-46 -49 -66 -108q-43 -136 -43 -231q0 -47 6 -95
q5 -43 24 -71q10 -15 23 -15q9 0 18 6q31 19 47 53q21 45 25 51q27 44 75 44q14 0 33 -7q23 -10 37.5 -31.5t14.5 -47.5q0 -13 -2 -20q-19 -87 -75.5 -147t-134.5 -78q-25 -5 -45 -5z" />
    <glyph glyph-name="d" unicode="d" horiz-adv-x="609" 
d="M296 181q11 0 20 4q30 13 48 40t18 59l4 177v187q0 48 -39 70q-17 11 -28 11q-16 0 -32 -20q-18 -22 -29 -52q-50 -136 -50 -292q0 -39 3 -76q3 -50 37 -84q24 -24 48 -24zM301 0q-51 0 -99.5 22.5t-80.5 54.5q-79 83 -88 200q-3 43 -3 86q0 168 51 330q26 82 75 138
q71 81 157 81q27 0 54 -7l9 -2h2q7 0 8 24q1 34 1 81v106q0 25 8 44q22 55 77 56h5q51 0 73 -43q7 -15 7 -59v-29q0 -41 0.5 -100.5t0.5 -102.5q0 -34 0.5 -100t0.5 -101v-54q-1 -82 -1 -247q0 -35 -0.5 -105.5t-0.5 -106.5v-60q0 -22 -1 -34.5t-8 -29t-20 -26.5
q-24 -16 -47 -16q-20 0 -44 13q-13 8 -22 8q-11 0 -22 -7q-22 -14 -92 -14z" />
    <glyph glyph-name="e" unicode="e" horiz-adv-x="571" 
d="M278 590q8 0 46 5q36 6 40 42l2 26q0 23 -6 46q-6 19 -12 19t-18 -9q-51 -38 -78 -127q18 -2 26 -2zM266 0q-61 0 -114 34t-80 96q-36 84 -42 232q4 185 83 359q51 111 159 168q44 23 88 23q50 0 91.5 -28.5t62.5 -80.5q27 -67 27 -140q0 -42 -9 -84
q-15 -63 -67.5 -107.5t-118.5 -51.5q-56 -6 -112 -9q-27 0 -27 -25l-1 -30q0 -84 23 -143q12 -35 38 -35q8 0 28 15t32 28q10 12 33 55q19 36 32 50q27 29 65 29q18 0 37 -8q47 -25 47 -77l-2 -18q-1 -8 -5 -19q-41 -92 -85 -139q-35 -38 -88 -66t-95 -28z" />
    <glyph glyph-name="f" unicode="f" horiz-adv-x="431" 
d="M147 0q-19 0 -42 10q-30 14 -48 59q-7 20 -7 53v395q-20 22 -20 59q0 38 20 55v62q0 194 9 283q7 68 38 123q29 52 63 78q48 37 104 37q31 0 67 -17q42 -21 74 -56q26 -29 26 -67q0 -29 -17 -52q-26 -32 -66 -32q-24 0 -46 11q-5 2 -25 13q-3 2 -9 2q-20 0 -29 -66
t-9 -105v-147q0 -14 5 -16.5t27 -3.5l48 1q8 0 24 -2q32 -5 52.5 -27.5t22.5 -54.5v-5q0 -30 -18 -53.5t-48 -31.5q-24 -8 -87 -8h-3q-23 0 -23 -23v-359q0 -7 0.5 -16t0.5 -14q0 -37 -29 -62q-24 -23 -55 -23z" />
    <glyph glyph-name="g" unicode="g" horiz-adv-x="637" 
d="M299 177q14 0 26 11q24 19 62 69q22 26 22 63q-1 25 -1 75v74q0 107 1 160q0 31 -20 66q-23 36 -76 38h-3q-11 0 -18 -6.5t-13.5 -21t-9.5 -18.5l-5 -12q-58 -166 -58 -318v-8q0 -59 24 -111q15 -37 47 -54q11 -7 22 -7zM261 -382q-88 0 -145 43q-48 37 -62 88
q-4 13 -4 30q0 60 51 87q18 9 37 9q46 0 76 -47q18 -27 47 -27q21 0 37 13q90 71 90 179l-1 23q-46 -16 -85 -16q-26 0 -43 5q-117 29 -177 136q-48 88 -51 190l-1 33q0 187 75 386q20 51 60 96q58 66 135 66q18 0 41 -5q29 -6 58 -15q12 -5 20 -5q11 0 21 9q20 16 49 16
q37 0 65 -26.5t29 -70.5q3 -96 3 -194l1 -155q0 -282 -19 -467q-10 -100 -23 -142q-38 -116 -162 -204q-47 -35 -122 -35z" />
    <glyph glyph-name="h" unicode="h" horiz-adv-x="623" 
d="M140 0h-2q-28 0 -50 17.5t-32 47.5q-6 19 -6 57v708q2 226 3 252q1 39 7 65q7 33 30.5 50t54.5 17h12q34 -4 52.5 -29t18.5 -65v-218q0 -13 5 -23q20 0 49 13q45 20 84 20q80 0 140 -79q49 -64 59 -164q8 -77 8 -174v-146q0 -38 -0.5 -116t-0.5 -116v-22l-1 -15
q-4 -31 -23 -52.5t-48 -26.5l-14 -1q-55 0 -79 51q-12 22 -12 60v209l1 127q0 119 -7 194q-4 41 -12 61q-9 27 -22 27q-9 0 -28 -10l-23 -12q-37 -18 -56 -78t-19 -131l-1 -379q0 -36 -6 -54q-9 -30 -31 -47.5t-51 -17.5z" />
    <glyph glyph-name="i" unicode="i" horiz-adv-x="283" 
d="M143 0h-4q-32 1 -55 22t-28 55q-2 12 -2 36v531q0 35 17 58.5t49 29.5q5 1 15 1q29 0 53 -18t34 -49q9 -28 9 -79v-454q0 -43 -6 -64q-8 -31 -30.5 -50t-51.5 -19zM145 821h-2q-38 0 -65.5 26.5t-27.5 63.5q0 38 26 64.5t64 26.5q37 0 65 -27.5t28 -64.5v-2
q0 -36 -26 -61t-62 -26z" />
    <glyph glyph-name="j" unicode="j" horiz-adv-x="286" 
d="M0 -382q-67 2 -124 53q-71 60 -71 169v7q1 35 23.5 58.5t55.5 26.5l12 1q29 -2 51.5 -21.5t29.5 -51.5q1 -4 4 -23t9 -28q1 -1 8 -5q12 17 28 73q16 65 21 149l6 183q3 118 3 162v68q0 55 1 94q1 37 1 96v13q1 40 26.5 65.5t60.5 25.5h4q13 0 32 -7q46 -20 53 -69
q1 -7 1 -35v-225q0 -41 -3 -132q-2 -90 -10 -275q-8 -137 -56 -253q-24 -57 -67 -88t-94 -31h-5zM148 821h-4q-37 1 -63.5 27t-26.5 62v4q1 37 26.5 62.5t61.5 25.5h4q37 -1 63.5 -28.5t26.5 -63.5v-4q-2 -35 -27.5 -60t-60.5 -25z" />
    <glyph glyph-name="k" unicode="k" horiz-adv-x="602" 
d="M133 0q-35 1 -57.5 25t-23.5 63q-2 40 -2 120v80l1 36v805q4 47 49 74q21 12 42 12q23 0 49 -16q17 -10 22 -20.5t9 -33.5q4 -16 4 -56v-95q0 -32 0.5 -90t0.5 -86q0 -52 -1 -78v-63q7 1 13 5t8.5 6.5t7 8.5t5.5 8q10 12 127 157q32 39 71 48q7 2 23 2q55 0 79 -40
q12 -19 12 -40q0 -27 -21 -54q-21 -29 -75 -95l-59 -72q-10 -10 -10 -22q0 -7 3 -14q39 -103 89 -254q10 -29 30.5 -92.5t29.5 -92.5q1 -2 2 -6.5t2 -6.5q9 -25 9 -40q0 -50 -37 -71q-21 -12 -46 -12q-45 0 -77 43q-15 22 -30 61q-51 133 -93 272q-1 5 -16 44l-47 -43v-266
q0 -17 -1 -25q-4 -38 -30 -62t-62 -24z" />
    <glyph glyph-name="l" unicode="l" horiz-adv-x="277" 
d="M143 0q-33 0 -57.5 20.5t-31.5 54.5q-3 13 -3 40l-1 451q0 28 0.5 73.5t0.5 65.5q0 14 -0.5 41.5t-0.5 40.5q0 29 0.5 90.5t0.5 95.5q0 82 -1 128q0 28 9 55q10 28 32.5 43.5t50.5 15.5q29 -1 51.5 -18.5t30.5 -46.5q3 -12 3 -34v-1024q0 -39 -20 -63.5t-54 -27.5z" />
    <glyph glyph-name="m" unicode="m" horiz-adv-x="901" 
d="M147 0q-28 1 -51 16t-33 41q-5 16 -7 38q-6 68 -6 223v474q0 34 6 56q7 31 33 47.5t57 16.5q39 0 60 -18q15 -12 26 -12q9 0 18 4q55 26 97 26q67 0 121 -54q9 -9 16 -9q9 0 18 9q49 36 104 49q20 5 46 5q69 0 122 -53q50 -50 67 -137q10 -50 10 -121l-2 -378v-126
q0 -13 -3 -27q-15 -60 -65 -69l-17 -1q-39 0 -69 40q-14 19 -20 63q-4 36 -4 99v324q1 37 1 111q0 31 -8 63q-9 33 -25 33q-11 0 -31 -18q-60 -55 -61 -125q-5 -258 -5 -335v-176q-1 -27 -17 -47t-42 -28q-11 -4 -25 -4q-44 0 -70 37q-16 20 -21 54q-4 21 -4 61v98
q0 50 0.5 124t0.5 105q0 61 -1 92v37q0 53 -8 85q-9 37 -26 37q-14 0 -33 -20q-61 -67 -66 -163q-3 -72 -3 -146v-294q0 -29 -8 -50q-21 -57 -72 -57z" />
    <glyph glyph-name="n" unicode="n" horiz-adv-x="631" 
d="M138 0h-4q-30 2 -52.5 21t-28.5 50q-3 13 -3 39l1 228l-1 119v111q0 145 4 250q2 48 32 74q23 20 55 20q33 0 53 -17q8 -6 13 -15.5t7.5 -15.5t4.5 -6h3q1 0 29 19q52 35 109 35q21 0 40 -4q115 -24 152 -131q26 -76 28 -177l1 -61v-437l-2 -30q-5 -29 -25 -48t-48 -23
l-11 -1q-25 0 -47 14.5t-33 38.5q-10 21 -12 61q-1 17 -1 48q0 15 0.5 45.5t0.5 46.5v297q0 61 -5 105q-4 35 -12 57q-7 20 -22 20q-10 0 -19 -8q-25 -20 -47 -59q-67 -119 -70 -263l-1 -285q0 -33 -6 -55q-9 -28 -31.5 -45.5t-51.5 -17.5z" />
    <glyph glyph-name="o" unicode="o" horiz-adv-x="581" 
d="M264 168q8 0 16 6q33 19 48 61q54 145 54 275q0 4 -0.5 13t-0.5 13q-3 73 -22 141q-10 31 -17 41q-23 27 -44 27h-2q-60 -2 -74 -64q-24 -120 -24 -253q0 -7 0.5 -21.5t0.5 -22.5v-11q4 -56 16 -110q14 -54 29 -81q8 -15 18 -15zM265 0h-8q-106 0 -163 106
q-44 81 -58 204q-1 7 -1.5 14.5t-1 16t-0.5 13.5l-2 44q-1 17 -1 51q0 155 34 291q9 41 23 68q22 44 68 54q23 4 45 20q46 29 90 30h7q38 0 74 -16q112 -47 145 -155q29 -97 34 -199q0 -6 0.5 -18t0.5 -18q0 -51 -8 -109q-20 -125 -50 -204q-25 -61 -54 -97q-35 -44 -82 -69
q-43 -24 -92 -27z" />
    <glyph glyph-name="p" unicode="p" horiz-adv-x="622" 
d="M240 186l9 1q30 10 34 12q41 20 73 73q59 103 59 230q0 78 -31 195l-1 4q-8 17 -14.5 23.5t-17.5 6.5l-18 -2q-18 -4 -27 -7q-33 -13 -54.5 -41t-21.5 -61v-421q2 -13 10 -13zM141 -381q-30 1 -53 20.5t-30 50.5q-4 14 -6 45q-2 36 -2 113q0 30 0.5 87t0.5 83v599l2 191
q0 27 4 41q9 29 33 46.5t52 17.5q24 0 47 -15q18 -12 32 -12q9 0 23 6q54 21 113 21h3q105 0 161 -91q30 -48 44 -110q27 -109 27 -201q0 -82 -16 -161q-21 -116 -101 -221q-79 -103 -213 -126q-22 -4 -27 -8t-5 -20v-238q0 -29 -5 -49q-8 -31 -31.5 -50t-52.5 -19z" />
    <glyph glyph-name="q" unicode="q" horiz-adv-x="594" 
d="M266 175q12 0 23 7q14 8 53 42q23 20 23 53v183q0 15 -0.5 46.5t-0.5 47.5t0.5 47t0.5 46q0 54 -37 80q-13 9 -23 9q-12 0 -25 -16q-17 -20 -27 -46q-53 -139 -53 -273q0 -86 22 -168q4 -19 13 -35q12 -23 31 -23zM460 -382q-50 0 -77 45q-16 29 -18 74q-1 31 -1 97v181
l-12 1q-2 0 -23 -6q-35 -10 -61 -10q-56 0 -103.5 28.5t-75.5 80.5q-14 22 -27 63q-32 112 -32 229q0 173 72 351q22 58 67 101q62 59 131 59q29 0 68 -13q25 -9 33 -9q5 0 15.5 8.5t16.5 9.5q16 4 25 4q28 0 48.5 -19t28.5 -50q6 -25 8 -60q1 -38 1 -125v-943l-1 -23
q-5 -28 -23 -47.5t-44 -25.5z" />
    <glyph glyph-name="r" unicode="r" horiz-adv-x="584" 
d="M146 0h-5q-25 0 -46.5 14.5t-31.5 38.5q-7 15 -11 46q-2 11 -2 58q0 19 0.5 61.5t0.5 60.5l1 86l-1 85v311l1 51q0 22 8 43q10 26 36.5 41.5t52.5 15.5q27 0 46 -15q7 -5 15 -18.5t12 -13.5h3q8 0 26 11q54 36 130 36h7q60 -2 99.5 -34t53.5 -89q13 -51 13 -121
q0 -36 -3 -70q-3 -36 -28 -59.5t-59 -23.5h-2q-33 0 -56.5 22.5t-27.5 59.5q-4 36 -4 107q0 26 -14 26q-9 0 -21 -9q-26 -18 -54 -63q-53 -95 -55 -207v-353q0 -21 -7 -38q-9 -26 -30 -42t-47 -18z" />
    <glyph glyph-name="s" unicode="s" horiz-adv-x="521" 
d="M227 0q-106 0 -167 87q-30 44 -30 87q0 23 9 47q11 30 35 47t52 17q12 0 22 -3q55 -13 64 -73q4 -28 19 -28q6 0 21 5q21 9 35 19q25 19 25 44q0 12 -4 23q-11 34 -44 57q-23 17 -57 37q-87 54 -139 137q-38 56 -38 124l2 29q13 106 73 180q62 77 146 77h12
q91 -1 150 -49t75 -129q3 -14 3 -28q0 -12 -3 -24q-7 -28 -27 -47t-47 -22h-10q-52 0 -76 47q-4 7 -9 22t-7 20q-9 27 -33 30h-11q-22 0 -34 -23q-25 -45 -25 -75q0 -36 35 -71q32 -32 73 -55q59 -38 87 -65q36 -36 57 -77q30 -60 30 -119q0 -63 -33 -117t-94 -90
q-39 -23 -93 -36q-25 -5 -44 -5z" />
    <glyph glyph-name="t" unicode="t" horiz-adv-x="506" 
d="M239 0q-74 0 -121 67q-36 50 -51 130q-14 74 -16 155q-2 84 -2 125q0 21 0.5 67t0.5 72q0 50 -1 76v26q0 14 -13 23q-36 23 -36 72q0 56 49 78v147l1 17q5 30 25 50.5t49 25.5l12 1q50 0 76 -48q14 -25 14 -59v-94q0 -19 17 -19h115q13 0 20 -1q32 -5 54 -26.5t24 -52.5
v-4q0 -29 -17 -52t-45 -33q-30 -10 -126 -10q-18 0 -30 -8t-12 -23v-243q0 -93 9 -186q0 -3 9 -55q0 -2 1.5 -4.5t3 -6.5t3.5 -8q20 16 35 53q3 9 8.5 26.5t9.5 26.5q26 65 84 65q11 0 23 -3q29 -8 46.5 -31t17.5 -54q0 -6 -2 -22q-21 -107 -82 -176q-31 -36 -66 -57
q-42 -27 -87 -27z" />
    <glyph glyph-name="u" unicode="u" horiz-adv-x="628" 
d="M485 0q-44 0 -74 47l-11 17q-10 -20 -24 -31q-45 -33 -106 -33q-66 0 -121.5 38t-75.5 108q-23 83 -23 165v500q0 15 1 22q4 31 26.5 53t52.5 26h9q55 0 78 -59q10 -27 10 -59v-140q0 -22 0.5 -63.5t0.5 -64.5v-36q-1 -44 -1 -129q0 -59 5 -102q4 -37 9 -52q9 -28 24 -28
q11 0 28 15q21 20 39 52q65 116 68 264q2 190 2 287q2 35 7 51q9 29 31.5 46.5t51.5 17.5h4q31 -2 52.5 -21t26.5 -50q3 -16 3 -48v-611q0 -53 -1 -81q0 -11 -4 -29q-14 -61 -72 -71z" />
    <glyph glyph-name="v" unicode="v" horiz-adv-x="590" 
d="M296 0q-45 1 -69 23q-34 31 -51 79q-28 80 -60 244q-17 84 -62 340q-1 7 -8.5 45t-11.5 64q0 4 -2 16.5t-2 18.5q0 56 54 77q16 6 33 6q29 0 53.5 -15t30.5 -44q6 -30 17 -88t17 -87q11 -53 22.5 -124t16.5 -100q4 -16 7 -26l2 -5q12 17 20 52l77 344q7 31 17 48
q27 45 77 45q14 0 21 -2q29 -7 46.5 -29.5t18.5 -53.5q0 -19 -7 -47l-157 -692q-7 -30 -19 -48q-27 -41 -77 -41h-4z" />
    <glyph glyph-name="w" unicode="w" horiz-adv-x="897" 
d="M596 0q-66 3 -88 60q-12 33 -27 93.5t-18 72.5l-13 44q-2 -9 -7 -21.5t-7 -18.5l-44 -124q-35 -101 -107 -106h-15q-25 1 -52 18t-39 47q-40 102 -61 225q-15 93 -44.5 258t-41.5 241q-2 18 -2 29v18q3 29 22.5 50t47.5 26l14 1h3q50 0 76 -48q7 -13 14 -50
q11 -64 31.5 -183t23.5 -137q17 -92 27 -112q3 4 12 28q27 66 44 115q17 45 24 62q12 28 35 42t44 14h3q25 0 41.5 -12t29.5 -45q12 -29 17 -52l26 -117q5 -22 16 -34q17 20 22 45q80 353 89 396q9 42 30 61q27 27 58 27q15 0 27 -4q48 -15 58 -67q1 -3 1 -8.5t1 -8.5
q0 -22 -4 -39q-10 -46 -37 -165t-43 -188q-38 -167 -79 -330q-2 -9 -17 -46q-24 -57 -82 -57h-9z" />
    <glyph glyph-name="x" unicode="x" horiz-adv-x="570" 
d="M117 0h-5q-20 0 -37 9q-43 22 -45 71q0 12 1 18q5 25 14 41q29 61 74 172.5t54 133.5q4 9 4 19q-1 15 -9 30q-18 40 -118 266q-1 3 -7.5 19.5t-8.5 25.5q-2 8 -4 20v3q0 26 15 47.5t40 31.5q15 6 30 6h3q50 0 74 -42q9 -16 25 -52t19 -42q28 -60 42 -91q6 1 10 4t5.5 5.5
t3.5 7.5t3 7q48 92 61 127q8 25 24 44q27 32 66 32h6q12 0 27 -5q53 -18 55 -79l1 -3q-1 -22 -13 -49q-16 -46 -68 -145q-14 -25 -37.5 -72t-33.5 -65q-8 -16 -8 -28v-4q0 -13 7 -27l135 -285q14 -35 17 -52l1 -10v-3q0 -55 -49 -78q-18 -8 -34 -8h-3q-40 0 -67 32
q-9 9 -28 48l-72 146l-9 19q-17 -54 -33 -93q-13 -29 -38 -83q-12 -27 -31 -45q-25 -22 -59 -24z" />
    <glyph glyph-name="y" unicode="y" horiz-adv-x="647" 
d="M270 0q-62 0 -117 37q-58 37 -80 109q-23 83 -23 165v500q0 15 1 22q5 33 26 54q22 21 53 25h9q54 0 78 -59q10 -27 10 -59v-203q1 -20 1 -65v-36q-1 -43 -1 -129q0 -45 5 -102v-3q3 -27 9 -49q7 -27 23 -27t41 5q20 4 54 32q59 50 59 126v3q2 120 2 177v252l2 48
q5 85 75 89h14q33 0 56 -23q22 -22 28 -60q2 -14 2 -24v-342l-1 -143q-5 -206 -26 -387q-12 -132 -109 -221l-17 -16q-75 -78 -173 -78q-55 0 -105 25q-60 29 -85 89q-11 22 -11 45q0 14 4 26q14 56 68 68q7 1 19 1q43 0 68 -37q1 -1 2.5 -3.5t2.5 -3.5q5 -9 14 -18
q8 -8 22 -10h1q32 0 50 26q43 40 60 82t17 98v19l-56 -17q-29 -8 -72 -8z" />
    <glyph glyph-name="z" unicode="z" horiz-adv-x="591" 
d="M186 0l-59 1q-43 1 -68 26t-25 62q0 25 11 48q8 16 13 24q43 74 86.5 160t93.5 192t79 163q5 8 12 27.5t11 27.5l-128 -6l-72 -4q-18 0 -40 5q-32 8 -51 32t-19 54v8q3 32 26 53t58 24q20 2 112 7l220 9q21 0 32 -1q38 -4 60.5 -28.5t22.5 -61.5l-1 -13q-4 -32 -29 -83
q-88 -194 -137 -289q-21 -42 -58 -121t-51 -107q-6 -18 -6 -19l1 -6q11 -2 32 -2q11 0 71 5q9 0 33 2.5t37 2.5l26 -2q36 -4 58 -28.5t22 -58.5q0 -11 -1 -17q-5 -30 -24 -49.5t-47 -20.5q-229 -16 -301 -16z" />
    <glyph glyph-name="braceleft" unicode="{" horiz-adv-x="419" 
d="M314 0q-23 1 -47 16q-15 12 -33 36q-72 85 -77 225q-2 44 -2 67q0 8 0.5 23.5t0.5 23.5q0 19 2 57v18q0 10 -5 13t-25 10q-33 9 -53 33q-25 25 -25 56q3 23 16 44q21 28 25 32q84 92 103 247q17 117 29 171q15 60 39 104q21 38 62 38h11q47 -5 62 -49q2 -7 2 -22v-7
q0 -7 -2 -12q-10 -25 -17 -56.5t-9.5 -49.5t-6.5 -60.5t-5 -52.5q-6 -85 -31 -161q-21 -66 -56 -116q-6 -12 -6 -15q0 -7 9 -14q49 -41 49 -117l-1 -23q0 -15 -1 -44t-1 -43q0 -6 -0.5 -18.5t-0.5 -18.5q0 -7 0.5 -19t0.5 -19q2 -42 5 -63q6 -50 39 -89q19 -24 23 -30
q11 -20 11 -42q-3 -35 -27 -54t-54 -19h-4z" />
    <glyph glyph-name="bar" unicode="|" horiz-adv-x="290" 
d="M146 0q-31 4 -53.5 48.5t-32.5 121.5q-10 75 -10 182q0 15 0.5 45.5t0.5 46.5q0 72 3 146l15 460q3 75 25.5 120t55.5 45l7 -1q28 -3 47.5 -40t26.5 -98q4 -39 4 -118v-118q0 -42 -0.5 -125t-0.5 -124q0 -219 6 -364v-41q-2 -76 -22.5 -125t-52.5 -59q-6 -2 -19 -2z" />
    <glyph glyph-name="braceright" unicode="}" horiz-adv-x="419" 
d="M105 0h-4q-30 0 -54 19t-27 54q0 22 11 42q4 6 23 30q33 39 39 89q3 21 5 63q1 13 1 38t-1 37q0 14 -1 43t-1 44l-1 23q0 76 49 117q9 7 9 14q0 3 -6 15q-35 50 -56 116q-25 76 -31 161q-1 10 -5 52.5t-6.5 60.5t-9.5 49.5t-17 56.5q-2 5 -2 12v7q0 15 2 22q15 44 62 49
h11q41 0 62 -38q24 -44 39 -104q12 -54 29 -171q19 -155 103 -247q4 -4 25 -32q13 -21 16 -44q0 -31 -25 -56q-20 -24 -53 -33q-26 -9 -29 -15q-1 -3 -1 -8v-18q2 -38 2 -57q0 -8 0.5 -23.5t0.5 -23.5q0 -23 -2 -67q-5 -140 -77 -225q-18 -24 -33 -36q-24 -15 -47 -16z" />
    <glyph glyph-name="asciitilde" unicode="~" horiz-adv-x="570" 
d="M340 493q-55 0 -112 32l-17 8q-10 5 -16 5q-9 0 -20 -9q-31 -25 -64 -25q-28 0 -51 19q-30 25 -30 64q0 31 19 54q50 60 156 61h3q38 0 89 -27q17 -10 34 -10q22 0 46 19q18 16 24 19q26 17 53 17q23 0 45 -13q41 -23 41 -69l-1 -14q-5 -38 -33 -62q-81 -69 -166 -69z
" />
    <glyph glyph-name="exclamdown" unicode="&#xa1;" horiz-adv-x="299" 
d="M154 895q31 -2 53.5 -35t32.5 -90q9 -50 9 -134v-68q0 -54 -3 -107l-15 -339q-3 -55 -25.5 -88.5t-55.5 -33.5l-7 1q-28 1 -47.5 28.5t-26.5 72.5q-5 36 -5 87l1 87q0 30 0.5 91t0.5 92q0 134 -6 269v31q2 55 22.5 91t52.5 44q6 1 19 1zM145 1215h2q42 0 71.5 -30
t29.5 -73q0 -44 -28 -74t-69 -30t-71 31.5t-30 73.5v2q0 41 28 70t67 30z" />
    <glyph glyph-name="cent" unicode="&#xa2;" horiz-adv-x="591" 
d="M227 632q5 22 5 25q0 2 -4 20q-2 -18 -2 -27q0 -12 1 -18zM302 0q-43 0 -69 41q-18 28 -22 76q-3 31 -3 76q0 44 2 75v5q0 28 -24 38q-63 33 -92 104q-44 103 -44 204q0 111 53 214q47 95 145 145q24 13 30 41q29 153 76 183q20 13 42 13q24 0 44 -15q31 -22 31 -60
q0 -7 -4 -23q-9 -27 -12 -41t-5.5 -34t-6.5 -42l-1 -7q0 -14 16 -18q14 -7 19 -10q34 -25 34 -61l-1 -17q-9 -46 -56 -57q-25 -7 -29.5 -12t-6.5 -30l-17 -175q8 3 18.5 8t14.5 6q12 4 27 4q29 0 51 -19t27 -49l2 -19q0 -32 -18 -63q-48 -84 -116 -140q-26 -22 -26 -56
q-2 -74 -2 -92q0 -33 3 -81l1 -18q0 -7 -2 -19q-1 -27 -18 -47t-44 -26z" />
    <glyph glyph-name="sterling" unicode="&#xa3;" horiz-adv-x="572" 
d="M235 0q-76 0 -116 75q-25 48 -30 120q-2 36 -2 52q0 54 10 121q1 4 1 12q0 17 -17 31q-31 27 -31 62q0 44 43 69q19 12 19 21q0 5 -3 14q-32 76 -32 174q0 46 7 109q11 103 51 197q27 62 59 97q55 61 127 61q43 0 84 -22q55 -28 86.5 -78.5t31.5 -112.5q0 -16 -3 -31
q-3 -32 -14 -65q-21 -57 -75 -57q-7 0 -17 2q-29 6 -47 29t-18 54l1 8q0 6 2.5 20t3.5 20v11q0 11 -4 19q-8 17 -18 17h-2q-9 0 -16 -16q-39 -69 -52 -179q-4 -32 -4 -69q0 -36 2 -54q3 -49 49 -135q7 -11 20 -11h3q36 2 51 4l18 1q17 0 33 -3q32 -7 52 -30.5t20 -55.5v-4
q-1 -33 -23 -57.5t-55 -28.5q-18 -2 -110 -4q-23 -1 -30 -6.5t-11 -25.5q-10 -64 -10 -99q0 -14 2 -42l52 22q30 13 62 13q37 0 72 -16q78 -40 88 -45q52 -22 52 -79q0 -17 -6 -32q-10 -28 -33 -43.5t-53 -15.5l-18 2q-42 8 -72 29q-15 11 -30 11q-17 0 -34 -15
q-32 -23 -58 -33q-30 -12 -58 -12z" />
    <glyph glyph-name="currency" unicode="&#xa4;" horiz-adv-x="685" 
d="M319 596q15 0 51 6q-18 29 -39 29t-51 -30q22 -5 39 -5zM105 343q-28 0 -49 18t-25 48l-1 12q0 26 18 47q17 20 29 27q15 11 15 23q0 6 -5 18q-7 18 -7 39q0 32 18 66q3 6 9.5 18t8.5 15l-31 23q-30 24 -30 65l1 13q3 46 45 62q17 5 29 5q29 0 49 -23q13 -15 46 -29
t37 -16q2 -1 6 -1t10 2t7 2q38 6 56 6q38 0 69 -14q8 -3 14 -3q7 0 23 8q46 28 70 42q18 10 28 15q17 7 37 7q41 0 63 -34q10 -18 10 -37q0 -42 -34 -68q-5 -4 -12 -8t-16 -8.5t-14 -7.5q-4 -3 -13.5 -7t-15.5 -8t-10 -8q-4 -5 -4 -11t4.5 -17t4.5 -15q2 -24 2 -35
q0 -23 -5 -39q-3 -7 -3 -13q0 -10 11 -21q19 -16 29 -31q14 -20 14 -43q0 -29 -19 -48q-21 -24 -53 -24q-19 0 -38 10q-29 15 -57 52q-16 21 -40 21l-12 -1q-27 -4 -60 -4q-28 0 -42 2l-10 1q-26 0 -47 -21q-7 -6 -19 -17.5t-22.5 -20.5t-19.5 -17q-21 -17 -49 -17z" />
    <glyph glyph-name="yen" unicode="&#xa5;" horiz-adv-x="608" 
d="M359 -1q-5 0 -15 2q-28 5 -46.5 25t-21.5 49q-1 8 -1 23q0 18 4 56l6 93q0 18 -15 18l-11 -1q-32 6 -51 25.5t-21 48.5v2q0 29 19 49.5t52 27.5q2 0 17 1.5t22 6.5v3q0 3 -1.5 5.5t-3.5 3.5t-5 2t-4 1q-26 8 -45 25q-27 25 -27 55q0 12 5 27q15 45 67 51h30l19 172
q-4 2 -7 2q-20 -23 -41 -52q-26 -31 -52 -48q-35 -23 -70 -23q-68 0 -103 69q-18 36 -23 82q-6 36 -6 88q0 64 18 196q4 40 12 66q7 31 27.5 48t47.5 17q10 0 15 -1q30 -5 47.5 -26.5t17.5 -52.5l-1 -11q-8 -84 -12 -168v-36q7 0 10.5 2t6.5 7.5t4 6.5q8 14 24.5 41.5t30 49
t26.5 40.5q22 30 46 49q32 26 70 26q34 0 61 -20.5t39 -57.5q10 -29 10 -71q0 -21 -19 -189q-5 -39 -10 -82t-9 -82l-1 -16q0 -11 5 -15t23 -11q55 -23 59 -74v-7q0 -30 -20 -52.5t-51 -27.5h-14q-9 0 -15 -5v-2q0 -3 1.5 -5t3 -2.5t5.5 -1.5t5 -1q30 -8 41 -17
q38 -24 38 -67l-2 -17q-5 -26 -23.5 -43t-44.5 -21l-14 -1l-11 1q-17 0 -19 -24l-10 -127q-2 -32 -14 -58q-26 -47 -75 -47z" />
    <glyph glyph-name="brokenbar" unicode="&#xa6;" horiz-adv-x="280" 
d="M150 -1q-28 0 -50 19.5t-32 54.5q-11 36 -15 125q-1 22 -1 67l2 212q1 35 20.5 56.5t48.5 23.5l6 1q25 0 44 -16t27 -44q4 -16 5.5 -34t2 -40t1.5 -34q11 -215 20 -282q1 -6 1 -19q0 -34 -16.5 -58t-45.5 -30q-12 -2 -18 -2zM142 651q-33 0 -57 30q-28 33 -33 91
q-2 18 -2 53q0 30 7 135l13 160q4 29 7 39q8 26 27 41t42 15h3q53 -2 68 -60q4 -13 4 -31v-13q-1 -63 -5 -184v-49q0 -69 5 -119l1 -19v-13q-10 -58 -55 -72q-12 -4 -25 -4z" />
    <glyph glyph-name="section" unicode="&#xa7;" horiz-adv-x="603" 
d="M362 454q3 0 11 4q21 14 21 28q0 10 -11 29q-16 24 -40 50.5t-36 37.5t-51 45t-42 37q-1 -2 -3.5 -4t-2.5 -3l-1 -6l1 -5q3 -74 48 -119q16 -16 48.5 -45.5t45.5 -42.5q6 -6 12 -6zM292 0h-6q-39 0 -76 20q-76 42 -123 123q-14 26 -14 52q0 46 41 79q23 19 52 19
q46 0 69 -44q21 -36 37 -51q9 -9 15 -9q5 0 9 3q14 14 14 23q0 2 -2 8q-4 11 -16 31q-30 42 -90 97q-54 48 -77 73q-95 106 -95 245q0 28 2 43q9 86 68 153q16 17 16 41l-2 43q0 117 80 198q68 68 143 68q31 0 68 -14q124 -49 150 -187q2 -16 2 -24q0 -45 -30 -76
q-27 -29 -62 -29q-15 0 -33 8q-44 20 -44 78v10q0 39 -30 49q-8 2 -11 2q-13 0 -34 -23q-21 -24 -21 -61v-6q2 -76 50 -126l58 -52q84 -77 127 -143q38 -57 45 -112q1 -9 1 -25q0 -97 -78 -161q-18 -14 -18 -32q0 -8 3 -20q8 -29 8 -55q0 -82 -58 -147.5t-138 -68.5z" />
    <glyph glyph-name="dieresis" unicode="&#xa8;" horiz-adv-x="457" 
d="M125 1034h-2q-38 0 -65.5 26.5t-27.5 63.5q0 38 26 64.5t64 26.5q37 0 65 -27.5t28 -64.5v-2q0 -36 -26 -61t-62 -26zM339 1034h-2q-38 0 -65.5 26.5t-27.5 63.5q0 38 26 64.5t64 26.5q37 0 65 -27.5t28 -64.5v-2q0 -36 -26 -61t-62 -26z" />
    <glyph glyph-name="copyright" unicode="&#xa9;" horiz-adv-x="790" 
d="M372 155q41 0 81 34q20 17 42 47q40 55 62 139q0 2 2 8t2 10l-1 9q-49 -39 -137 -50l-29 -1q-62 0 -103.5 30t-55.5 86q-11 47 -11 91q0 99 51 198q19 38 61 63q33 18 71 18q68 0 101 -47q12 -18 12 -37q0 -25 -18.5 -44t-48.5 -23h-23q-11 0 -16 -11q-14 -61 -14 -116
l1 -37q1 -14 15 -14q5 0 9 1q21 7 27 10q21 11 43 12h6q40 0 77 -40q1 12 3 35.5t3 35.5l1 34q0 46 -7 109q-21 201 -159 329q-14 12 -20 12t-15 -9q-10 -12 -22 -12q-31 -1 -49 -40q-22 -44 -28 -59q-79 -203 -79 -405v-38q5 -118 32 -204q19 -55 50 -86q40 -38 84 -38z
M375 0q-67 0 -128.5 29t-105.5 78q-56 65 -76 148q-35 142 -35 276q0 218 89 434q23 58 73 124q28 37 48 52q36 26 70 26l19 -1q14 0 25 13q31 36 72 36q32 0 66 -26q190 -159 238 -354q27 -107 30 -245q-5 -219 -75 -366q-43 -85 -106 -142q-90 -82 -204 -82z" />
    <glyph glyph-name="ordfeminine" unicode="&#xaa;" horiz-adv-x="472" 
d="M183 956q48 23 75 91l2 7q0 7 -11 7l-6 1q-11 0 -16 -8q-34 -44 -44 -98zM374 726q-18 0 -34 9q-35 19 -47 68q-1 4 -3 17.5t-4 22.5q-58 -33 -83 -40q-24 -6 -48 -6q-21 0 -42 6q-39 13 -60.5 47t-22.5 81q0 19 3 35q31 140 141 224q19 15 48 22q12 3 23 3q37 0 59 -34
q9 -12 17 -12l8 1q12 3 24 3q54 0 72 -59q5 -16 5 -47v-155q0 -62 10 -99q2 -12 2 -17q0 -10 -3 -21q-7 -22 -25 -35.5t-40 -13.5z" />
    <glyph glyph-name="guillemotleft" unicode="&#xab;" horiz-adv-x="623" 
d="M282 233q-27 0 -47 15q-19 12 -27 28q-23 40 -72.5 111t-58.5 84q-33 48 -42 93q-1 4 -2 11.5t-2 12t-1 6.5q1 53 24 103q36 83 123 218q13 19 30 32q22 14 45 14q26 0 46 -15q28 -22 28 -55q0 -15 -8 -31l-36 -69q-40 -73 -73 -156q-7 -15 -7 -31q0 -20 13 -39l109 -158
q10 -15 26 -47q12 -23 12 -49v-8q-4 -31 -27 -50.5t-53 -19.5zM513 244q-37 0 -64 29q-1 1 -3.5 4t-3.5 5q-24 41 -75.5 114.5t-72.5 107.5q-32 54 -32 115v6q0 35 25 90q39 84 120 209q11 19 29 31q22 17 48 17q24 0 46 -17q27 -21 27 -53q0 -16 -8 -32l-36 -66
q-14 -26 -37 -76t-30 -64q-11 -22 -11 -46q0 -32 23 -62q10 -13 99 -143q25 -37 34 -70q2 -14 2 -21q0 -48 -45 -70q-16 -8 -35 -8z" />
    <glyph glyph-name="logicalnot" unicode="&#xac;" horiz-adv-x="699" 
d="M564 383h-4q-25 0 -46 13.5t-31 37.5q-12 28 -12 62l1 29q7 65 7 91v16q-72 -13 -112 -18q-92 -12 -245 -31l-14 -1q-58 0 -75 56q-3 9 -3 20q0 46 46 72q20 10 46 15q276 47 399 83q11 4 22 5q14 2 22 2q42 0 70.5 -26.5t32.5 -70.5q1 -6 1 -20q0 -18 -3 -37
q-9 -63 -19 -193q-2 -31 -7 -45q-19 -57 -76 -60z" />
    <glyph glyph-name="registered" unicode="&#xae;" horiz-adv-x="718" 
d="M354 160q29 0 53 20q12 10 34 40q26 47 40 100q38 167 38 333q0 42 -3 84q0 23 -8 35q-4 -5 -14 -20t-18 -22q-40 -37 -54 -106q-5 -25 -5 -60q0 -57 20 -117q15 -50 15 -60v-1q0 -34 -24 -57.5t-59 -23.5q-6 0 -20 2q-41 11 -60 51q-14 27 -28 85q-8 34 -14.5 70
t-13.5 85.5t-10 69.5q-1 7 -1 21q0 13 3 26q14 46 51 53q25 6 42 31q7 11 18 22q42 46 85 46q33 0 74 -24q-8 69 -50 127q-35 50 -77 77q-20 14 -30 14q-12 0 -29 -23q-26 -38 -48 -97q-59 -153 -61 -344v-12q0 -160 40 -284q25 -76 55 -111q27 -30 59 -30zM354 0
q-107 0 -179 77q-59 63 -97 176q-48 144 -48 327v9q0 195 56 359q24 71 73 146q8 13 48 60q50 61 144 61q65 0 112 -35q117 -89 165 -194q49 -115 56 -227q4 -51 4 -114q0 -190 -46 -374q-22 -85 -71 -154q-37 -51 -88 -81q-61 -36 -129 -36z" />
    <glyph glyph-name="macron" unicode="&#xaf;" horiz-adv-x="651" 
d="M522 1028h-6q-115 1 -340 5q-41 2 -80 12q-30 8 -48 29.5t-18 49.5l1 13q5 30 26.5 49.5t53.5 19.5h8q20 -2 60 -2q67 0 156 9h173q32 0 51 -8q28 -10 45 -34t17 -53v-2q-1 -30 -20.5 -53t-48.5 -31q-20 -4 -30 -4z" />
    <glyph glyph-name="degree" unicode="&#xb0;" horiz-adv-x="395" 
d="M188 929q27 33 27 48q0 20 -30 38q-12 -26 -12 -42q0 -21 15 -44zM181 743q-45 0 -81.5 27t-53.5 74q-16 45 -16 94q0 53 19 122q8 29 25 59q8 16 13 21q36 39 98 68q13 6 28 6q37 0 69 -39q58 -72 77 -158q6 -30 6 -46q-5 -89 -51 -155q-23 -32 -55 -51q-38 -22 -78 -22
z" />
    <glyph glyph-name="plusminus" unicode="&#xb1;" horiz-adv-x="531" 
d="M127 217q-32 2 -50 12q-47 23 -47 71q0 5 2 13q5 27 25 43.5t49 16.5l13 -1h4q21 0 43 3t52 9.5t43 8.5q-66 35 -71 116q0 9 -2 29l-3 30q-1 25 -23 25h-6q-13 -2 -37 -4h-2q-58 2 -72 55q-3 8 -3 15v6q0 39 35 63q26 18 77 20q23 1 27.5 5t8.5 28q13 94 20 136
q5 37 25 58t50 21h9q33 -3 51 -26.5t18 -62.5v-3q-1 -21 -4.5 -63t-4.5 -64l-1 -10q0 -13 4.5 -16t22.5 -5q35 -2 52 -5q32 -7 50.5 -29t18.5 -53v-2q-2 -66 -73 -80q-18 -3 -34 -3l-22 2q-15 0 -15 -14v-4l3 -30q4 -17 4 -39q0 -55 -50 -93q36 6 64 6h9l20 -1q63 -7 80 -55
q6 -16 6 -33q-1 -33 -25 -57t-61 -25q-18 0 -55 -0.5t-55 -1.5q-65 -7 -155 -11z" />
    <glyph glyph-name="twosuperior" unicode="&#xb2;" horiz-adv-x="360" 
d="M207 607q-54 0 -98 31q-43 31 -43 79q0 13 3 27q10 42 37 143q21 81 26 139v8q0 6 -0.5 9t-4 5t-7 2.5t-13.5 0.5q-56 3 -71 44q-6 17 -6 33q0 29 23 53q35 35 90 35q39 0 75 -22q44 -29 65 -87q6 -15 12 -49q3 -24 3 -46q0 -16 -1 -25q-4 -51 -39 -187q-5 -18 -5 -23
q0 -6 5 -9.5t22 -10.5q50 -21 50 -65v-2q0 -52 -54 -70q-33 -13 -69 -13z" />
    <glyph glyph-name="threesuperior" unicode="&#xb3;" horiz-adv-x="372" 
d="M136 607h-8q-55 0 -86 50q-12 19 -12 39q0 28 21 50t53 25l10 1l18 -1q4 0 16 2q22 7 22 18q0 9 -10 20q-8 8 -19 16q-45 41 -45 95q0 15 2 22l11 95q0 20 -23 28q-51 15 -51 64l1 12q4 27 24 47.5t47 23.5l14 1q72 0 118 -67q28 -38 31 -99l2 -42q0 -21 -3 -42l-1 -10
q0 -19 17 -36q57 -55 57 -132v-13q-9 -75 -70 -120q-58 -41 -136 -47z" />
    <glyph glyph-name="acute" unicode="&#xb4;" horiz-adv-x="265" 
d="M126 823h-8q-30 0 -53.5 20t-30.5 54q-1 6 -2 17.5t-2 17.5q24 153 54 230q10 25 29 39t42 14q8 0 24 -4q56 -18 56 -77l-1 -16q-2 -10 -12 -65t-13 -85q-4 -35 -5 -56q-2 -37 -23.5 -61.5t-54.5 -27.5z" />
    <glyph glyph-name="mu" unicode="&#xb5;" horiz-adv-x="500" 
d="M139 188q-31 0 -56 22q-33 31 -36 77q-17 285 -17 402q0 119 9 209q1 16 7 48q12 50 60 73q19 8 37 8q31 0 54.5 -19.5t28.5 -51.5q7 -34 13 -127q5 -43 19 -103q5 -22 12 -28q11 20 15 76q8 100 8 148q0 29 -1 44v4q0 44 32 68q20 16 45 16t45.5 -16t27.5 -44
q10 -37 12 -89q6 -212 11 -319q0 -6 5 -48v-13q0 -46 -38 -71q-23 -14 -44 -14q-25 0 -48 16q-2 1 -5.5 3.5t-6.5 4t-6 1.5t-5 -1q-27 -13 -58 -13q-20 0 -45 5v-71q0 -13 1 -28t2.5 -33t2.5 -28v-14q0 -24 -6 -38q-10 -26 -30 -41t-45 -15z" />
    <glyph glyph-name="paragraph" unicode="&#xb6;" horiz-adv-x="736" 
d="M600 1q-37 3 -60 29q-23 25 -33 73q-10 62 -16 212q-6 143 -6 285q0 180 10 344l3 39l3 28v4q0 14 -9.5 19t-47.5 11l-4 -60q-3 -73 -10 -219t-10 -220q-6 -132 -6 -264q0 -102 4 -182v-13q-3 -38 -26.5 -62.5t-56.5 -24.5l-5 1q-17 0 -33 8q-41 18 -51 71q-7 28 -9 114
q2 258 9 432v14q0 7 -1 10.5t-5.5 5.5t-8.5 2.5t-17 1.5q-32 4 -48 8q-64 13 -99.5 57t-36.5 108l1 19q3 59 30 120.5t71 114.5t110.5 88.5t141.5 39.5q6 1 18 1t18 -1q70 -4 144 -41q32 -13 35 -14q49 -15 57 -66q6 -58 6 -91q0 -257 -1 -386q2 -315 13 -434q2 -23 8 -61
q4 -28 4 -41q-1 -27 -16.5 -47.5t-38.5 -28.5q-13 -5 -25 -5z" />
    <glyph glyph-name="periodcentered" unicode="&#xb7;" horiz-adv-x="243" 
d="M125 517h-2q-38 0 -65.5 26.5t-27.5 63.5q0 38 26 64.5t64 26.5q37 0 65 -27.5t28 -64.5v-2q0 -36 -26 -61t-62 -26z" />
    <glyph glyph-name="periodcentered" unicode="&#x2219;" horiz-adv-x="243" 
d="M125 517h-2q-38 0 -65.5 26.5t-27.5 63.5q0 38 26 64.5t64 26.5q37 0 65 -27.5t28 -64.5v-2q0 -36 -26 -61t-62 -26z" />
    <glyph glyph-name="cedilla" unicode="&#xb8;" horiz-adv-x="506" 
d="M266 -304q-14 2 -22 5q-121 35 -185 133q-29 43 -29 80q0 7 2 19q3 15 11 33q26 52 76 52q9 0 13 -1q35 -7 57 -37q11 -12 20 -34q12 -27 53 -53l5 -2.5t4 -1.5h2q9 0 12 15q4 21 5 35v6q0 20 -23 25q-52 8 -81 45.5t-29 91.5v3q0 47 7 88l5 28q8 34 29.5 53t51.5 19
q2 0 5.5 -0.5t5.5 -0.5l4 -1q31 -5 49 -29t18 -62v-15q0 -4 -0.5 -10.5t-0.5 -8.5q0 -16 6 -22t30 -17q75 -32 100 -119q9 -31 9 -67q0 -28 -6 -63l-1 -10q-10 -52 -41 -103q-50 -76 -134 -76q-18 0 -28 2z" />
    <glyph glyph-name="onesuperior" unicode="&#xb9;" horiz-adv-x="312" 
d="M131 607h-12q-28 1 -46.5 20t-18.5 44q0 20 14 37q17 20 17 46l-1 7q-6 104 -6 156q0 67 5 114l1 10q0 18 -20 29q-34 18 -34 52q0 12 5 27q12 29 41.5 47.5t62.5 18.5l8 -1q61 -5 83 -65q13 -39 13 -102v-115q0 -82 4 -149q3 -33 20 -53q15 -18 15 -39q0 -32 -34 -54
q-48 -30 -117 -30z" />
    <glyph glyph-name="ordmasculine" unicode="&#xba;" horiz-adv-x="414" 
d="M200 846q15 32 15 63q0 26 -11 54q-7 -25 -7 -55q0 -9 0.5 -19t1.5 -23t1 -20zM171 606q-38 0 -69.5 23t-49.5 66q-17 43 -21 124q-1 15 -1 44v34q9 156 61 265q23 47 75 53h11q28 0 67 -25t51 -51q16 -34 27 -49q62 -79 62 -173q0 -73 -35 -156q-26 -59 -77 -110
q-45 -45 -101 -45z" />
    <glyph glyph-name="guillemotright" unicode="&#xbb;" horiz-adv-x="623" 
d="M282 233q-27 0 -47 15q-19 12 -27 28q-23 40 -72.5 111t-58.5 84q-33 48 -42 93q-1 4 -2 11.5t-2 12t-1 6.5q1 53 24 103q36 83 123 218q13 19 30 32q22 14 45 14q26 0 46 -15q28 -22 28 -55q0 -15 -8 -31l-36 -69q-40 -73 -73 -156q-7 -15 -7 -31q0 -20 13 -39l109 -158
q10 -15 26 -47q12 -23 12 -49v-8q-4 -31 -27 -50.5t-53 -19.5zM513 244q-37 0 -64 29q-1 1 -3.5 4t-3.5 5q-24 41 -75.5 114.5t-72.5 107.5q-32 54 -32 115v6q0 35 25 90q39 84 120 209q11 19 29 31q22 17 48 17q24 0 46 -17q27 -21 27 -53q0 -16 -8 -32l-36 -66
q-14 -26 -37 -76t-30 -64q-11 -22 -11 -46q0 -32 23 -62q10 -13 99 -143q25 -37 34 -70q2 -14 2 -21q0 -48 -45 -70q-16 -8 -35 -8z" />
    <glyph glyph-name="onequarter" unicode="&#xbc;" horiz-adv-x="670" 
d="M502 -1h-7q-54 0 -74 45q-12 27 -12 56l1 14q8 90 13 136q0 3 1 9t1 10l1 2q0 12 -15 12q-81 0 -126 52q-21 -67 -41 -159q-3 -15 -7.5 -43.5t-7.5 -43.5q-2 -18 -5 -26q-16 -41 -63 -48l-13 -1q-38 0 -62 31q-22 26 -22 67l1 13q1 28 21 116q36 151 86 311l9 30
q-5 4 -11.5 5.5t-14 2.5t-11.5 2q-28 7 -45 28t-17 46q0 11 5 24q6 18 6 37v8q-7 103 -7 178q0 27 2 77q0 32 -1 49q-2 46 -32 64q-25 14 -25 43q0 14 5 24q15 39 62 44l17 1q70 0 103 -62q27 -51 33 -136q0 -2 6 -143v-42q10 5 17 22q13 39 49.5 130t51.5 142q17 52 73 52
q6 0 20 -2q25 -6 39.5 -24t14.5 -43l-1 -14l-2 -12q-18 -79 -88 -285l-42 -121l20 -1q35 -2 56 -20t21 -43q0 -21 -13 -41q-8 -13 -14.5 -30t-9 -26.5t-7.5 -34t-6 -29.5l5 -1q12 0 16.5 5.5t7.5 16.5q10 43 21 75q6 25 22 45q22 27 59 27q14 0 26 -4q22 -7 35 -23.5
t13 -38.5v-4q-1 -7 -8 -37q-10 -44 -37 -241q-15 -139 -17 -188q0 -12 -5 -29q-13 -51 -71 -56z" />
    <glyph glyph-name="onehalf" unicode="&#xbd;" horiz-adv-x="686" 
d="M179 1q-56 0 -79 52q-10 23 -10 47q0 7 2 21q7 65 51 238q3 15 11.5 45t12.5 45q5 13 5 16q0 6 -3 10q-5 2 -14 2h-22q-40 2 -58 11q-43 20 -43 60q0 48 44 61q26 8 26 29v6q-11 104 -11 228l1 110v30q-1 14 -19 26q-43 25 -43 63q0 25 21 51q28 34 73 34q34 0 62 -21
q31 -23 49 -66q20 -44 23 -106q6 -50 6 -125v-50q0 -14 6 -25q7 11 13 31q37 113 126 318q19 47 56 65q19 8 37 8q28 0 50 -18q26 -21 26 -49q0 -12 -6 -23q-13 -24 -23 -50.5t-21 -61.5t-17 -52q-31 -89 -91 -269q-10 -25 -10 -31v-3q3 -4 11 -4l21 1q73 0 105 -67
q31 -71 34 -163l1 -34q0 -50 -12 -150l-3 -24l-1 -16q0 -11 5.5 -15t27.5 -10q26 -7 41.5 -25t15.5 -41q0 -18 -8 -31q-7 -13 -12 -17q-66 -60 -147 -60l-16 1q-42 2 -67 28t-25 66v11q4 44 17 149q12 102 12 154l-1 11q0 25 -20 25h-7l-4 -1l-7 2q-5 2 -13 2q-14 0 -18 -22
q-8 -32 -25 -95t-25 -95q-23 -90 -31 -166q-2 -30 -21 -48.5t-49 -22.5h-10z" />
    <glyph glyph-name="threequarters" unicode="&#xbe;" horiz-adv-x="739" 
d="M574 -3q-42 0 -66 37q-11 18 -14 35q-6 23 -6 46l1 16q11 121 17 158l1 11q0 6 -4 14q-21 -6 -44 -6q-41 0 -76 24q-8 -27 -23 -122q-7 -49 -7 -86v-11q0 -20 -6 -33q-17 -38 -63 -44h-10q-39 0 -63 30q-20 28 -20 68q1 68 25 198q16 88 25 134h-2q-5 0 -8.5 -1.5
t-8.5 -6.5l-5 -5q-25 -16 -55 -16q-20 0 -38 7q-48 17 -48 62q0 24 17 41q53 55 74 172l1 14q0 27 -23 49q-32 28 -32 74q0 15 3 30q5 25 16 92l1 8q0 13 -19 13q-59 5 -79 53q-5 12 -5 27q0 33 33 61q44 36 98 37h4q38 0 68 -19.5t45 -55.5q19 -43 19 -97q0 -23 -3 -47
q-9 -53 -13 -67l-1 -13q0 -16 12 -28q5 -5 12.5 -17t9.5 -15q6 3 11 21q19 77 98 315q18 53 72 60l14 1q37 0 61 -27q13 -17 13 -36q0 -18 -12 -34q-10 -13 -18 -43l-101 -395q-3 -12 -3 -19t4.5 -10t21.5 -10q44 -17 44 -58q0 -5 -2 -13q-13 -65 -13 -77v-5q45 10 48 45
q5 42 32 65q26 21 56 21q18 0 35 -9q34 -19 34 -53q0 -11 -3 -22q-6 -17 -9.5 -34.5t-6 -42t-4.5 -34.5q-4 -32 -12 -91t-13.5 -107.5t-7.5 -92.5q-1 -13 -2 -37.5t-2 -37.5q-3 -23 -20 -39t-42 -20q-8 -2 -13 -2z" />
    <glyph glyph-name="questiondown" unicode="&#xbf;" horiz-adv-x="509" 
d="M289 923q41 0 68 -35q28 -34 32 -103v-8q0 -12 -2 -34q-6 -65 -39 -120q-11 -19 -46.5 -76t-52.5 -90q-55 -110 -55 -195v-21q2 -33 15 -61q9 -18 27 -18h8q35 7 71 30q8 4 12 24q13 61 66 66h6q51 0 72 -55q8 -21 8 -38t-7 -34q-9 -24 -25 -43q-83 -95 -202 -111l-23 -1
q-82 0 -137 72q-49 63 -54 168l-1 22q0 141 87 293q20 35 82 135q26 41 26 83q0 20 -8 46q-4 12 -4 28q0 47 41 67q17 9 35 9zM274 1214h2q37 0 63 -25.5t26 -61.5q0 -37 -25 -62t-61 -25t-62.5 26.5t-26.5 61.5v2q0 34 24.5 58.5t59.5 25.5z" />
    <glyph glyph-name="Agrave" unicode="&#xc0;" 
d="M329 545l33 3q21 1 21 19v6l-20 130q-1 3 -2 10.5t-2 11t-4.5 9.5t-9.5 10l-33 -144q-6 -24 -6 -36q0 -11 5 -15t18 -4zM116 0q-17 0 -28 5q-27 9 -42.5 30.5t-15.5 50.5q0 8 4 30q6 33 21 111t24 123q76 384 152 677q17 70 35 120q25 67 98 67q77 0 102 -73
q21 -60 37 -171q76 -508 96 -621q17 -95 40 -197q1 -7 3.5 -16.5t4 -17t2.5 -13.5l1 -14q0 -33 -18 -56.5t-48 -31.5q-10 -3 -22 -3q-28 0 -51 16.5t-31 46.5q-24 86 -40 177q-20 100 -21 106q-4 26 -27 26h-4q-16 -2 -89 -4q-25 -1 -30.5 -5.5t-11.5 -32.5
q-10 -43 -25 -121.5t-19 -97.5q-6 -36 -12 -49q-13 -29 -35.5 -45.5t-49.5 -16.5zM311 1584q26 0 47 -15.5t30 -43.5q22 -81 58 -186q4 -11 4 -24q0 -49 -43 -71q-20 -10 -38 -10q-36 0 -56 29q-65 98 -87 219q0 40 18.5 67t48.5 33z" />
    <glyph glyph-name="Aacute" unicode="&#xc1;" 
d="M329 545l33 3q21 1 21 19v6l-20 130q-1 3 -2 10.5t-2 11t-4.5 9.5t-9.5 10l-33 -144q-6 -24 -6 -36q0 -11 5 -15t18 -4zM116 0q-17 0 -28 5q-27 9 -42.5 30.5t-15.5 50.5q0 8 4 30q6 33 21 111t24 123q76 384 152 677q17 70 35 120q25 67 98 67q77 0 102 -73
q21 -60 37 -171q76 -508 96 -621q17 -95 40 -197q1 -7 3.5 -16.5t4 -17t2.5 -13.5l1 -14q0 -33 -18 -56.5t-48 -31.5q-10 -3 -22 -3q-28 0 -51 16.5t-31 46.5q-24 86 -40 177q-20 100 -21 106q-4 26 -27 26h-4q-16 -2 -89 -4q-25 -1 -30.5 -5.5t-11.5 -32.5
q-10 -43 -25 -121.5t-19 -97.5q-6 -36 -12 -49q-13 -29 -35.5 -45.5t-49.5 -16.5zM432 1584l17 -2q30 -6 48.5 -33t18.5 -67q-22 -120 -86 -219q-21 -29 -57 -29q-18 0 -38 10q-43 22 -43 71q0 13 4 24q34 100 59 186q8 28 29 43.5t48 15.5z" />
    <glyph glyph-name="Acircumflex" unicode="&#xc2;" 
d="M329 545l33 3q21 1 21 19v6l-20 130q-1 3 -2 10.5t-2 11t-4.5 9.5t-9.5 10l-33 -144q-6 -24 -6 -36q0 -11 5 -15t18 -4zM116 0q-17 0 -28 5q-27 9 -42.5 30.5t-15.5 50.5q0 8 4 30q6 33 21 111t24 123q76 384 152 677q17 70 35 120q25 67 98 67q77 0 102 -73
q21 -60 37 -171q76 -508 96 -621q17 -95 40 -197q1 -7 3.5 -16.5t4 -17t2.5 -13.5l1 -14q0 -33 -18 -56.5t-48 -31.5q-10 -3 -22 -3q-28 0 -51 16.5t-31 46.5q-24 86 -40 177q-20 100 -21 106q-4 26 -27 26h-4q-16 -2 -89 -4q-25 -1 -30.5 -5.5t-11.5 -32.5
q-10 -43 -25 -121.5t-19 -97.5q-6 -36 -12 -49q-13 -29 -35.5 -45.5t-49.5 -16.5zM505 1214q-27 0 -51 18q-16 11 -38 43q-27 40 -38 53q-9 11 -17 11q-7 0 -16 -10q-26 -32 -58 -78q-23 -37 -61 -37q-20 0 -38 12q-37 23 -37 68q0 6 2 18q5 25 14 40q45 80 90 126
q46 48 99 48h3q68 -1 116 -45q31 -28 47 -50t44 -69q12 -20 13 -41q2 -12 2 -18q0 -47 -34 -74q-19 -15 -42 -15z" />
    <glyph glyph-name="Atilde" unicode="&#xc3;" 
d="M329 545l33 3q21 1 21 19v6l-20 130q-1 3 -2 10.5t-2 11t-4.5 9.5t-9.5 10l-33 -144q-6 -24 -6 -36q0 -11 5 -15t18 -4zM116 0q-17 0 -28 5q-27 9 -42.5 30.5t-15.5 50.5q0 8 4 30q6 33 21 111t24 123q76 384 152 677q17 70 35 120q25 67 98 67q77 0 102 -73
q21 -60 37 -171q76 -508 96 -621q17 -95 40 -197q1 -7 3.5 -16.5t4 -17t2.5 -13.5l1 -14q0 -33 -18 -56.5t-48 -31.5q-10 -3 -22 -3q-28 0 -51 16.5t-31 46.5q-24 86 -40 177q-20 100 -21 106q-4 26 -27 26h-4q-16 -2 -89 -4q-25 -1 -30.5 -5.5t-11.5 -32.5
q-10 -43 -25 -121.5t-19 -97.5q-6 -36 -12 -49q-13 -29 -35.5 -45.5t-49.5 -16.5zM402 1234q-47 3 -94 34l-15 9q-10 4 -13 4q-7 0 -17 -5q-27 -20 -53 -20h-4q-25 2 -43 21q-22 18 -22 50v6q2 27 19 46q43 44 120 44l21 -1q37 -4 75 -29q18 -9 28 -10q19 0 42 14
q14 11 22 16q20 11 41 11h5q17 -1 38 -14q32 -21 32 -59l-1 -4l-1 -11q-7 -33 -32 -51q-68 -51 -138 -51h-10z" />
    <glyph glyph-name="Adieresis" unicode="&#xc4;" 
d="M329 545l33 3q21 1 21 19v6l-20 130q-1 3 -2 10.5t-2 11t-4.5 9.5t-9.5 10l-33 -144q-6 -24 -6 -36q0 -11 5 -15t18 -4zM116 0q-17 0 -28 5q-27 9 -42.5 30.5t-15.5 50.5q0 8 4 30q6 33 21 111t24 123q76 384 152 677q17 70 35 120q25 67 98 67q77 0 102 -73
q21 -60 37 -171q76 -508 96 -621q17 -95 40 -197q1 -7 3.5 -16.5t4 -17t2.5 -13.5l1 -14q0 -33 -18 -56.5t-48 -31.5q-10 -3 -22 -3q-28 0 -51 16.5t-31 46.5q-24 86 -40 177q-20 100 -21 106q-4 26 -27 26h-4q-16 -2 -89 -4q-25 -1 -30.5 -5.5t-11.5 -32.5
q-10 -43 -25 -121.5t-19 -97.5q-6 -36 -12 -49q-13 -29 -35.5 -45.5t-49.5 -16.5zM260 1234h-2q-38 0 -65.5 26.5t-27.5 63.5q0 38 26 64.5t64 26.5q37 0 65 -27.5t28 -64.5v-2q0 -36 -26 -61t-62 -26zM474 1234h-2q-38 0 -65.5 26.5t-27.5 63.5q0 38 26 64.5t64 26.5
q37 0 65 -27.5t28 -64.5v-2q0 -36 -26 -61t-62 -26z" />
    <glyph glyph-name="Aring" unicode="&#xc5;" 
d="M329 545l33 3q21 0 21 19v6l-20 130q-1 3 -1 9q-2 12 -4 17q-3 8 -13 15l-33 -144q-6 -24 -6 -36q0 -19 18 -19h5zM372 1326l3 3q12 12 21 24q9 11 9 23q0 19 -37 38q-15 -22 -15 -43q0 -23 19 -45zM423 1199q30 -19 43 -58q28 -82 37 -171l22 -150q31 -220 74 -471
q13 -75 40 -197q1 -5 3 -13q6 -25 7 -34l1 -14q0 -65 -66 -88q-10 -3 -22 -3q-27 0 -49 16q-24 17 -33 47q-22 84 -40 177q-4 22 -7 33q-10 48 -14 73q-2 26 -27 26h-4q-34 -3 -67 -3q-7 -1 -22 -1q-14 0 -24 -2q-8 -2 -11 -10q-1 -3 -7 -26q-12 -52 -29 -140
q-10 -52 -15 -79q0 -2 -0.5 -6t-1.5 -6q-3 -21 -10 -37q-32 -62 -85 -62q-13 0 -28 5q-58 22 -58 81q0 15 4 30q12 62 17 91q3 18 13 66.5t15 76.5q65 334 152 677q14 56 35 120q14 36 41 53q-1 0 -5 2.5t-6 4.5q-31 19 -46 57q-13 36 -13 74q0 49 16 94q7 23 21 46
q4 8 12 16q32 32 82 53q13 5 24 5q33 0 58 -30q47 -55 64 -123q6 -17 6 -36q-3 -65 -44 -121q-18 -24 -46 -39q-6 -3 -7 -4z" />
    <glyph glyph-name="AE" unicode="&#xc6;" horiz-adv-x="867" 
d="M345 546v198l-33 -144q-6 -24 -6 -36q0 -19 18 -19h5zM347 369h-26q-7 -1 -22 -1q-14 0 -24 -2q-8 -2 -11 -10q-1 -3 -7 -26q-12 -52 -29 -140q-10 -52 -15 -79q0 -2 -0.5 -6t-1.5 -6q-3 -21 -10 -37q-32 -62 -85 -62q-13 0 -28 5q-58 22 -58 81q0 15 4 30q12 62 17 91
q3 18 13 66.5t15 76.5q65 334 152 677q14 56 35 120q25 67 98 67h228q46 0 74 -1q43 -2 74 -3q24 -2 46 -13q51 -29 51 -79l-1 -13q-12 -63 -76 -73q-7 -1 -20 -1l-28 1q-10 1 -32 1.5t-34 0.5h-64l-26 -1q-14 0 -22 -6q-7 -6 -7 -22v-137q0 -78 -1 -119l-1 -25q0 -12 5 -15
q4 -4 18 -4l105 1q28 0 55 -10q58 -28 58 -83v-9q-9 -64 -76 -77q-5 0 -13.5 -0.5t-12.5 -1.5q-8 -1 -28 -1h-85q-15 0 -19 -7q-6 -7 -6 -22l-1 -296q0 -22 19 -22h7q56 2 166 4l26 2q6 0 18 -2q60 -10 74 -71l1 -14q0 -46 -45 -78q-30 -14 -66 -16h-18q-54 -2 -90 -2h-127
q-62 0 -103 44t-41 98l2 65l-1 77v85z" />
    <glyph glyph-name="Ccedilla" unicode="&#xc7;" horiz-adv-x="584" 
d="M221 12q-59 21 -98 74q-47 59 -70 129q-23 71 -23 145v5q0 62 5 137q5 74 16 136q31 179 95 354q29 78 79 141q37 46 92 69q32 12 61 12q40 0 74 -19t57 -58q45 -79 45 -165q0 -26 -5 -59q-4 -32 -27 -52t-52 -20h-4q-65 5 -80 77q-1 9 -1 27l-2 26v9q0 27 -12 49
q-11 -3 -19 -11q-5 -5 -13 -17l-4 -6q-25 -43 -38 -85q-42 -119 -70 -253q-28 -125 -28 -262q0 -38 5 -83q5 -41 26 -79q9 -18 26 -41q19 -19 38 -19t41 20q14 15 26 36q19 31 24 41q14 30 39 46q23 16 47 16q21 0 43 -14q39 -24 39 -62q0 -9 -3 -18q-15 -55 -51 -109
q-35 -54 -88 -92q-23 -15 -45 -24q1 -9 6 -14q9 -7 24 -13q66 -30 85 -100q7 -25 7 -57q0 -21 -5 -53l-1 -9q-6 -37 -34 -86q-45 -65 -113 -65q-8 0 -24 2q-13 3 -18 4q-99 27 -156 113q-25 31 -25 67q0 6 2 16q3 16 9 28q26 44 64 44q8 0 11 -1q28 -4 48 -31q12 -16 17 -29
q17 -31 45 -45q1 0 2.5 -0.5t2.5 -1.5t2 -1h2q9 0 10 13q2 9 4 29l1 5q0 16 -20 21q-44 7 -69 40q-24 32 -24 76v2q0 15 2 45z" />
    <glyph glyph-name="Egrave" unicode="&#xc8;" horiz-adv-x="572" 
d="M322 0h-127q-61 0 -102.5 42.5t-41.5 99.5l2 65l-1 77v130q-2 160 -2 215q0 53 2 283v90l1 63q0 56 34 95t90 46q64 8 120 8q91 0 148 -4q24 -2 46 -13q51 -24 51 -79l-1 -13q-5 -29 -25.5 -49t-50.5 -24q-7 -1 -20 -1l-28 1q-74 2 -130 2l-26 -1q-16 -1 -22.5 -7
t-6.5 -21v-137q0 -78 -1 -119l-1 -25q0 -12 4.5 -15.5t18.5 -3.5l105 1q29 0 55 -10t42 -33t16 -50v-9q-3 -30 -24 -51.5t-52 -25.5q-31 -3 -54 -3h-85q-25 0 -25 -29l-1 -296q0 -22 22 -22h4q68 2 166 4l26 2q6 0 18 -2q29 -4 49 -23t25 -48l1 -14q0 -52 -45 -78
q-27 -14 -66 -16q-78 -2 -108 -2zM263 1584q26 0 47 -15.5t30 -43.5q22 -81 58 -186q4 -11 4 -24q0 -49 -43 -71q-20 -10 -38 -10q-36 0 -56 29q-65 98 -87 219q0 40 18.5 67t48.5 33z" />
    <glyph glyph-name="Eacute" unicode="&#xc9;" horiz-adv-x="572" 
d="M322 0h-127q-61 0 -102.5 42.5t-41.5 99.5l2 65l-1 77v130q-2 160 -2 215q0 53 2 283v90l1 63q0 56 34 95t90 46q64 8 120 8q91 0 148 -4q24 -2 46 -13q51 -24 51 -79l-1 -13q-5 -29 -25.5 -49t-50.5 -24q-7 -1 -20 -1l-28 1q-74 2 -130 2l-26 -1q-16 -1 -22.5 -7
t-6.5 -21v-137q0 -78 -1 -119l-1 -25q0 -12 4.5 -15.5t18.5 -3.5l105 1q29 0 55 -10t42 -33t16 -50v-9q-3 -30 -24 -51.5t-52 -25.5q-31 -3 -54 -3h-85q-25 0 -25 -29l-1 -296q0 -22 22 -22h4q68 2 166 4l26 2q6 0 18 -2q29 -4 49 -23t25 -48l1 -14q0 -52 -45 -78
q-27 -14 -66 -16q-78 -2 -108 -2zM384 1584l17 -2q30 -6 48.5 -33t18.5 -67q-22 -120 -86 -219q-21 -29 -57 -29q-18 0 -38 10q-43 22 -43 71q0 13 4 24q34 100 59 186q8 28 29 43.5t48 15.5z" />
    <glyph glyph-name="Ecircumflex" unicode="&#xca;" horiz-adv-x="572" 
d="M322 0h-127q-61 0 -102.5 42.5t-41.5 99.5l2 65l-1 77v130q-2 160 -2 215q0 53 2 283v90l1 63q0 56 34 95t90 46q64 8 120 8q91 0 148 -4q24 -2 46 -13q51 -24 51 -79l-1 -13q-5 -29 -25.5 -49t-50.5 -24q-7 -1 -20 -1l-28 1q-74 2 -130 2l-26 -1q-16 -1 -22.5 -7
t-6.5 -21v-137q0 -78 -1 -119l-1 -25q0 -12 4.5 -15.5t18.5 -3.5l105 1q29 0 55 -10t42 -33t16 -50v-9q-3 -30 -24 -51.5t-52 -25.5q-31 -3 -54 -3h-85q-25 0 -25 -29l-1 -296q0 -22 22 -22h4q68 2 166 4l26 2q6 0 18 -2q29 -4 49 -23t25 -48l1 -14q0 -52 -45 -78
q-27 -14 -66 -16q-78 -2 -108 -2zM446 1224q-27 0 -51 18q-16 11 -38 43q-27 40 -38 53q-9 11 -17 11q-7 0 -16 -10q-26 -32 -58 -78q-23 -37 -61 -37q-20 0 -38 12q-37 23 -37 68q0 6 2 18q5 25 14 40q45 80 90 126q46 48 99 48h3q68 -1 116 -45q31 -28 47 -50t44 -69
q12 -20 13 -41q2 -12 2 -18q0 -47 -34 -74q-20 -15 -42 -15z" />
    <glyph glyph-name="Edieresis" unicode="&#xcb;" horiz-adv-x="572" 
d="M322 0h-127q-61 0 -102.5 42.5t-41.5 99.5l2 65l-1 77v130q-2 160 -2 215q0 53 2 283v90l1 63q0 56 34 95t90 46q64 8 120 8q91 0 148 -4q24 -2 46 -13q51 -24 51 -79l-1 -13q-5 -29 -25.5 -49t-50.5 -24q-7 -1 -20 -1l-28 1q-74 2 -130 2l-26 -1q-16 -1 -22.5 -7
t-6.5 -21v-137q0 -78 -1 -119l-1 -25q0 -12 4.5 -15.5t18.5 -3.5l105 1q29 0 55 -10t42 -33t16 -50v-9q-3 -30 -24 -51.5t-52 -25.5q-31 -3 -54 -3h-85q-25 0 -25 -29l-1 -296q0 -22 22 -22h4q68 2 166 4l26 2q6 0 18 -2q29 -4 49 -23t25 -48l1 -14q0 -52 -45 -78
q-27 -14 -66 -16q-78 -2 -108 -2zM208 1234h-2q-38 0 -65.5 26.5t-27.5 63.5q0 38 26 64.5t64 26.5q37 0 65 -27.5t28 -64.5v-2q0 -36 -26 -61t-62 -26zM422 1234h-2q-38 0 -65.5 26.5t-27.5 63.5q0 38 26 64.5t64 26.5q37 0 65 -27.5t28 -64.5v-2q0 -36 -26 -61t-62 -26z
" />
    <glyph glyph-name="Igrave" unicode="&#xcc;" horiz-adv-x="287" 
d="M152 0h-7q-54 0 -80 53q-12 27 -14 78v32q0 21 0.5 61t0.5 61q0 36 -1 55q-1 51 -1 152q0 139 1 209q1 78 3.5 221.5t3.5 189.5v15q4 38 27 62t57 25h4q32 0 56 -21.5t31 -57.5q2 -12 4 -38q0 -19 -2 -57l-7 -367l1 -68q0 -20 -0.5 -59.5t-0.5 -59.5q0 -54 2 -166
q1 -35 1 -102q0 -69 -1 -107v-10q0 -14 -3 -29q-6 -30 -26.5 -49.5t-48.5 -22.5zM84 1584q26 0 47 -15.5t30 -43.5q22 -81 58 -186q4 -11 4 -24q0 -49 -43 -71q-20 -10 -38 -10q-36 0 -56 29q-65 98 -87 219q0 40 18.5 67t48.5 33z" />
    <glyph glyph-name="Iacute" unicode="&#xcd;" horiz-adv-x="287" 
d="M152 0h-7q-54 0 -80 53q-12 27 -14 78v32q0 21 0.5 61t0.5 61q0 36 -1 55q-1 51 -1 152q0 139 1 209q1 78 3.5 221.5t3.5 189.5v15q4 38 27 62t57 25h4q32 0 56 -21.5t31 -57.5q2 -12 4 -38q0 -19 -2 -57l-7 -367l1 -68q0 -20 -0.5 -59.5t-0.5 -59.5q0 -54 2 -166
q1 -35 1 -102q0 -69 -1 -107v-10q0 -14 -3 -29q-6 -30 -26.5 -49.5t-48.5 -22.5zM204 1584l17 -2q30 -6 48.5 -33t18.5 -67q-22 -120 -86 -219q-21 -29 -57 -29q-18 0 -38 10q-43 22 -43 71q0 13 4 24q34 100 59 186q8 28 29 43.5t48 15.5z" />
    <glyph glyph-name="Icircumflex" unicode="&#xce;" horiz-adv-x="287" 
d="M152 0h-7q-54 0 -80 53q-12 27 -14 78v32q0 21 0.5 61t0.5 61q0 36 -1 55q-1 51 -1 152q0 139 1 209q1 78 3.5 221.5t3.5 189.5v15q4 38 27 62t57 25h4q32 0 56 -21.5t31 -57.5q2 -12 4 -38q0 -19 -2 -57l-7 -367l1 -68q0 -20 -0.5 -59.5t-0.5 -59.5q0 -54 2 -166
q1 -35 1 -102q0 -69 -1 -107v-10q0 -14 -3 -29q-6 -30 -26.5 -49.5t-48.5 -22.5zM282 1214q-27 0 -51 18q-16 11 -38 43q-27 40 -38 53q-9 11 -17 11q-7 0 -16 -10q-26 -32 -58 -78q-23 -37 -61 -37q-20 0 -38 12q-37 23 -37 68q0 6 2 18q5 25 14 40q45 80 90 126
q46 48 99 48h3q68 -1 116 -45q31 -28 47 -50t44 -69q12 -20 13 -41q2 -12 2 -18q0 -47 -34 -74q-20 -15 -42 -15z" />
    <glyph glyph-name="Idieresis" unicode="&#xcf;" horiz-adv-x="287" 
d="M152 0h-7q-54 0 -80 53q-12 27 -14 78v32q0 21 0.5 61t0.5 61q0 36 -1 55q-1 51 -1 152q0 139 1 209q1 78 3.5 221.5t3.5 189.5v15q4 38 27 62t57 25h4q32 0 56 -21.5t31 -57.5q2 -12 4 -38q0 -19 -2 -57l-7 -367l1 -68q0 -20 -0.5 -59.5t-0.5 -59.5q0 -54 2 -166
q1 -35 1 -102q0 -69 -1 -107v-10q0 -14 -3 -29q-6 -30 -26.5 -49.5t-48.5 -22.5zM36 1234h-2q-38 0 -65.5 26.5t-27.5 63.5q0 38 26 64.5t64 26.5q37 0 65 -27.5t28 -64.5v-2q0 -36 -26 -61t-62 -26zM250 1234h-2q-38 0 -65.5 26.5t-27.5 63.5q0 38 26 64.5t64 26.5
q37 0 65 -27.5t28 -64.5v-2q0 -36 -26 -61t-62 -26z" />
    <glyph glyph-name="Eth" unicode="&#xd0;" horiz-adv-x="662" 
d="M53 686v16q0 31 1 44q1 29 1 77v73q1 25 1 79l-4 75l-1 18v6q-1 2 -1 6q0 12 3 22q14 68 79 74q14 0 21 -1q4 -1 13 -1h5q18 0 35 10q52 28 104 30h10q62 0 121 -36q66 -40 101 -97q35 -59 50 -130q16 -69 19 -146l1 -71v-23q0 -181 -15 -359q-12 -125 -79 -231
q-73 -118 -204 -121h-27q-24 0 -51 3l-22 1h-18q-4 0 -18 -2q-16 -2 -24 -2h-5q-25 0 -45 11q-21 11 -31 35q-8 21 -11 42q-7 63 -7 134l-2 68v3q-2 46 -2 67l1 156q-27 5 -47 13q-59 26 -59 78v9l2 10q20 62 80 62q7 0 11 -1q5 -1 14 -1zM232 692q7 1 19 1q10 0 15 -1
q18 -2 36 -9q24 -11 38 -33q13 -20 13 -45v-7q-5 -33 -32 -56q-35 -28 -77 -29q-5 -1 -14 -1v-94l-1 -39v-27q0 -45 1 -66q1 -14 1 -35v-14q0 -20 1 -31v-6q0 -8 3 -14q1 -6 10 -11q15 -7 34 -7h7q63 3 89 50q43 74 52 160q9 123 11 274q0 12 1 35t1 34q0 50 -1 73
q-3 58 -13 109q-6 32 -18 62q-13 31 -37 53q-26 23 -49 23h-3q-19 0 -42 -15q-1 0 -2 -1q-14 -10 -21 -13q-22 -7 -22 -32v-87q1 -19 1 -58q0 -95 -1 -143z" />
    <glyph glyph-name="Ntilde" unicode="&#xd1;" horiz-adv-x="638" 
d="M155 -3h-13q-50 0 -77 47q-14 28 -14 58v450q0 197 -1 321q0 31 0.5 82t0.5 77v78q0 23 5 39q9 31 32.5 48t51.5 17q19 0 43 -8.5t37 -21.5q24 -26 36 -67q22 -74 32 -112q82 -326 98 -380q12 -40 24 -64l1 58q1 45 1 129q0 55 -1.5 161.5t-1.5 141.5q0 22 2 88
q5 35 29 55t57 20h2q34 -1 57 -21.5t28 -55.5q1 -10 1 -28q1 -55 1 -157v-180q0 -100 1 -152q1 -59 1 -168q0 -148 -3 -293v-53q0 -77 -60 -98q-17 -8 -39 -8q-64 0 -92 66q-43 99 -75 191q-50 142 -69 204q-10 25 -15 31q-6 -7 -6 -16v-382q0 -14 -1 -20q-4 -30 -24 -51
t-49 -26zM360 1234q-47 3 -94 34l-15 9q-10 4 -13 4q-7 0 -17 -5q-27 -20 -53 -20h-4q-25 2 -43 21q-22 18 -22 50v6q2 27 19 46q43 44 120 44l21 -1q37 -4 75 -29q18 -9 28 -10q19 0 42 14q14 11 22 16q20 11 41 11h5q17 -1 38 -14q32 -21 32 -59l-1 -4l-1 -11
q-7 -33 -32 -51q-68 -51 -138 -51h-10z" />
    <glyph glyph-name="Ograve" unicode="&#xd2;" horiz-adv-x="626" 
d="M304 180q4 0 7 0.5t6.5 2.5t5.5 3t5 4l4.5 4.5t4.5 6t3.5 5.5t4 6t3.5 6q20 38 35 107q7 32 11.5 71t6.5 62.5t4 74.5t3 66v126q0 85 -27 191q-16 64 -44 99q-13 18 -23 18q-12 0 -22 -25l-4 -12q-71 -241 -71 -444q0 -97 16 -190q14 -97 30 -139q15 -40 38 -43h3zM306 0
q-45 0 -92 26q-71 39 -104 124q-20 48 -38 152q-22 123 -22 251q0 246 86 520q11 36 28 66q26 44 68 52q14 3 27 9q31 14 63 14q53 0 104 -43q62 -54 94 -140q47 -120 55 -263l1 -56l-1 -113q0 -7 -1.5 -45.5t-2 -50t-2 -44.5t-3.5 -50.5t-5.5 -44.5t-7.5 -50t-10 -46
q-16 -69 -41 -122q-34 -71 -95 -112q-49 -34 -101 -34zM258 1584q26 0 47 -15.5t30 -43.5q22 -81 58 -186q4 -11 4 -24q0 -49 -43 -71q-20 -10 -38 -10q-36 0 -56 29q-65 98 -87 219q0 40 18.5 67t48.5 33z" />
    <glyph glyph-name="Oacute" unicode="&#xd3;" horiz-adv-x="626" 
d="M304 180q4 0 7 0.5t6.5 2.5t5.5 3t5 4l4.5 4.5t4.5 6t3.5 5.5t4 6t3.5 6q20 38 35 107q7 32 11.5 71t6.5 62.5t4 74.5t3 66v126q0 85 -27 191q-16 64 -44 99q-13 18 -23 18q-12 0 -22 -25l-4 -12q-71 -241 -71 -444q0 -97 16 -190q14 -97 30 -139q15 -40 38 -43h3zM306 0
q-45 0 -92 26q-71 39 -104 124q-20 48 -38 152q-22 123 -22 251q0 246 86 520q11 36 28 66q26 44 68 52q14 3 27 9q31 14 63 14q53 0 104 -43q62 -54 94 -140q47 -120 55 -263l1 -56l-1 -113q0 -7 -1.5 -45.5t-2 -50t-2 -44.5t-3.5 -50.5t-5.5 -44.5t-7.5 -50t-10 -46
q-16 -69 -41 -122q-34 -71 -95 -112q-49 -34 -101 -34zM380 1584l17 -2q30 -6 48.5 -33t18.5 -67q-22 -120 -86 -219q-21 -29 -57 -29q-18 0 -38 10q-43 22 -43 71q0 13 4 24q34 100 59 186q8 28 29 43.5t48 15.5z" />
    <glyph glyph-name="Ocircumflex" unicode="&#xd4;" horiz-adv-x="626" 
d="M304 180q4 0 7 0.5t6.5 2.5t5.5 3t5 4l4.5 4.5t4.5 6t3.5 5.5t4 6t3.5 6q20 38 35 107q7 32 11.5 71t6.5 62.5t4 74.5t3 66v126q0 85 -27 191q-16 64 -44 99q-13 18 -23 18q-12 0 -22 -25l-4 -12q-71 -241 -71 -444q0 -97 16 -190q14 -97 30 -139q15 -40 38 -43h3zM306 0
q-45 0 -92 26q-71 39 -104 124q-20 48 -38 152q-22 123 -22 251q0 246 86 520q11 36 28 66q26 44 68 52q14 3 27 9q31 14 63 14q53 0 104 -43q62 -54 94 -140q47 -120 55 -263l1 -56l-1 -113q0 -7 -1.5 -45.5t-2 -50t-2 -44.5t-3.5 -50.5t-5.5 -44.5t-7.5 -50t-10 -46
q-16 -69 -41 -122q-34 -71 -95 -112q-49 -34 -101 -34zM457 1214q-27 0 -51 18q-16 11 -38 43q-27 40 -38 53q-9 11 -17 11q-7 0 -16 -10q-26 -32 -58 -78q-23 -37 -61 -37q-20 0 -38 12q-37 23 -37 68q0 6 2 18q5 25 14 40q45 80 90 126q46 48 99 48h3q68 -1 116 -45
q31 -28 47 -50t44 -69q12 -20 13 -41q2 -12 2 -18q0 -47 -34 -74q-19 -15 -42 -15z" />
    <glyph glyph-name="Otilde" unicode="&#xd5;" horiz-adv-x="626" 
d="M304 180q4 0 7 0.5t6.5 2.5t5.5 3t5 4l4.5 4.5t4.5 6t3.5 5.5t4 6t3.5 6q20 38 35 107q7 32 11.5 71t6.5 62.5t4 74.5t3 66v126q0 85 -27 191q-16 64 -44 99q-13 18 -23 18q-12 0 -22 -25l-4 -12q-71 -241 -71 -444q0 -97 16 -190q14 -97 30 -139q15 -40 38 -43h3zM306 0
q-45 0 -92 26q-71 39 -104 124q-20 48 -38 152q-22 123 -22 251q0 246 86 520q11 36 28 66q26 44 68 52q14 3 27 9q31 14 63 14q53 0 104 -43q62 -54 94 -140q47 -120 55 -263l1 -56l-1 -113q0 -7 -1.5 -45.5t-2 -50t-2 -44.5t-3.5 -50.5t-5.5 -44.5t-7.5 -50t-10 -46
q-16 -69 -41 -122q-34 -71 -95 -112q-49 -34 -101 -34zM358 1234q-47 3 -94 34l-15 9q-10 4 -13 4q-7 0 -17 -5q-27 -20 -53 -20h-4q-25 2 -43 21q-22 18 -22 50v6q2 27 19 46q43 44 120 44l21 -1q37 -4 75 -29q18 -9 28 -10q19 0 42 14q14 11 22 16q20 11 41 11h5
q17 -1 38 -14q32 -21 32 -59l-1 -4l-1 -11q-7 -33 -32 -51q-68 -51 -138 -51h-10z" />
    <glyph glyph-name="Odieresis" unicode="&#xd6;" horiz-adv-x="626" 
d="M304 180q4 0 7 0.5t6.5 2.5t5.5 3t5 4l4.5 4.5t4.5 6t3.5 5.5t4 6t3.5 6q20 38 35 107q7 32 11.5 71t6.5 62.5t4 74.5t3 66v126q0 85 -27 191q-16 64 -44 99q-13 18 -23 18q-12 0 -22 -25l-4 -12q-71 -241 -71 -444q0 -97 16 -190q14 -97 30 -139q15 -40 38 -43h3zM306 0
q-45 0 -92 26q-71 39 -104 124q-20 48 -38 152q-22 123 -22 251q0 246 86 520q11 36 28 66q26 44 68 52q14 3 27 9q31 14 63 14q53 0 104 -43q62 -54 94 -140q47 -120 55 -263l1 -56l-1 -113q0 -7 -1.5 -45.5t-2 -50t-2 -44.5t-3.5 -50.5t-5.5 -44.5t-7.5 -50t-10 -46
q-16 -69 -41 -122q-34 -71 -95 -112q-49 -34 -101 -34zM212 1234h-2q-38 0 -65.5 26.5t-27.5 63.5q0 38 26 64.5t64 26.5q37 0 65 -27.5t28 -64.5v-2q0 -36 -26 -61t-62 -26zM426 1234h-2q-38 0 -65.5 26.5t-27.5 63.5q0 38 26 64.5t64 26.5q37 0 65 -27.5t28 -64.5v-2
q0 -36 -26 -61t-62 -26z" />
    <glyph glyph-name="multiply" unicode="&#xd7;" horiz-adv-x="661" 
d="M116 327q-46 2 -71 40q-15 22 -15 52q2 38 34 67q12 11 26.5 23t32.5 26.5t28 22.5q28 24 29 29q0 5 -27 33q-7 10 -24 21q-42 31 -42 70v5q0 18 9 36q25 43 80 43h3q15 0 34 -7q21 -10 39 -28q32 -28 46 -43q12 -12 22 -13q11 0 22 10q10 8 122 92q34 26 70 27h7
q29 -2 50.5 -17.5t29.5 -42.5q3 -12 3 -26q-2 -43 -41 -66q-38 -24 -111 -91q24 -21 78 -49q40 -23 54 -39q27 -28 27 -62v-3q0 -17 -9 -34q-22 -48 -77 -48h-6l-10 1q-31 3 -68 22q-59 31 -110 66q-17 13 -24 14q-7 0 -26 -16q-58 -49 -93 -76q-19 -16 -43 -29
q-21 -10 -43 -10h-6z" />
    <glyph glyph-name="Oslash" unicode="&#xd8;" horiz-adv-x="626" 
d="M524 1020q45 -123 51 -252l1 -56l-1 -113q-1 -11 -1 -35q-1 -65 -8 -147q-6 -72 -23 -149q-13 -62 -41 -122q-31 -68 -95 -112q-49 -34 -101 -34q-45 0 -92 26q-22 14 -32 22q-26 -48 -68 -48q-8 0 -17 3q-57 16 -57 82l1 12q7 43 25 102l4 13q2 7 5.5 19.5t5.5 18.5
q-9 49 -9 52q-22 123 -22 251t23 261q22 129 63 259q11 36 28 66q25 42 68 52q14 3 27 9q33 14 63 14q57 0 104 -43l7 -7l1 2q26 48 71 48l17 -2q26 -4 43 -24q16 -19 16 -44q0 -20 -12 -39q-26 -36 -43 -81zM222 671q54 146 122 306q1 2 3.5 8t3.5 8q-4 8 -14 22
q-13 18 -23 18q-12 0 -22 -25l-4 -12q-32 -106 -52 -220q-10 -58 -14 -105zM408 726q-80 -208 -147 -420l-12 -36q5 -20 14 -47q4 -12 13 -27q7 -13 25 -16h3q17 0 26 11q9 10 17 25q0 1 1 2q24 47 35 107q20 107 22 219q1 19 3 55v127z" />
    <glyph glyph-name="Ugrave" unicode="&#xd9;" horiz-adv-x="616" 
d="M306 0q-36 0 -64 14.5t-61 51.5q-42 47 -62 102q-40 115 -52 230q-15 131 -17 256v180q1 12 1 47v234q0 17 2 26q7 32 29.5 52t53.5 21h4q30 0 53.5 -18t30.5 -48q5 -21 5 -52v-44q0 -28 0.5 -85.5t0.5 -93.5t-1 -95.5t-1 -88.5v-28q0 -104 14 -260q8 -88 30 -151
q6 -17 14 -37q9 -21 22 -21q8 0 20 18q18 26 28 66q15 58 22 139q9 113 9 371v39l2 146l-1 128q0 41 11 64q25 51 76 51h7q27 -2 48 -18t29 -43q7 -20 7 -43v-91l-1 -199q0 -177 -7 -265q-11 -195 -34 -301q-19 -77 -47 -128q-36 -62 -55 -80q-18 -17 -41 -28
q-39 -18 -75 -18zM257 1584q26 0 47 -15.5t30 -43.5q22 -81 58 -186q4 -11 4 -24q0 -49 -43 -71q-20 -10 -38 -10q-36 0 -56 29q-65 98 -87 219q0 40 18.5 67t48.5 33z" />
    <glyph glyph-name="Uacute" unicode="&#xda;" horiz-adv-x="616" 
d="M306 0q-36 0 -64 14.5t-61 51.5q-42 47 -62 102q-40 115 -52 230q-15 131 -17 256v180q1 12 1 47v234q0 17 2 26q7 32 29.5 52t53.5 21h4q30 0 53.5 -18t30.5 -48q5 -21 5 -52v-44q0 -28 0.5 -85.5t0.5 -93.5t-1 -95.5t-1 -88.5v-28q0 -104 14 -260q8 -88 30 -151
q6 -17 14 -37q9 -21 22 -21q8 0 20 18q18 26 28 66q15 58 22 139q9 113 9 371v39l2 146l-1 128q0 41 11 64q25 51 76 51h7q27 -2 48 -18t29 -43q7 -20 7 -43v-91l-1 -199q0 -177 -7 -265q-11 -195 -34 -301q-19 -77 -47 -128q-36 -62 -55 -80q-18 -17 -41 -28
q-39 -18 -75 -18zM380 1584l17 -2q30 -6 48.5 -33t18.5 -67q-22 -120 -86 -219q-21 -29 -57 -29q-18 0 -38 10q-43 22 -43 71q0 13 4 24q34 100 59 186q8 28 29 43.5t48 15.5z" />
    <glyph glyph-name="Ucircumflex" unicode="&#xdb;" horiz-adv-x="616" 
d="M306 0q-36 0 -64 14.5t-61 51.5q-42 47 -62 102q-40 115 -52 230q-15 131 -17 256v180q1 12 1 47v234q0 17 2 26q7 32 29.5 52t53.5 21h4q30 0 53.5 -18t30.5 -48q5 -21 5 -52v-44q0 -28 0.5 -85.5t0.5 -93.5t-1 -95.5t-1 -88.5v-28q0 -104 14 -260q8 -88 30 -151
q6 -17 14 -37q9 -21 22 -21q8 0 20 18q18 26 28 66q15 58 22 139q9 113 9 371v39l2 146l-1 128q0 41 11 64q25 51 76 51h7q27 -2 48 -18t29 -43q7 -20 7 -43v-91l-1 -199q0 -177 -7 -265q-11 -195 -34 -301q-19 -77 -47 -128q-36 -62 -55 -80q-18 -17 -41 -28
q-39 -18 -75 -18zM452 1234q-27 0 -51 18q-16 11 -38 43q-27 40 -38 53q-9 11 -17 11q-7 0 -16 -10q-26 -32 -58 -78q-23 -37 -61 -37q-20 0 -38 12q-37 23 -37 68q0 6 2 18q5 25 14 40q45 80 90 126q46 48 99 48h3q68 -1 116 -45q31 -28 47 -50t44 -69q12 -20 13 -41
q2 -12 2 -18q0 -47 -34 -74q-20 -15 -42 -15z" />
    <glyph glyph-name="Udieresis" unicode="&#xdc;" horiz-adv-x="616" 
d="M306 0q-36 0 -64 14.5t-61 51.5q-42 47 -62 102q-40 115 -52 230q-15 131 -17 256v180q1 12 1 47v234q0 17 2 26q7 32 29.5 52t53.5 21h4q30 0 53.5 -18t30.5 -48q5 -21 5 -52v-44q0 -28 0.5 -85.5t0.5 -93.5t-1 -95.5t-1 -88.5v-28q0 -104 14 -260q8 -88 30 -151
q6 -17 14 -37q9 -21 22 -21q8 0 20 18q18 26 28 66q15 58 22 139q9 113 9 371v39l2 146l-1 128q0 41 11 64q25 51 76 51h7q27 -2 48 -18t29 -43q7 -20 7 -43v-91l-1 -199q0 -177 -7 -265q-11 -195 -34 -301q-19 -77 -47 -128q-36 -62 -55 -80q-18 -17 -41 -28
q-39 -18 -75 -18zM215 1234h-2q-38 0 -65.5 26.5t-27.5 63.5q0 38 26 64.5t64 26.5q37 0 65 -27.5t28 -64.5v-2q0 -36 -26 -61t-62 -26zM429 1234h-2q-38 0 -65.5 26.5t-27.5 63.5q0 38 26 64.5t64 26.5q37 0 65 -27.5t28 -64.5v-2q0 -36 -26 -61t-62 -26z" />
    <glyph glyph-name="Yacute" unicode="&#xdd;" horiz-adv-x="637" 
d="M312 0q-49 0 -75 45q-15 26 -15 65l-2 349q0 20 -5 29q-69 170 -113 378q-32 154 -63 222q-9 19 -9 40q0 18 9 38q22 48 76 48q32 0 56 -20q29 -22 45 -69q53 -168 59 -192q23 -93 43 -150q11 14 20 48q56 193 66 219q9 26 25 80q7 27 17 45q28 42 75 42q10 0 22 -3
q27 -7 45 -29t19 -52v-6q0 -24 -11 -57q-19 -54 -83.5 -248t-107.5 -303q-6 -18 -6 -43v-12l-1 -45q0 -45 1 -133t1 -132l-1 -43q0 -26 -2 -39q-5 -28 -23.5 -47t-44.5 -23zM380 1584l17 -2q30 -6 48.5 -33t18.5 -67q-22 -120 -86 -219q-21 -29 -57 -29q-18 0 -38 10
q-43 22 -43 71q0 13 4 24q34 100 59 186q8 28 29 43.5t48 15.5z" />
    <glyph glyph-name="Thorn" unicode="&#xde;" horiz-adv-x="607" 
d="M232 425q19 3 40 28q106 116 106 274l-2 41q-3 20 -13 46q-11 30 -25.5 42.5t-38.5 12.5q-13 0 -29 -3q-29 -5 -36 -13t-7 -39v-350l-1 -16q0 -13 6 -23zM147 0h-6q-27 0 -50.5 17t-32.5 44q-8 23 -8 60v820q0 89 12 177q5 27 7 32q10 29 31.5 46.5t49.5 17.5l9 -1
q31 -2 52.5 -23.5t26.5 -54.5l1 -16q0 -9 -2 -24.5t-2 -20.5l-1 -16q0 -13 14 -13l13 1l34 1q30 0 54 -4q95 -16 148 -101q60 -92 60 -206l-2 -37q-11 -169 -93 -292q-71 -106 -161 -154q-6 -3 -24 -13t-29 -15q-23 -12 -23 -38v-5q3 -33 3 -68v-20q0 -14 -1 -20
q-5 -31 -27.5 -51.5t-52.5 -22.5z" />
    <glyph glyph-name="germandbls" unicode="&#xdf;" horiz-adv-x="596" 
d="M336 0l-12 1q-33 1 -56.5 21t-28.5 50l-1 15q0 27 16 48.5t43 31.5q45 16 61 29q30 24 30 55v8q0 9 -2 27.5t-3 27.5q-4 60 -59 84q-78 37 -78 108q0 24 9 54q18 61 60 127q46 74 46 171q0 36 -4 67q-5 45 -39 92q-10 16 -20 16q-9 0 -22 -12q-20 -19 -27 -53
q-20 -91 -20 -150v-14q3 -84 3 -168q0 -62 -2 -189.5t-2 -194.5l1 -119q0 -37 -4 -55q-7 -37 -31 -57.5t-57 -20.5h-8q-34 3 -56 28.5t-22 63.5q-1 42 -1 129v260h1v311q0 101 26 220q28 122 134 177q48 25 93 25q72 0 128 -57q83 -85 100 -207q7 -43 7 -94q0 -46 -5 -79
q-7 -62 -35 -119q-27 -51 -30 -58q-3 -5 -10 -16.5t-11 -20.5t-4 -17v-3q0 -9 7.5 -15.5t18.5 -13t16 -11.5q45 -43 60 -103q20 -74 20 -146v-17q-3 -79 -56 -140q-37 -43 -105 -80q-32 -17 -69 -17z" />
    <glyph glyph-name="agrave" unicode="&#xe0;" horiz-adv-x="596" 
d="M239 167q11 0 25 6q37 18 64 58q37 53 39 131v12q0 55 -35 55q-14 0 -29 -4q-23 -7 -35 -18q-71 -74 -71 -168q0 -10 2 -32q5 -40 40 -40zM445 -12q-35 0 -61 26q-15 15 -28 15q-7 0 -23 -7q-47 -22 -95 -22q-80 0 -138.5 53.5t-67.5 139.5q-2 28 -2 43q0 150 99 265
q75 90 208 95q14 1 19.5 2t9 4.5t3.5 9.5l-3 19q-9 42 -24 80q-7 17 -20 17q-7 0 -15 -4q-79 -32 -101 -71q-12 -24 -20 -35q-24 -35 -69 -35q-11 0 -23 3q-25 7 -42.5 27.5t-20.5 47.5l-1 13q0 28 16 57q71 131 249 176q23 5 41 5q91 0 145 -85q41 -66 58 -193
q7 -52 7 -112l-1 -56q-2 -126 -9 -195q-7 -65 -7 -109q0 -29 3 -59l1 -15q0 -14 -3 -29q-7 -32 -31.5 -51.5t-53.5 -19.5zM216 1282q26 0 47 -15.5t30 -43.5q22 -81 58 -186q4 -11 4 -24q0 -49 -43 -71q-20 -10 -38 -10q-36 0 -56 29q-65 98 -87 219q0 40 18.5 67t48.5 33z
" />
    <glyph glyph-name="aacute" unicode="&#xe1;" horiz-adv-x="596" 
d="M239 167q11 0 25 6q37 18 64 58q37 53 39 131v12q0 55 -35 55q-14 0 -29 -4q-23 -7 -35 -18q-71 -74 -71 -168q0 -10 2 -32q5 -40 40 -40zM445 -12q-35 0 -61 26q-15 15 -28 15q-7 0 -23 -7q-47 -22 -95 -22q-80 0 -138.5 53.5t-67.5 139.5q-2 28 -2 43q0 150 99 265
q75 90 208 95q14 1 19.5 2t9 4.5t3.5 9.5l-3 19q-9 42 -24 80q-7 17 -20 17q-7 0 -15 -4q-79 -32 -101 -71q-12 -24 -20 -35q-24 -35 -69 -35q-11 0 -23 3q-25 7 -42.5 27.5t-20.5 47.5l-1 13q0 28 16 57q71 131 249 176q23 5 41 5q91 0 145 -85q41 -66 58 -193
q7 -52 7 -112l-1 -56q-2 -126 -9 -195q-7 -65 -7 -109q0 -29 3 -59l1 -15q0 -14 -3 -29q-7 -32 -31.5 -51.5t-53.5 -19.5zM337 1282l17 -2q30 -6 48.5 -33t18.5 -67q-22 -120 -86 -219q-21 -29 -57 -29q-18 0 -38 10q-43 22 -43 71q0 13 4 24q34 100 59 186q8 28 29 43.5
t48 15.5z" />
    <glyph glyph-name="acircumflex" unicode="&#xe2;" horiz-adv-x="596" 
d="M239 167q11 0 25 6q37 18 64 58q37 53 39 131v12q0 55 -35 55q-14 0 -29 -4q-23 -7 -35 -18q-71 -74 -71 -168q0 -10 2 -32q5 -40 40 -40zM445 -12q-35 0 -61 26q-15 15 -28 15q-7 0 -23 -7q-47 -22 -95 -22q-80 0 -138.5 53.5t-67.5 139.5q-2 28 -2 43q0 150 99 265
q75 90 208 95q14 1 19.5 2t9 4.5t3.5 9.5l-3 19q-9 42 -24 80q-7 17 -20 17q-7 0 -15 -4q-79 -32 -101 -71q-12 -24 -20 -35q-24 -35 -69 -35q-11 0 -23 3q-25 7 -42.5 27.5t-20.5 47.5l-1 13q0 28 16 57q71 131 249 176q23 5 41 5q91 0 145 -85q41 -66 58 -193
q7 -52 7 -112l-1 -56q-2 -126 -9 -195q-7 -65 -7 -109q0 -29 3 -59l1 -15q0 -14 -3 -29q-7 -32 -31.5 -51.5t-53.5 -19.5zM442 912q-27 0 -51 18q-16 11 -38 43q-27 40 -38 53q-9 11 -17 11q-7 0 -16 -10q-26 -32 -58 -78q-23 -37 -61 -37q-20 0 -38 12q-37 23 -37 68
q0 6 2 18q5 25 14 40q45 80 90 126q46 48 99 48h3q68 -1 116 -45q31 -28 47 -50t44 -69q12 -20 13 -41q2 -12 2 -18q0 -47 -34 -74q-20 -15 -42 -15z" />
    <glyph glyph-name="atilde" unicode="&#xe3;" horiz-adv-x="596" 
d="M239 167q11 0 25 6q37 18 64 58q37 53 39 131v12q0 55 -35 55q-14 0 -29 -4q-23 -7 -35 -18q-71 -74 -71 -168q0 -10 2 -32q5 -40 40 -40zM445 -12q-35 0 -61 26q-15 15 -28 15q-7 0 -23 -7q-47 -22 -95 -22q-80 0 -138.5 53.5t-67.5 139.5q-2 28 -2 43q0 150 99 265
q75 90 208 95q14 1 19.5 2t9 4.5t3.5 9.5l-3 19q-9 42 -24 80q-7 17 -20 17q-7 0 -15 -4q-79 -32 -101 -71q-12 -24 -20 -35q-24 -35 -69 -35q-11 0 -23 3q-25 7 -42.5 27.5t-20.5 47.5l-1 13q0 28 16 57q71 131 249 176q23 5 41 5q91 0 145 -85q41 -66 58 -193
q7 -52 7 -112l-1 -56q-2 -126 -9 -195q-7 -65 -7 -109q0 -29 3 -59l1 -15q0 -14 -3 -29q-7 -32 -31.5 -51.5t-53.5 -19.5zM341 933q-47 3 -94 34l-15 9q-10 4 -13 4q-7 0 -17 -5q-27 -20 -53 -20h-4q-25 2 -43 21q-22 18 -22 50v6q2 27 19 46q43 44 120 44l21 -1
q37 -4 75 -29q18 -9 28 -10q19 0 42 14q14 11 22 16q20 11 41 11h5q17 -1 38 -14q32 -21 32 -59l-1 -4l-1 -11q-7 -33 -32 -51q-68 -51 -138 -51h-10z" />
    <glyph glyph-name="adieresis" unicode="&#xe4;" horiz-adv-x="596" 
d="M239 167q11 0 25 6q37 18 64 58q37 53 39 131v12q0 55 -35 55q-14 0 -29 -4q-23 -7 -35 -18q-71 -74 -71 -168q0 -10 2 -32q5 -40 40 -40zM445 -12q-35 0 -61 26q-15 15 -28 15q-7 0 -23 -7q-47 -22 -95 -22q-80 0 -138.5 53.5t-67.5 139.5q-2 28 -2 43q0 150 99 265
q75 90 208 95q14 1 19.5 2t9 4.5t3.5 9.5l-3 19q-9 42 -24 80q-7 17 -20 17q-7 0 -15 -4q-79 -32 -101 -71q-12 -24 -20 -35q-24 -35 -69 -35q-11 0 -23 3q-25 7 -42.5 27.5t-20.5 47.5l-1 13q0 28 16 57q71 131 249 176q23 5 41 5q91 0 145 -85q41 -66 58 -193
q7 -52 7 -112l-1 -56q-2 -126 -9 -195q-7 -65 -7 -109q0 -29 3 -59l1 -15q0 -14 -3 -29q-7 -32 -31.5 -51.5t-53.5 -19.5zM207 932h-2q-38 0 -65.5 26.5t-27.5 63.5q0 38 26 64.5t64 26.5q37 0 65 -27.5t28 -64.5v-2q0 -36 -26 -61t-62 -26zM421 932h-2q-38 0 -65.5 26.5
t-27.5 63.5q0 38 26 64.5t64 26.5q37 0 65 -27.5t28 -64.5v-2q0 -36 -26 -61t-62 -26z" />
    <glyph glyph-name="aring" unicode="&#xe5;" horiz-adv-x="596" 
d="M239 167q11 0 25 6q39 19 64 58q39 65 39 125v18q0 55 -31 55h-4q-14 0 -29 -4q-20 -6 -35 -18q-71 -74 -71 -168q0 -10 2 -32q7 -40 40 -40zM264 1043l4 4q6 5 23 28q10 13 10 29q0 23 -42 47q-16 -28 -16 -53q0 -28 21 -55zM356 911q74 -9 125 -84q26 -42 40 -93
q12 -50 18 -100q7 -52 7 -112l-1 -56q0 -18 -0.5 -53.5t-1.5 -50.5q-1 -29 -7 -91q-7 -52 -7 -109q0 -30 3 -59l1 -15q0 -14 -3 -29q-9 -34 -33 -52q-23 -19 -52 -19q-32 0 -61 26q-14 15 -28 15q-10 0 -23 -7q-48 -22 -95 -22q-78 0 -136 52q-60 54 -70 141q-2 30 -2 43
q0 148 99 265q82 93 208 95q19 2 25 4q7 1 7 12l-3 19q-9 42 -24 80q-8 17 -20 17q-7 0 -15 -4q-36 -14 -58 -28q-25 -15 -43 -43q-7 -18 -20 -35q-29 -35 -69 -35q-11 0 -23 3q-54 18 -63 75l-1 13q0 31 16 57q39 71 105 114q40 24 61 33q-22 10 -33 18q-36 27 -52 71
q-15 45 -15 90q0 59 19 116q7 28 23 57q3 7 13 19q42 44 92 65q13 6 28 6q37 0 65 -37q55 -67 73 -151q6 -21 6 -44q-3 -81 -49 -148q-14 -20 -26 -29z" />
    <glyph glyph-name="ae" unicode="&#xe6;" horiz-adv-x="908" 
d="M239 167q11 0 25 6q39 19 64 58q39 65 39 125v18q0 55 -31 55h-4q-14 0 -29 -4q-20 -6 -35 -18q-71 -74 -71 -168q0 -10 2 -32q7 -40 40 -40zM615 590q21 0 46 5q37 6 40 42l2 26q0 23 -6 46q-4 19 -12 19q-7 0 -18 -9q-58 -46 -78 -127q18 -2 26 -2zM512 21
q-7 -9 -15 -14q-23 -19 -52 -19q-32 0 -61 26q-14 15 -28 15q-10 0 -23 -7q-48 -22 -95 -22q-78 0 -136 52q-60 54 -70 141q-2 30 -2 43q0 148 99 265q82 93 208 95q19 2 25 4q7 1 7 12l-3 19q-9 42 -24 80q-8 17 -20 17q-7 0 -15 -4q-36 -14 -58 -28q-25 -15 -43 -43
q-7 -18 -20 -35q-29 -35 -69 -35q-11 0 -23 3q-54 18 -63 75l-1 13q0 31 16 57q39 71 105 114q64 42 144 62q23 5 41 5q87 0 145 -85q9 -15 16 -29q45 55 112 91q46 23 88 23q51 0 91 -28t63 -81q27 -69 27 -140q0 -42 -9 -84q-16 -64 -67 -107q-52 -45 -119 -52
q-56 -6 -112 -9q-27 0 -27 -25l-1 -30q0 -32 5 -72q5 -37 18 -71q14 -35 38 -35q5 0 18 8q12 8 24 18q7 6 18 17q15 18 28 45q2 5 5 10q1 0 1 1t1 2q11 23 30 47q31 29 65 29q18 0 37 -8q47 -27 47 -77l-2 -18q-1 -7 -5 -19q-31 -79 -85 -139q-37 -38 -88 -66
q-52 -28 -95 -28q-47 0 -91 21z" />
    <glyph glyph-name="ccedilla" unicode="&#xe7;" horiz-adv-x="541" 
d="M186 13q-43 19 -75 56q-63 76 -73 172q-8 53 -8 96l1 34q0 73 15 144q14 66 38 138q38 113 128 197q48 45 108 58q16 4 35 4q79 0 131 -66q25 -31 25 -72v-4q0 -59 -52 -83q-17 -7 -34 -7q-32 0 -59 24q-17 17 -25 17q-6 0 -10 -4q-8 -8 -14 -15q-43 -46 -66 -108
q-18 -53 -31 -114q-12 -58 -12 -117q0 -47 6 -95q5 -40 24 -71q10 -15 23 -15q9 0 18 6q34 20 47 53l6 14q5 13 19 37q32 44 75 44q18 0 33 -7q52 -25 52 -79q0 -6 -2 -20q-42 -164 -180 -215v-8q0 -15 6 -20q9 -7 24 -13q66 -30 85 -100q7 -25 7 -57q0 -21 -5 -53l-1 -9
q-6 -37 -34 -86q-45 -65 -113 -65q-8 0 -24 2q-13 3 -18 4q-99 27 -156 113q-25 31 -25 67q0 6 2 16q3 16 9 28q26 44 64 44q8 0 11 -1q28 -4 48 -31q12 -16 17 -29q16 -31 45 -45q1 0 2.5 -0.5t2.5 -1.5t2 -1h2q9 0 10 13q2 9 4 29l1 5q0 16 -20 21q-44 7 -69 40
q-24 31 -24 76v2q0 33 4 58z" />
    <glyph glyph-name="egrave" unicode="&#xe8;" horiz-adv-x="571" 
d="M278 590q8 0 46 5q36 6 40 42l2 26q0 23 -6 46q-6 19 -12 19t-18 -9q-51 -38 -78 -127q18 -2 26 -2zM266 0q-61 0 -114 34t-80 96q-36 84 -42 232q4 185 83 359q51 111 159 168q44 23 88 23q50 0 91.5 -28.5t62.5 -80.5q27 -67 27 -140q0 -42 -9 -84
q-15 -63 -67.5 -107.5t-118.5 -51.5q-56 -6 -112 -9q-27 0 -27 -25l-1 -30q0 -84 23 -143q12 -35 38 -35q8 0 28 15t32 28q10 12 33 55q19 36 32 50q27 29 65 29q18 0 37 -8q47 -25 47 -77l-2 -18q-1 -8 -5 -19q-41 -92 -85 -139q-35 -38 -88 -66t-95 -28zM226 1282
q26 0 47 -15.5t30 -43.5q22 -81 58 -186q4 -11 4 -24q0 -49 -43 -71q-20 -10 -38 -10q-36 0 -56 29q-65 98 -87 219q0 40 18.5 67t48.5 33z" />
    <glyph glyph-name="eacute" unicode="&#xe9;" horiz-adv-x="571" 
d="M278 590q8 0 46 5q36 6 40 42l2 26q0 23 -6 46q-6 19 -12 19t-18 -9q-51 -38 -78 -127q18 -2 26 -2zM266 0q-61 0 -114 34t-80 96q-36 84 -42 232q4 185 83 359q51 111 159 168q44 23 88 23q50 0 91.5 -28.5t62.5 -80.5q27 -67 27 -140q0 -42 -9 -84
q-15 -63 -67.5 -107.5t-118.5 -51.5q-56 -6 -112 -9q-27 0 -27 -25l-1 -30q0 -84 23 -143q12 -35 38 -35q8 0 28 15t32 28q10 12 33 55q19 36 32 50q27 29 65 29q18 0 37 -8q47 -25 47 -77l-2 -18q-1 -8 -5 -19q-41 -92 -85 -139q-35 -38 -88 -66t-95 -28zM349 1282l17 -2
q30 -6 48.5 -33t18.5 -67q-22 -120 -86 -219q-21 -29 -57 -29q-18 0 -38 10q-43 22 -43 71q0 13 4 24q34 100 59 186q8 28 29 43.5t48 15.5z" />
    <glyph glyph-name="ecircumflex" unicode="&#xea;" horiz-adv-x="571" 
d="M278 590q8 0 46 5q36 6 40 42l2 26q0 23 -6 46q-6 19 -12 19t-18 -9q-51 -38 -78 -127q18 -2 26 -2zM266 0q-61 0 -114 34t-80 96q-36 84 -42 232q4 185 83 359q51 111 159 168q44 23 88 23q50 0 91.5 -28.5t62.5 -80.5q27 -67 27 -140q0 -42 -9 -84
q-15 -63 -67.5 -107.5t-118.5 -51.5q-56 -6 -112 -9q-27 0 -27 -25l-1 -30q0 -84 23 -143q12 -35 38 -35q8 0 28 15t32 28q10 12 33 55q19 36 32 50q27 29 65 29q18 0 37 -8q47 -25 47 -77l-2 -18q-1 -8 -5 -19q-41 -92 -85 -139q-35 -38 -88 -66t-95 -28zM436 912
q-27 0 -51 18q-16 11 -38 43q-27 40 -38 53q-9 11 -17 11q-7 0 -16 -10q-26 -32 -58 -78q-23 -37 -61 -37q-20 0 -38 12q-37 23 -37 68q0 6 2 18q5 25 14 40q45 80 90 126q46 48 99 48h3q68 -1 116 -45q31 -28 47 -50t44 -69q12 -20 13 -41q2 -12 2 -18q0 -47 -34 -74
q-20 -15 -42 -15z" />
    <glyph glyph-name="edieresis" unicode="&#xeb;" horiz-adv-x="571" 
d="M278 590q8 0 46 5q36 6 40 42l2 26q0 23 -6 46q-6 19 -12 19t-18 -9q-51 -38 -78 -127q18 -2 26 -2zM266 0q-61 0 -114 34t-80 96q-36 84 -42 232q4 185 83 359q51 111 159 168q44 23 88 23q50 0 91.5 -28.5t62.5 -80.5q27 -67 27 -140q0 -42 -9 -84
q-15 -63 -67.5 -107.5t-118.5 -51.5q-56 -6 -112 -9q-27 0 -27 -25l-1 -30q0 -84 23 -143q12 -35 38 -35q8 0 28 15t32 28q10 12 33 55q19 36 32 50q27 29 65 29q18 0 37 -8q47 -25 47 -77l-2 -18q-1 -8 -5 -19q-41 -92 -85 -139q-35 -38 -88 -66t-95 -28zM195 932h-2
q-38 0 -65.5 26.5t-27.5 63.5q0 38 26 64.5t64 26.5q37 0 65 -27.5t28 -64.5v-2q0 -36 -26 -61t-62 -26zM409 932h-2q-38 0 -65.5 26.5t-27.5 63.5q0 38 26 64.5t64 26.5q37 0 65 -27.5t28 -64.5v-2q0 -36 -26 -61t-62 -26z" />
    <glyph glyph-name="igrave" unicode="&#xec;" horiz-adv-x="283" 
d="M143 0h-4q-32 1 -55 22t-28 55q-2 12 -2 36v531q0 35 17 58.5t49 29.5q5 1 15 1q29 0 53 -18t34 -49q9 -28 9 -79v-454q0 -43 -6 -64q-8 -31 -30.5 -50t-51.5 -19zM85 1171q26 0 47 -15.5t30 -43.5q22 -81 58 -186q4 -11 4 -24q0 -22 -11.5 -41.5t-31.5 -29.5t-38 -10
q-36 0 -56 29q-65 98 -87 219q0 40 18.5 67t48.5 33z" />
    <glyph glyph-name="iacute" unicode="&#xed;" horiz-adv-x="283" 
d="M143 0h-4q-32 1 -55 22t-28 55q-2 12 -2 36v531q0 35 17 58.5t49 29.5q5 1 15 1q29 0 53 -18t34 -49q9 -28 9 -79v-454q0 -43 -6 -64q-8 -31 -30.5 -50t-51.5 -19zM203 1171l17 -2q30 -6 48.5 -33t18.5 -67q-22 -120 -86 -219q-21 -29 -57 -29q-18 0 -38 10t-31.5 29.5
t-11.5 41.5q0 13 4 24q34 100 59 186q8 28 29 43.5t48 15.5z" />
    <glyph glyph-name="icircumflex" unicode="&#xee;" horiz-adv-x="283" 
d="M143 0h-4q-32 1 -55 22t-28 55q-2 12 -2 36v531q0 35 17 58.5t49 29.5q5 1 15 1q29 0 53 -18t34 -49q9 -28 9 -79v-454q0 -43 -6 -64q-8 -31 -30.5 -50t-51.5 -19zM283 823q-27 0 -51 18q-16 11 -38 43q-27 40 -38 53q-9 11 -17 11q-7 0 -16 -10q-26 -32 -58 -78
q-23 -37 -61 -37q-20 0 -38 12q-37 23 -37 68q0 6 2 18q5 25 14 40q45 80 90 126q46 48 99 48h3q68 -1 116 -45q31 -28 47 -50t44 -69q12 -20 13 -41q2 -12 2 -18q0 -47 -34 -74q-19 -15 -42 -15z" />
    <glyph glyph-name="idieresis" unicode="&#xef;" horiz-adv-x="283" 
d="M143 0h-4q-32 1 -55 22t-28 55q-2 12 -2 36v531q0 35 17 58.5t49 29.5q5 1 15 1q29 0 53 -18t34 -49q9 -28 9 -79v-454q0 -43 -6 -64q-8 -31 -30.5 -50t-51.5 -19zM37 821h-2q-38 0 -65.5 26.5t-27.5 63.5q0 38 26 64.5t64 26.5q37 0 65 -27.5t28 -64.5v-2q0 -36 -26 -61
t-62 -26zM251 821h-2q-38 0 -65.5 26.5t-27.5 63.5q0 38 26 64.5t64 26.5q37 0 65 -27.5t28 -64.5v-2q0 -36 -26 -61t-62 -26z" />
    <glyph glyph-name="eth" unicode="&#xf0;" horiz-adv-x="581" 
d="M264 168q8 0 16 6q35 23 48 61q54 137 54 275l-1 26q-3 73 -22 141l-2 6q-4 18 -15 35q-12 14 -19 19q-11 8 -25 8h-2q-59 -5 -74 -64q-24 -114 -24 -253q0 -29 1 -44v-11q3 -51 16 -110q9 -39 29 -81q8 -15 18 -15zM296 912l-12 27q-3 7 -8 17q-5 5 -8 5q-7 0 -23 -11
q-16 -10 -24 -14q-17 -7 -35 -7q-37 0 -64 29q-22 25 -22 56q0 22 12 44q13 24 37 42q7 5 15 13q4 4 4 9q0 7 -14 23q-5 7 -5 8q-5 7 -10 16q-10 19 -10 41q0 36 29 65q26 21 55 21q25 0 49 -15q22 -15 43 -36q10 -10 19 -10q8 0 16 6q20 15 38 22q21 8 39 8q40 0 69 -35
q16 -22 16 -49q0 -34 -27 -64q-11 -11 -23 -20q-1 -1 -5 -3.5t-6 -4.5l-1 -1l-15 -12q-5 -5 -5 -10q0 -9 10 -25q62 -129 89 -261q21 -106 25 -156q5 -59 6 -88q1 -12 1 -36q0 -51 -8 -109q-13 -103 -50 -204q-20 -54 -54 -97q-35 -44 -82 -69q-46 -24 -92 -27h-8
q-50 0 -92 27q-42 26 -71 79q-49 96 -58 204q-2 20 -2 29q-1 5 -1 15l-2 44q-1 17 -1 51q0 149 34 291q8 39 23 68q21 43 68 54q25 4 45 20q44 28 90 30h6z" />
    <glyph glyph-name="ntilde" unicode="&#xf1;" horiz-adv-x="631" 
d="M138 0h-4q-30 2 -52.5 21t-28.5 50q-3 13 -3 39l1 228l-1 119v111q0 145 4 250q2 48 32 74q23 20 55 20q33 0 53 -17q8 -6 13 -15.5t7.5 -15.5t4.5 -6h3q1 0 29 19q52 35 109 35q21 0 40 -4q115 -24 152 -131q26 -76 28 -177l1 -61v-437l-2 -30q-5 -29 -25 -48t-48 -23
l-11 -1q-25 0 -47 14.5t-33 38.5q-10 21 -12 61q-1 17 -1 48q0 15 0.5 45.5t0.5 46.5v297q0 61 -5 105q-4 35 -12 57q-7 20 -22 20q-10 0 -19 -8q-25 -20 -47 -59q-67 -119 -70 -263l-1 -285q0 -33 -6 -55q-9 -28 -31.5 -45.5t-51.5 -17.5zM341 933q-47 3 -94 34l-15 9
q-10 4 -13 4q-7 0 -17 -5q-27 -20 -53 -20h-4q-25 2 -43 21q-22 18 -22 50v6q2 27 19 46q43 44 120 44l21 -1q37 -4 75 -29q18 -9 28 -10q19 0 42 14q14 11 22 16q20 11 41 11h5q17 -1 38 -14q32 -21 32 -59l-1 -4l-1 -11q-7 -33 -32 -51q-68 -51 -138 -51h-10z" />
    <glyph glyph-name="ograve" unicode="&#xf2;" horiz-adv-x="581" 
d="M264 168q8 0 16 6q33 19 48 61q54 145 54 275q0 4 -0.5 13t-0.5 13q-3 73 -22 141q-10 31 -17 41q-23 27 -44 27h-2q-60 -2 -74 -64q-24 -120 -24 -253q0 -7 0.5 -21.5t0.5 -22.5v-11q4 -56 16 -110q14 -54 29 -81q8 -15 18 -15zM265 0h-8q-106 0 -163 106
q-44 81 -58 204q-1 7 -1.5 14.5t-1 16t-0.5 13.5l-2 44q-1 17 -1 51q0 155 34 291q9 41 23 68q22 44 68 54q23 4 45 20q46 29 90 30h7q38 0 74 -16q112 -47 145 -155q29 -97 34 -199q0 -6 0.5 -18t0.5 -18q0 -51 -8 -109q-20 -125 -50 -204q-25 -61 -54 -97q-35 -44 -82 -69
q-43 -24 -92 -27zM232 1282q26 0 47 -15.5t30 -43.5q22 -81 58 -186q4 -11 4 -24q0 -49 -43 -71q-20 -10 -38 -10q-36 0 -56 29q-65 98 -87 219q0 40 18.5 67t48.5 33z" />
    <glyph glyph-name="oacute" unicode="&#xf3;" horiz-adv-x="581" 
d="M264 168q8 0 16 6q33 19 48 61q54 145 54 275q0 4 -0.5 13t-0.5 13q-3 73 -22 141q-10 31 -17 41q-23 27 -44 27h-2q-60 -2 -74 -64q-24 -120 -24 -253q0 -7 0.5 -21.5t0.5 -22.5v-11q4 -56 16 -110q14 -54 29 -81q8 -15 18 -15zM265 0h-8q-106 0 -163 106
q-44 81 -58 204q-1 7 -1.5 14.5t-1 16t-0.5 13.5l-2 44q-1 17 -1 51q0 155 34 291q9 41 23 68q22 44 68 54q23 4 45 20q46 29 90 30h7q38 0 74 -16q112 -47 145 -155q29 -97 34 -199q0 -6 0.5 -18t0.5 -18q0 -51 -8 -109q-20 -125 -50 -204q-25 -61 -54 -97q-35 -44 -82 -69
q-43 -24 -92 -27zM354 1282l17 -2q30 -6 48.5 -33t18.5 -67q-22 -120 -86 -219q-21 -29 -57 -29q-18 0 -38 10q-43 22 -43 71q0 13 4 24q34 100 59 186q8 28 29 43.5t48 15.5z" />
    <glyph glyph-name="ocircumflex" unicode="&#xf4;" horiz-adv-x="581" 
d="M264 168q8 0 16 6q33 19 48 61q54 145 54 275q0 4 -0.5 13t-0.5 13q-3 73 -22 141q-10 31 -17 41q-23 27 -44 27h-2q-60 -2 -74 -64q-24 -120 -24 -253q0 -7 0.5 -21.5t0.5 -22.5v-11q4 -56 16 -110q14 -54 29 -81q8 -15 18 -15zM265 0h-8q-106 0 -163 106
q-44 81 -58 204q-1 7 -1.5 14.5t-1 16t-0.5 13.5l-2 44q-1 17 -1 51q0 155 34 291q9 41 23 68q22 44 68 54q23 4 45 20q46 29 90 30h7q38 0 74 -16q112 -47 145 -155q29 -97 34 -199q0 -6 0.5 -18t0.5 -18q0 -51 -8 -109q-20 -125 -50 -204q-25 -61 -54 -97q-35 -44 -82 -69
q-43 -24 -92 -27zM436 912q-27 0 -51 18q-16 11 -38 43q-27 40 -38 53q-9 11 -17 11q-7 0 -16 -10q-26 -32 -58 -78q-23 -37 -61 -37q-20 0 -38 12q-37 23 -37 68q0 6 2 18q5 25 14 40q45 80 90 126q46 48 99 48h3q68 -1 116 -45q31 -28 47 -50t44 -69q12 -20 13 -41
q2 -12 2 -18q0 -47 -34 -74q-20 -15 -42 -15z" />
    <glyph glyph-name="otilde" unicode="&#xf5;" horiz-adv-x="581" 
d="M264 168q8 0 16 6q33 19 48 61q54 145 54 275q0 4 -0.5 13t-0.5 13q-3 73 -22 141q-10 31 -17 41q-23 27 -44 27h-2q-60 -2 -74 -64q-24 -120 -24 -253q0 -7 0.5 -21.5t0.5 -22.5v-11q4 -56 16 -110q14 -54 29 -81q8 -15 18 -15zM265 0h-8q-106 0 -163 106
q-44 81 -58 204q-1 7 -1.5 14.5t-1 16t-0.5 13.5l-2 44q-1 17 -1 51q0 155 34 291q9 41 23 68q22 44 68 54q23 4 45 20q46 29 90 30h7q38 0 74 -16q112 -47 145 -155q29 -97 34 -199q0 -6 0.5 -18t0.5 -18q0 -51 -8 -109q-20 -125 -50 -204q-25 -61 -54 -97q-35 -44 -82 -69
q-43 -24 -92 -27zM335 933q-47 3 -94 34l-15 9q-10 4 -13 4q-7 0 -17 -5q-27 -20 -53 -20h-4q-25 2 -43 21q-22 18 -22 50v6q2 27 19 46q43 44 120 44l21 -1q37 -4 75 -29q18 -9 28 -10q19 0 42 14q14 11 22 16q20 11 41 11h5q17 -1 38 -14q32 -21 32 -59l-1 -4l-1 -11
q-7 -33 -32 -51q-68 -51 -138 -51h-10z" />
    <glyph glyph-name="odieresis" unicode="&#xf6;" horiz-adv-x="581" 
d="M264 168q8 0 16 6q33 19 48 61q54 145 54 275q0 4 -0.5 13t-0.5 13q-3 73 -22 141q-10 31 -17 41q-23 27 -44 27h-2q-60 -2 -74 -64q-24 -120 -24 -253q0 -7 0.5 -21.5t0.5 -22.5v-11q4 -56 16 -110q14 -54 29 -81q8 -15 18 -15zM265 0h-8q-106 0 -163 106
q-44 81 -58 204q-1 7 -1.5 14.5t-1 16t-0.5 13.5l-2 44q-1 17 -1 51q0 155 34 291q9 41 23 68q22 44 68 54q23 4 45 20q46 29 90 30h7q38 0 74 -16q112 -47 145 -155q29 -97 34 -199q0 -6 0.5 -18t0.5 -18q0 -51 -8 -109q-20 -125 -50 -204q-25 -61 -54 -97q-35 -44 -82 -69
q-43 -24 -92 -27zM192 932h-2q-38 0 -65.5 26.5t-27.5 63.5q0 38 26 64.5t64 26.5q37 0 65 -27.5t28 -64.5v-2q0 -36 -26 -61t-62 -26zM406 932h-2q-38 0 -65.5 26.5t-27.5 63.5q0 38 26 64.5t64 26.5q37 0 65 -27.5t28 -64.5v-2q0 -36 -26 -61t-62 -26z" />
    <glyph glyph-name="divide" unicode="&#xf7;" horiz-adv-x="467" 
d="M164 509l-10 1q-31 3 -64 14q-60 20 -60 80v7l2 10q6 28 27.5 45t52.5 17h10q30 -3 61 -3q54 0 116 8q4 0 11.5 1t13.5 1.5t11 0.5q10 0 15 -1q17 -2 35 -9q52 -23 52 -77v-7q-3 -34 -31 -57q-30 -26 -77 -29q-48 -3 -97 -3q-45 0 -68 1zM235 724h-2q-38 0 -65.5 26.5
t-27.5 63.5q0 38 26 64.5t64 26.5q37 0 65 -27.5t28 -64.5v-2q0 -36 -26 -61t-62 -26zM235 275h-2q-38 0 -65.5 26.5t-27.5 63.5q0 38 26 64.5t64 26.5q37 0 65 -27.5t28 -64.5v-2q0 -36 -26 -61t-62 -26z" />
    <glyph glyph-name="oslash" unicode="&#xf8;" horiz-adv-x="581" 
d="M488 802q17 -27 28 -61q29 -97 34 -199q1 -12 1 -36q0 -51 -8 -109q-13 -103 -50 -204q-20 -54 -54 -97q-35 -44 -82 -69q-46 -24 -92 -27h-8q-48 0 -91 26q-20 -26 -51 -26q-6 0 -16 2q-49 13 -49 62l1 9q8 38 22 76q0 2 1 2q-30 73 -38 159q-2 20 -2 29q-1 5 -1 15
l-2 44q-1 17 -1 51q0 149 34 291q8 39 23 68q21 43 68 54q25 4 45 20q44 28 90 30h7q38 0 74 -16q18 -8 26 -12q21 28 56 28l15 -1q24 -5 37 -19q14 -16 14 -33q0 -15 -11 -29q-9 -12 -20 -28zM199 482q57 135 115 252l3 6q-8 5 -19 5h-2q-59 -5 -74 -64q-20 -94 -23 -199z
M379 567q-74 -168 -137 -337l-9 -24q3 -8 11 -24q8 -15 18 -15l2 1q8 0 16 6q35 23 48 61q54 137 54 275l-1 26q0 9 -2 31z" />
    <glyph glyph-name="ugrave" unicode="&#xf9;" horiz-adv-x="628" 
d="M485 0q-44 0 -74 47l-11 17q-10 -20 -24 -31q-45 -33 -106 -33q-66 0 -121.5 38t-75.5 108q-23 83 -23 165v500q0 15 1 22q4 31 26.5 53t52.5 26h9q55 0 78 -59q10 -27 10 -59v-140q0 -22 0.5 -63.5t0.5 -64.5v-36q-1 -44 -1 -129q0 -59 5 -102q4 -37 9 -52q9 -28 24 -28
q11 0 28 15q21 20 39 52q65 116 68 264q2 190 2 287q2 35 7 51q9 29 31.5 46.5t51.5 17.5h4q31 -2 52.5 -21t26.5 -50q3 -16 3 -48v-611q0 -53 -1 -81q0 -11 -4 -29q-14 -61 -72 -71zM251 1282q26 0 47 -15.5t30 -43.5q22 -81 58 -186q4 -11 4 -24q0 -49 -43 -71
q-20 -10 -38 -10q-36 0 -56 29q-65 98 -87 219q0 40 18.5 67t48.5 33z" />
    <glyph glyph-name="uacute" unicode="&#xfa;" horiz-adv-x="628" 
d="M485 0q-44 0 -74 47l-11 17q-10 -20 -24 -31q-45 -33 -106 -33q-66 0 -121.5 38t-75.5 108q-23 83 -23 165v500q0 15 1 22q4 31 26.5 53t52.5 26h9q55 0 78 -59q10 -27 10 -59v-140q0 -22 0.5 -63.5t0.5 -64.5v-36q-1 -44 -1 -129q0 -59 5 -102q4 -37 9 -52q9 -28 24 -28
q11 0 28 15q21 20 39 52q65 116 68 264q2 190 2 287q2 35 7 51q9 29 31.5 46.5t51.5 17.5h4q31 -2 52.5 -21t26.5 -50q3 -16 3 -48v-611q0 -53 -1 -81q0 -11 -4 -29q-14 -61 -72 -71zM375 1282l17 -2q30 -6 48.5 -33t18.5 -67q-22 -120 -86 -219q-21 -29 -57 -29
q-18 0 -38 10q-43 22 -43 71q0 13 4 24q34 100 59 186q8 28 29 43.5t48 15.5z" />
    <glyph glyph-name="ucircumflex" unicode="&#xfb;" horiz-adv-x="628" 
d="M485 0q-44 0 -74 47l-11 17q-10 -20 -24 -31q-45 -33 -106 -33q-66 0 -121.5 38t-75.5 108q-23 83 -23 165v500q0 15 1 22q4 31 26.5 53t52.5 26h9q55 0 78 -59q10 -27 10 -59v-140q0 -22 0.5 -63.5t0.5 -64.5v-36q-1 -44 -1 -129q0 -59 5 -102q4 -37 9 -52q9 -28 24 -28
q11 0 28 15q21 20 39 52q65 116 68 264q2 190 2 287q2 35 7 51q9 29 31.5 46.5t51.5 17.5h4q31 -2 52.5 -21t26.5 -50q3 -16 3 -48v-611q0 -53 -1 -81q0 -11 -4 -29q-14 -61 -72 -71zM458 932q-27 0 -51 18q-16 11 -38 43q-27 40 -38 53q-9 11 -17 11q-7 0 -16 -10
q-26 -32 -58 -78q-23 -37 -61 -37q-20 0 -38 12q-37 23 -37 68q0 6 2 18q5 25 14 40q45 80 90 126q46 48 99 48h3q68 -1 116 -45q31 -28 47 -50t44 -69q12 -20 13 -41q2 -12 2 -18q0 -47 -34 -74q-20 -15 -42 -15z" />
    <glyph glyph-name="udieresis" unicode="&#xfc;" horiz-adv-x="628" 
d="M485 0q-44 0 -74 47l-11 17q-10 -20 -24 -31q-45 -33 -106 -33q-66 0 -121.5 38t-75.5 108q-23 83 -23 165v500q0 15 1 22q4 31 26.5 53t52.5 26h9q55 0 78 -59q10 -27 10 -59v-140q0 -22 0.5 -63.5t0.5 -64.5v-36q-1 -44 -1 -129q0 -59 5 -102q4 -37 9 -52q9 -28 24 -28
q11 0 28 15q21 20 39 52q65 116 68 264q2 190 2 287q2 35 7 51q9 29 31.5 46.5t51.5 17.5h4q31 -2 52.5 -21t26.5 -50q3 -16 3 -48v-611q0 -53 -1 -81q0 -11 -4 -29q-14 -61 -72 -71zM215 932h-2q-38 0 -65.5 26.5t-27.5 63.5q0 38 26 64.5t64 26.5q37 0 65 -27.5t28 -64.5
v-2q0 -36 -26 -61t-62 -26zM429 932h-2q-38 0 -65.5 26.5t-27.5 63.5q0 38 26 64.5t64 26.5q37 0 65 -27.5t28 -64.5v-2q0 -36 -26 -61t-62 -26z" />
    <glyph glyph-name="yacute" unicode="&#xfd;" horiz-adv-x="647" 
d="M380 1282l17 -2q30 -6 48.5 -33t18.5 -67q-22 -120 -86 -219q-21 -29 -57 -29q-18 0 -38 10q-43 22 -43 71q0 13 4 24q34 100 59 186q8 28 29 43.5t48 15.5zM270 0q-62 0 -117 37q-58 37 -80 109q-23 83 -23 165v500q0 15 1 22q5 33 26 54q22 21 53 25h9q54 0 78 -59
q10 -27 10 -59v-203q1 -20 1 -65v-36q-1 -43 -1 -129q0 -45 5 -102v-3q3 -27 9 -49q7 -27 23 -27t41 5q20 4 54 32q59 50 59 126v3q2 120 2 177v252l2 48q5 85 75 89h14q33 0 56 -23q22 -22 28 -60q2 -14 2 -24v-342l-1 -143q-5 -206 -26 -387q-12 -132 -109 -221l-17 -16
q-75 -78 -173 -78q-55 0 -105 25q-60 29 -85 89q-11 22 -11 45q0 14 4 26q14 56 68 68q7 1 19 1q43 0 68 -37q1 -1 2.5 -3.5t2.5 -3.5q5 -9 14 -18q8 -8 22 -10h1q32 0 50 26q43 40 60 82t17 98v19l-56 -17q-29 -8 -72 -8z" />
    <glyph glyph-name="thorn" unicode="&#xfe;" horiz-adv-x="622" 
d="M240 186l9 1q1 1 4.5 2t5.5 1q13 4 24 9q47 25 73 73q33 60 46 115t13 115q0 45 -8 96q-8 42 -23 99l-1 4q-7 16 -13 23q-7 7 -19 7l-18 -2q-18 -4 -27 -7q-32 -14 -54 -40q-22 -28 -22 -62v-421q1 -13 10 -13zM228 887q12 2 16 5q56 21 113 21h3q107 0 161 -91
q30 -48 44 -110q15 -58 21 -105t6 -96q0 -81 -16 -161q-24 -121 -101 -221q-83 -103 -213 -126q-22 -3 -26 -7q-6 -4 -6 -21v-238q0 -22 -5 -49q-9 -32 -32 -50q-22 -19 -52 -19q-63 4 -83 71q-4 21 -6 45q-2 74 -2 113v88q1 29 1 82v599l2 191v52l-1 242q0 23 4 40
q8 33 31 52q23 20 52 20h2q60 0 84 -69q5 -25 5 -43z" />
    <glyph glyph-name="ydieresis" unicode="&#xff;" horiz-adv-x="647" 
d="M218 932h-2q-38 0 -65.5 26.5t-27.5 63.5q0 38 26 64.5t64 26.5q37 0 65 -27.5t28 -64.5v-2q0 -36 -26 -61t-62 -26zM432 932h-2q-38 0 -65.5 26.5t-27.5 63.5q0 38 26 64.5t64 26.5q37 0 65 -27.5t28 -64.5v-2q0 -36 -26 -61t-62 -26zM270 0q-62 0 -117 37
q-58 37 -80 109q-23 83 -23 165v500q0 15 1 22q5 33 26 54q22 21 53 25h9q54 0 78 -59q10 -27 10 -59v-203q1 -20 1 -65v-36q-1 -43 -1 -129q0 -45 5 -102v-3q3 -27 9 -49q7 -27 23 -27t41 5q20 4 54 32q59 50 59 126v3q2 120 2 177v252l2 48q5 85 75 89h14q33 0 56 -23
q22 -22 28 -60q2 -14 2 -24v-342l-1 -143q-5 -206 -26 -387q-12 -132 -109 -221l-17 -16q-75 -78 -173 -78q-55 0 -105 25q-60 29 -85 89q-11 22 -11 45q0 14 4 26q14 56 68 68q7 1 19 1q43 0 68 -37q1 -1 2.5 -3.5t2.5 -3.5q5 -9 14 -18q8 -8 22 -10h1q32 0 50 26
q43 40 60 82t17 98v19l-56 -17q-29 -8 -72 -8z" />
    <glyph glyph-name="dotlessi" unicode="&#x131;" horiz-adv-x="250" 
d="M138 224q-32 0 -57 25q-34 33 -39 86q-7 45 -8 81q-4 68 -4 151q0 120 11 311q4 35 13 56q22 49 72 49q10 0 20 -3q27 -6 43 -26.5t16 -48.5v-5q-2 -40 -2 -61q0 -73 9 -183l-1 -207q0 -19 3.5 -55t4.5 -48l1 -27q0 -18 -2 -27q-6 -49 -55 -64q-11 -4 -25 -4z" />
    <glyph glyph-name="Ydieresis" unicode="&#x178;" horiz-adv-x="637" 
d="M312 0q-49 0 -75 45q-15 26 -15 65l-2 349q0 20 -5 29q-69 170 -113 378q-32 154 -63 222q-9 19 -9 40q0 18 9 38q22 48 76 48q32 0 56 -20q29 -22 45 -69q53 -168 59 -192q23 -93 43 -150q11 14 20 48q56 193 66 219q9 26 25 80q7 27 17 45q28 42 75 42q10 0 22 -3
q27 -7 45 -29t19 -52v-6q0 -24 -11 -57q-19 -54 -83.5 -248t-107.5 -303q-6 -18 -6 -43v-12l-1 -45q0 -45 1 -133t1 -132l-1 -43q0 -26 -2 -39q-5 -28 -23.5 -47t-44.5 -23zM215 1234h-2q-38 0 -65.5 26.5t-27.5 63.5q0 38 26 64.5t64 26.5q37 0 65 -27.5t28 -64.5v-2
q0 -36 -26 -61t-62 -26zM429 1234h-2q-38 0 -65.5 26.5t-27.5 63.5q0 38 26 64.5t64 26.5q37 0 65 -27.5t28 -64.5v-2q0 -36 -26 -61t-62 -26z" />
    <glyph glyph-name="circumflex" unicode="&#x2c6;" horiz-adv-x="490" 
d="M384 902q-27 0 -51 18q-16 11 -38 43q-27 40 -38 53q-9 11 -17 11q-7 0 -16 -10q-26 -32 -58 -78q-23 -37 -61 -37q-20 0 -38 12q-37 23 -37 68q0 6 2 18q5 25 14 40q45 80 90 126q46 48 99 48h3q68 -1 116 -45q31 -28 47 -50t44 -69q12 -20 13 -41q2 -12 2 -18
q0 -47 -34 -74q-20 -15 -42 -15z" />
    <glyph glyph-name="caron" unicode="&#x2c7;" horiz-adv-x="490" 
d="M106 1213q25 0 51 -17q17 -12 38 -43q21 -32 38 -53q8 -12 16 -12t16 11q29 35 58 78q25 37 62 37q20 0 38 -12q37 -23 37 -68q0 -6 -2 -18q-5 -23 -15 -40q-45 -80 -90 -126q-46 -48 -98 -48h-3q-67 1 -117 45q-30 28 -46 50t-44 69q-11 19 -14 41q-1 6 -1 18
q0 47 33 74q18 14 43 14z" />
    <glyph glyph-name="uni02C9" unicode="&#x2c9;" horiz-adv-x="462" 
d="M183 958h-12q-35 0 -64 7q-49 13 -70 57q-7 14 -7 30q0 30 22 52.5t52 22.5q6 0 16 -2q21 -5 51 -5q25 0 118 14q28 5 50 5h14q61 -6 76 -57q3 -12 3 -23q0 -35 -32 -61q-26 -20 -62 -25q-87 -14 -155 -15z" />
    <glyph glyph-name="breve" unicode="&#x2d8;" horiz-adv-x="546" 
d="M241 879q-96 5 -153 76q-47 60 -57 152l-1 12q0 36 30 68q28 28 60 28q11 0 28 -5q54 -20 54 -74v-2q0 -35 11 -54q11 -17 25 -17q8 0 16 4q27 13 45 39q9 12 12.5 17t8 11.5t11.5 17.5q16 22 25 32q29 29 67 29q27 0 50 -15q43 -28 43 -76q0 -20 -10 -37
q-46 -81 -71 -108q-22 -25 -56 -51q-62 -46 -138 -47z" />
    <glyph glyph-name="dotaccent" unicode="&#x2d9;" horiz-adv-x="235" 
d="M121 960h-2q-37 0 -63 25.5t-26 61.5q0 37 25 62t61 25t62.5 -26.5t26.5 -61.5v-2q0 -34 -24.5 -58.5t-59.5 -25.5z" />
    <glyph glyph-name="ring" unicode="&#x2da;" horiz-adv-x="379" 
d="M182 938q37 41 37 61q0 25 -42 47q-16 -30 -16 -53q0 -28 21 -55zM174 766q-43 0 -78 25.5t-51 70.5q-15 45 -15 90q0 50 19 116q7 28 23 57q6 12 13 19q32 36 92 65q15 6 28 6q35 0 65 -37q56 -70 73 -151q6 -21 6 -44q-3 -81 -49 -148q-23 -32 -52 -48q-36 -21 -74 -21
z" />
    <glyph glyph-name="ogonek" unicode="&#x2db;" horiz-adv-x="436" 
d="M246 -291q-77 0 -136 49t-73 125q-1 3 -7 61q8 172 113 287q41 45 98 60q13 4 31 4q20 0 40 -9q46 -21 48 -72v-3q0 -55 -42 -68q-23 -7 -39.5 -19.5t-27 -33t-16 -34.5t-12.5 -41t-7 -58q0 -17 1 -26q4 -35 26 -35q7 0 26 7q18 7 23 8q12 4 27 4q43 0 69 -35
q18 -24 18 -53q0 -25 -14 -48q-39 -62 -125 -69z" />
    <glyph glyph-name="tilde" unicode="&#x2dc;" horiz-adv-x="546" 
d="M325 927q-33 0 -58 8q-41 12 -87 41q-13 8 -22 8q-8 0 -15 -3q-15 -7 -33 -7q-23 0 -43 13t-29 33q-8 19 -8 38q0 52 40 81q33 24 83 24q45 -1 88 -23l29 -15q34 -17 45 -17q13 0 45 29q34 29 69 29q28 0 52 -18q35 -27 35 -70q0 -28 -14 -53q-24 -45 -72.5 -71.5
t-104.5 -26.5z" />
    <glyph glyph-name="hungarumlaut" unicode="&#x2dd;" horiz-adv-x="458" 
d="M318 823h-8q-32 0 -56 21t-31 57l-3 27q3 38 24 130q12 51 25 89q10 32 31 49.5t47 17.5q11 0 23 -3q58 -17 58 -80q0 -13 -3 -28q-15 -67 -25 -146l-3 -44q-2 -38 -23.5 -62.5t-55.5 -27.5zM121 822q-26 0 -48 14.5t-32 38.5q-11 23 -11 54q0 17 2 25q22 118 44 186
q7 23 16 37q23 37 67 37q11 0 23 -3q55 -18 57 -81q0 -2 -1 -9t-2 -12q-26 -119 -31 -209q-2 -30 -23 -51.5t-51 -25.5z" />
    <glyph glyph-name="endash" unicode="&#x2013;" horiz-adv-x="569" 
d="M232 511q-21 1 -68 5q-6 1 -29 3.5t-35 4.5q-32 8 -51 29.5t-19 51.5v8q4 32 25.5 52.5t54.5 20.5h4l20 -1q16 -1 48 -1q89 0 240 17l21 1q14 0 31 -5q30 -8 47.5 -31t17.5 -51v-2q-2 -28 -21 -52q-35 -42 -95 -45q-69 -6 -138 -6q-35 0 -53 1z" />
    <glyph glyph-name="emdash" unicode="&#x2014;" horiz-adv-x="659" 
d="M141 500q-33 0 -57 10q-25 10 -39.5 31t-14.5 45l1 10q3 28 23 49t48 22q43 3 139 15.5t148 14.5l45 1q51 0 91 -4q37 -3 67 -24q37 -27 37 -70q0 -54 -51 -78q-27 -12 -63 -12h-179q-94 0 -153 -7q-21 -3 -42 -3z" />
    <glyph glyph-name="quoteleft" unicode="&#x2018;" horiz-adv-x="239" 
d="M127 1215q18 0 33 -9q25 -16 25 -43q0 -9 -3 -18q-4 -7 -4 -14t9 -21q22 -28 22 -62q0 -19 -7 -37q-16 -48 -82 -62l-12 -1q-35 0 -62 38q-16 25 -16 54q0 12 3 26v5q0 53 26 96q14 24 32 37q17 11 36 11z" />
    <glyph glyph-name="quoteright" unicode="&#x2019;" horiz-adv-x="239" 
d="M111 948q-18 0 -32 10q-26 16 -26 43q0 6 4 18q4 10 4 13q0 8 -9 22q-22 28 -22 61q0 19 6 37q18 50 83 62l12 1q35 0 61 -38q17 -23 17 -53q0 -14 -3 -27v-4q0 -52 -26 -97q-14 -24 -32 -36t-37 -12z" />
    <glyph glyph-name="quotesinglbase" unicode="&#x201a;" horiz-adv-x="239" 
d="M111 -90q-18 0 -32 10q-26 16 -26 43q0 6 4 18q4 10 4 13q0 8 -9 22q-22 28 -22 61q0 19 6 37q18 50 83 62l12 1q35 0 61 -38q17 -23 17 -53q0 -14 -3 -27v-4q0 -52 -26 -97q-14 -24 -32 -36t-37 -12z" />
    <glyph glyph-name="quotedblleft" unicode="&#x201c;" horiz-adv-x="434" 
d="M127 1215q18 0 33 -9q25 -16 25 -43q0 -9 -3 -18q-4 -7 -4 -14t9 -21q22 -28 22 -62q0 -19 -7 -37q-16 -48 -82 -62l-12 -1q-35 0 -62 38q-16 25 -16 54q0 12 3 26v5q0 53 26 96q14 24 32 37q17 11 36 11zM322 1215q18 0 33 -9q25 -16 25 -43q0 -9 -3 -18q-4 -7 -4 -14
t9 -21q22 -28 22 -62q0 -19 -7 -37q-16 -48 -82 -62l-12 -1q-35 0 -62 38q-16 25 -16 54q0 12 3 26v5q0 53 26 96q14 24 32 37q17 11 36 11z" />
    <glyph glyph-name="quotedblright" unicode="&#x201d;" horiz-adv-x="434" 
d="M306 948q-18 0 -32 10q-26 16 -26 43q0 6 4 18q4 10 4 13q0 8 -9 22q-22 28 -22 61q0 19 6 37q18 50 83 62l12 1q35 0 61 -38q17 -23 17 -53q0 -14 -3 -27v-4q0 -52 -26 -97q-14 -24 -32 -36t-37 -12zM111 948q-18 0 -32 10q-26 16 -26 43q0 6 4 18q4 10 4 13q0 8 -9 22
q-22 28 -22 61q0 19 6 37q18 50 83 62l12 1q35 0 61 -38q17 -23 17 -53q0 -14 -3 -27v-4q0 -52 -26 -97q-14 -24 -32 -36t-37 -12z" />
    <glyph glyph-name="quotedblbase" unicode="&#x201e;" horiz-adv-x="434" 
d="M306 -88q-18 0 -32 10q-26 16 -26 43q0 6 4 18q4 10 4 13q0 8 -9 22q-22 28 -22 61q0 19 6 37q18 50 83 62l12 1q35 0 61 -38q17 -23 17 -53q0 -14 -3 -27v-4q0 -52 -26 -97q-14 -24 -32 -36t-37 -12zM111 -88q-18 0 -32 10q-26 16 -26 43q0 6 4 18q4 10 4 13q0 8 -9 22
q-22 28 -22 61q0 19 6 37q18 50 83 62l12 1q35 0 61 -38q17 -23 17 -53q0 -14 -3 -27v-4q0 -52 -26 -97q-14 -24 -32 -36t-37 -12z" />
    <glyph glyph-name="dagger" unicode="&#x2020;" horiz-adv-x="561" 
d="M296 -4q-16 0 -33 6q-29 10 -47 44q-15 28 -20 79q-9 104 -9 278v362q0 16 1 24q0 16 -18 16h-41q-26 2 -36 4q-29 7 -46 25.5t-17 41.5v9q4 27 25 44t54 18h44q31 1 36 6t7 32l6 135q2 32 6 42q11 24 31 38.5t44 14.5l10 -1q28 -4 45.5 -23.5t18.5 -48.5q1 -17 1.5 -36
t1 -42t0.5 -35v-3q0 -4 -1 -14t-1 -14q0 -15 8 -21q5 -4 14 -4q6 0 19.5 3t19.5 3q22 2 31 2l13 -1q30 -4 49 -24t19 -45q0 -21 -14 -41q-26 -34 -72 -43q-21 -4 -59 -8q-20 -3 -23.5 -7t-3.5 -23q-5 -232 -5 -279l1 -93q5 -207 11 -272q1 -11 4.5 -35t4.5 -38v-1
q0 -32 -23.5 -53.5t-55.5 -21.5z" />
    <glyph glyph-name="daggerdbl" unicode="&#x2021;" horiz-adv-x="560" 
d="M295 0q-43 0 -68 33q-25 32 -30 89q-8 96 -9 144q0 19 -3 23.5t-18 4.5l-41 -1q-11 0 -29 2q-29 4 -47.5 23t-18.5 43v4q1 25 19 43t47 23q10 1 29 2.5t29 2.5q21 3 25 6.5t4 22.5l3 241q0 51 1 77v3q0 21 -21 21l-23 -1q-28 0 -60 8q-25 7 -39.5 25t-14.5 40v4
q2 22 17.5 40t39.5 23q4 1 9.5 1.5t12.5 1t11 0.5q63 2 69 6q7 5 7 34q0 15 1 27q2 21 3 59.5t2 51.5q2 26 9 42q21 46 71 46l14 -1q26 -4 43 -22t18 -45q0 -3 3 -120q0 -23 1 -31t6 -13t16 -5t34 3l31 2l17 -1q30 -6 47.5 -25t17.5 -44q0 -26 -18 -45q-27 -33 -81 -41
q-23 -5 -51 -7q-21 -1 -21 -21l-5 -314q0 -20 17 -20l50 4q17 0 37 -5q58 -16 63 -67v-4q0 -24 -14.5 -43t-40.5 -28q-19 -6 -84 -11q-24 -1 -24 -21v-3q4 -130 14 -184q3 -24 3 -27q0 -54 -54 -72q-12 -4 -26 -4z" />
    <glyph glyph-name="bullet" unicode="&#x2022;" horiz-adv-x="323" 
d="M146 450q-38 0 -67.5 22t-39.5 60q-9 32 -9 61q0 69 40 132q24 39 70 39l17 -2l12 1q42 0 77 -42q47 -56 47 -107l-1 -13q-6 -60 -42 -101q-28 -33 -64 -44q-21 -6 -40 -6z" />
    <glyph glyph-name="ellipsis" unicode="&#x2026;" horiz-adv-x="672" 
d="M125 0h-2q-38 0 -65.5 26.5t-27.5 63.5q0 38 26 64.5t64 26.5q37 0 65 -27.5t28 -64.5v-2q0 -36 -26 -61t-62 -26zM339 0h-2q-38 0 -65.5 26.5t-27.5 63.5q0 38 26 64.5t64 26.5q37 0 65 -27.5t28 -64.5v-2q0 -36 -26 -61t-62 -26zM554 0h-2q-38 0 -65.5 26.5t-27.5 63.5
q0 38 26 64.5t64 26.5q37 0 65 -27.5t28 -64.5v-2q0 -36 -26 -61t-62 -26z" />
    <glyph glyph-name="guilsinglleft" unicode="&#x2039;" horiz-adv-x="392" 
d="M282 233q-27 0 -47 15q-19 12 -27 28q-23 40 -72.5 111t-58.5 84q-33 48 -42 93q-1 4 -2 11.5t-2 12t-1 6.5q1 53 24 103q36 83 123 218q13 19 30 32q22 14 45 14q26 0 46 -15q28 -22 28 -55q0 -15 -8 -31l-36 -69q-40 -73 -73 -156q-7 -15 -7 -31q0 -20 13 -39l109 -158
q10 -15 26 -47q12 -23 12 -49v-8q-4 -31 -27 -50.5t-53 -19.5z" />
    <glyph glyph-name="guilsinglright" unicode="&#x203a;" horiz-adv-x="392" 
d="M110 233q-30 0 -53 19.5t-27 50.5v8q0 27 12 49q13 26 27 47l108 158q14 20 14 39q0 12 -7 31q-29 72 -73 156q-4 8 -17.5 32t-19.5 37q-7 14 -7 31q0 33 27 55q21 15 46 15q23 0 45 -14q17 -13 30 -32q87 -134 124 -218q22 -52 23 -103l-2 -12q-1 -11 -3 -18
q-9 -45 -42 -93q-9 -14 -58.5 -84.5t-72.5 -110.5q-8 -16 -27 -28q-19 -15 -47 -15z" />
    <glyph glyph-name="fraction" unicode="&#x2044;" horiz-adv-x="655" 
d="M116 0q-10 0 -21 3q-30 6 -47.5 28t-17.5 54l1 12q6 38 34 115q153 441 316 765q36 71 104 189q28 48 82 48l19 -2q30 -4 49.5 -23.5t19.5 -44.5q0 -21 -15 -39q-20 -22 -49 -81q-9 -19 -40 -87t-42 -92.5t-38.5 -85.5t-41 -93t-37 -86.5t-39 -93.5t-34 -87t-34.5 -93
q-54 -146 -76 -221q-3 -13 -10 -29q-26 -56 -83 -56z" />
    <glyph glyph-name="fraction" unicode="&#x2215;" horiz-adv-x="655" 
d="M116 0q-10 0 -21 3q-30 6 -47.5 28t-17.5 54l1 12q6 38 34 115q153 441 316 765q36 71 104 189q28 48 82 48l19 -2q30 -4 49.5 -23.5t19.5 -44.5q0 -21 -15 -39q-20 -22 -49 -81q-9 -19 -40 -87t-42 -92.5t-38.5 -85.5t-41 -93t-37 -86.5t-39 -93.5t-34 -87t-34.5 -93
q-54 -146 -76 -221q-3 -13 -10 -29q-26 -56 -83 -56z" />
    <glyph glyph-name="franc" unicode="&#x20a3;" horiz-adv-x="642" 
d="M300 188l2 -24q2 -19 2 -57v-12q-8 -89 -84 -95h-2q-33 0 -58 23q-23 24 -27 65l-6 89l-30 6q-67 22 -67 82l1 11q15 72 82 72h7l-1 62q0 111 7 233q1 44 4.5 151t5.5 170v25q0 55 -3 110v5q0 93 94 100q79 4 247 10l21 1q19 0 46 -5q71 -24 71 -88v-2q0 -32 -21 -56
t-55 -27q-56 -6 -109 -6q-16 0 -44 -2l-8 1q-43 0 -54 -11t-11 -56v-8q-6 -222 -6 -228v-13q0 -14 2 -17q3 -4 11 -4l22 2q7 1 21.5 2.5t21.5 2.5l42 4l14 1q80 0 93 -77l1 -11q0 -34 -24 -58q-22 -25 -63 -33q-35 -6 -69 -9q-10 -1 -27 -3.5t-25 -3.5q-21 -3 -25 -8
q-5 -5 -5 -28l-1 -55v-47q22 5 42 5q17 0 35 -6q31 -11 43 -32q15 -23 15 -49q0 -32 -24 -60q-33 -31 -73 -37q-19 -4 -31 -5z" />
    <glyph glyph-name="lira" unicode="&#x20a4;" horiz-adv-x="603" 
d="M207 0q-40 0 -68 27t-30 70v12q0 32 19 104q5 16 15.5 49t16.5 50q2 8 2 11q0 11 -17 14q-27 5 -51 21q-35 24 -35 62q0 11 5 26q18 50 72 50l5 -1q4 0 11 -1.5t10 -1.5q6 0 9 2v4q0 13 -16 16q-28 2 -40 4q-26 5 -43.5 22.5t-20.5 40.5l-1 12q0 47 41 65q16 8 16 19
q0 4 -4 20q-25 86 -25 167q0 79 24 157q25 86 80 136q63 58 133 58q32 0 69 -14q109 -43 120 -172l1 -28l-1 -28q-1 -28 -19 -47t-45 -24h-10q-52 0 -71 52q-2 5 -7 32l-2 26q-6 28 -21 32l-7 1q-10 0 -28 -18q-20 -23 -28 -56q-16 -52 -16 -107q0 -80 32 -168q5 -15 23 -15
h6q21 3 40 3q35 0 62 -12q51 -23 51 -75v-4q-4 -53 -53 -74q-11 -5 -28 -5l-23 1q-9 0 -9 -8q0 -12 15 -12q18 0 27 -1q28 -5 47.5 -23t23.5 -43l1 -12q0 -46 -44 -71q-27 -16 -49 -16h-2q-26 0 -34 -29q-2 -9 -22 -66q28 4 60 4q52 0 93 -11q57 -14 94 -34q30 -16 49 -39
q18 -24 18 -52t-17 -51q-25 -33 -66 -33q-17 0 -34 7l-26 14q-32 17 -73 25q-15 3 -29 3q-40 0 -77 -26q-37 -28 -68 -36q-18 -5 -31 -5z" />
    <glyph glyph-name="peseta" unicode="&#x20a7;" horiz-adv-x="1120" 
d="M464 687q41 1 48 7t8 41l1 19q0 14 -5 26zM298 761q25 36 35.5 53t22.5 50t12 65v13q-30 -30 -50 -81t-20 -92v-8zM705 203q7 0 14 5q26 17 50 17q29 0 60 -21q0 39 -22 120q-46 147 -52 177q-5 22 -9.5 28.5t-15.5 6.5l-23 -3q-20 -3 -20 -23q0 -14 -3.5 -80t-3.5 -102
q0 -32 1 -49q1 -26 8 -56q4 -20 16 -20zM176 -12q-53 0 -80 50q-12 28 -12 60q-2 72 -12 203t-12 167q-10 200 -10 360q0 153 7 289q1 40 17 62.5t50 32.5q12 4 26 4q32 0 54 -22t22 -54q0 -10 -3 -21q-7 -35 -7 -44q0 -5 2 -19h2q10 0 22 15q26 25 45 35q43 25 86 25
q77 0 127 -68q36 -49 44 -114q1 -4 1 -12t1 -14t4 -11h3q5 0 12 5t9 6q19 10 38 10q23 0 44 -15q32 -24 32 -58q0 -5 -2 -17q-4 -17 -4 -39q0 -12 1.5 -34.5t1.5 -33.5q0 -25 18 -25l10 2q7 1 23 1h3q18 0 24 20q17 43 44 72q44 47 102 47q38 0 75 -22q44 -28 73 -76
q13 -19 13 -42q0 -30 -22 -54q-23 -23 -55 -23q-21 0 -40 10q-3 2 -8.5 6.5t-10.5 7.5t-10 4q-9 -15 -9 -40q0 -7 1.5 -21.5t1.5 -17.5q7 -56 37 -149q39 -125 47 -175q4 -24 4 -54q0 -53 -19 -101q-22 -50 -60 -77t-85 -27q-39 0 -76 17q-16 7 -25 7t-17 -4
q-23 -10 -46 -10q-46 0 -90 42q-63 60 -76 160q-8 49 -8 110q0 41 4 125l3 55q0 18 -19 18h-3q-16 -1 -49 -1q-50 2 -74 25q-6 6 -14 6q-6 0 -15 -7q-23 -21 -43 -26q-20 -4 -26 -16t-6 -35v-35q0 -37 -1 -113t-1 -114l2 -109q0 -23 -2 -34q-5 -29 -25 -49.5t-48 -24.5z" />
    <glyph glyph-name="Euro" unicode="&#x20ac;" horiz-adv-x="727" 
d="M491 1q-98 5 -177 62.5t-115 151.5q-2 6 -7 24q-4 17 -20 19q-6 0 -9 -1q-25 -6 -40 -7l-14 -1q-26 2 -46.5 16.5t-27.5 38.5q-5 12 -5 30q2 41 41 68q16 10 72 24q15 3 16 10l-1 3q-1 8 -11 10l-8 -1h-11q-22 2 -32 5q-27 7 -43.5 28.5t-17.5 48.5v7q3 55 56 72
q12 5 23 5q45 5 51 11q3 4 8 39l2 12q29 162 71 277q47 122 127 204q38 40 83 52q19 6 47 6q51 -2 91 -35t46 -81l1 -19q-2 -40 -37 -64q-22 -15 -48 -15q-22 2 -38 14q-8 7 -18 9q-11 0 -22 -18q-46 -71 -83 -196l-30 -129l-3 -17q0 -11 11 -11l15 1q11 1 33 1q18 -1 38 -6
q31 -9 49.5 -29.5t19.5 -48.5v-11q-2 -56 -61 -80q-12 -6 -27 -8t-34 -3t-29 -2h-6q-12 0 -18 -6q8 -3 16 -3h30q44 -2 72 -24.5t30 -57.5v-9q-2 -32 -25.5 -56.5t-63.5 -32.5q-23 -2 -31 -7q16 -38 47 -60t69 -24h14q11 1 32 16q31 25 64 25h4q29 0 55 -24q31 -25 31 -66
v-4q-2 -32 -20 -57q-35 -58 -116 -71q-32 -5 -58 -5h-12z" />
    <glyph glyph-name="numero" unicode="&#x2116;" horiz-adv-x="1026" 
d="M717 303q-25 0 -44.5 15t-25.5 40q-4 12 -4 27q0 56 49 75q24 8 37 8q5 0 13 -2q19 -4 42 -4q40 0 75 17q15 7 31 7q28 0 50 -21q27 -23 27 -56q0 -29 -22 -54q-31 -36 -92 -45q-20 -3 -62 -5q-33 3 -34 3q-11 0 -23 -3zM801 708q22 26 22 48q0 19 -18 45
q-22 -19 -22 -39q0 -7 18 -54zM808 533q-51 0 -95 31q-61 44 -73 137q-3 23 -5 72q5 90 25 161q7 21 15 37q23 40 65 40q31 0 54 -24q12 -13 23 -13q7 0 16 4q15 6 30 6q28 0 51 -16t31 -42q31 -90 31 -168q0 -58 -17 -110q-18 -54 -59.5 -84.5t-91.5 -30.5zM150 -1
q-53 0 -79 48q-10 21 -14 58q-7 95 -7 163q1 289 14 608q4 106 4 159l-1 73q0 23 5 39q9 31 32.5 48t51.5 17q38 0 66 -29q24 -26 36 -67q22 -74 31 -112q90 -355 97 -379q10 -34 19 -45l5 39q5 148 17 444q2 56 6 75q5 35 29 56t57 21h2q33 -1 56.5 -22.5t28.5 -57.5
q1 -10 1 -28q-14 -382 -20 -488q-16 -294 -19 -463v-50q0 -77 -60 -98q-21 -8 -39 -8q-64 0 -92 67q-16 36 -40 114.5t-31 97.5l-57 183q-7 22 -12 29q-6 -7 -6 -16v-4q0 -21 -1 -59t-1.5 -69.5t-0.5 -59.5q0 -95 6 -160l1 -28q0 -13 -1 -19q-4 -30 -24 -50.5t-49 -25.5z
" />
    <glyph glyph-name="trademark" unicode="&#x2122;" horiz-adv-x="963" 
d="M275 619q-28 1 -49.5 18.5t-30.5 47.5q-5 14 -7 32q-4 56 -4 82v39q0 26 0.5 78t0.5 78v5q0 16 -2.5 20.5t-15.5 5.5l-12 -1h-24q-25 0 -46 11q-26 10 -40.5 32t-14.5 48v2q2 21 10 39q19 42 66 42h2q14 0 23 -4q15 -5 30 -7q10 0 36 4q151 29 175 32q16 2 23 2l8 -1
q28 0 42 -12q13 -8 22 -8h2q11 0 30 19q34 34 78 34h3q44 -2 79 -38q20 -19 35 -52l13 -30q6 3 19.5 10.5t20.5 10.5q33 14 60 14l5 -1q46 -1 78.5 -32t39.5 -82q3 -19 3 -57l-1 -18l-21 -265q-2 -24 -6 -43q-7 -30 -33.5 -50.5t-56.5 -20.5h-4q-31 3 -51.5 26t-21.5 57
l1 27q1 27 5 78.5t5 64.5q0 4 1 14t1 15l1 4q0 7 -3 15q-39 -41 -76 -41h-4q-43 3 -83 41q-6 -11 -6 -26l1 -169q-1 -31 -18 -52t-45 -25l-16 -2q-51 2 -71 56q-5 17 -7 52q-11 134 -11 185v22q2 41 9 83l1 8q0 16 -15 16l-7 -1l-11 1q-29 -2 -36.5 -5.5t-7.5 -19.5v-22
l15 -291v-9q-1 -34 -20 -57t-50 -28z" />
    <glyph glyph-name="partialdiff" unicode="&#x2202;" horiz-adv-x="745" 
d="M246 169q3 0 17 4q34 14 65 46q75 74 117.5 168.5t67.5 216.5q-18 -5 -37 -24q-111 -110 -193 -239q-15 -24 -34 -66q-19 -47 -19 -78v-4q2 -24 16 -24zM242 -1q-81 0 -136 52.5t-56 134.5v4q0 99 63 210q98 170 256 317q12 12 30 25q45 32 90 32q22 0 45 -4l1 27
q0 112 -41 194q-7 15 -15 26q-21 27 -40 27q-13 0 -33 -9q-81 -38 -105 -108q-9 -26 -29.5 -40.5t-45.5 -14.5q-6 0 -18 2q-28 7 -44.5 28t-16.5 49l1 10q5 46 36 93q60 93 166 140q50 21 97 21q92 0 159 -76q63 -72 92 -188q17 -80 17 -156q0 -39 -4 -71
q-29 -310 -159 -507q-63 -100 -150 -162q-52 -39 -103 -49q-28 -7 -57 -7z" />
    <glyph glyph-name="Delta" unicode="&#x2206;" horiz-adv-x="400" 
d="M183 492q22 4 28 7t6 12l-3 18l-11 55q-14 -37 -20 -92zM143 335l-27 2h-19q-30 1 -48.5 19.5t-18.5 49.5q0 18 5 41q4 24 10 74t12.5 88.5t15.5 72.5q12 56 33 106q13 32 29 49q29 32 68 32q40 0 70 -36q15 -18 29 -52q29 -74 57 -228l11 -67q0 -67 -46 -94
q-94 -57 -181 -57z" />
    <glyph glyph-name="product" unicode="&#x220f;" horiz-adv-x="643" 
d="M575 1126q3 -16 3 -34l1 -56q0 -129 -9 -255q0 -18 -1 -26q-6 -130 -6 -257q0 -89 7 -215q3 -74 18 -149q5 -30 5 -53v-2q0 -54 -53 -74q-16 -4 -24 -4q-38 0 -66 36q-28 40 -35 85q-18 94 -21 206q-3 91 -3 184q0 169 10 322q8 116 14 174q0 21 3 42l-89 6q-36 3 -72 3
l-19 -1v-22q0 -129 -9 -255q0 -18 -1 -26q-5 -145 -5 -257q0 -107 6 -215q5 -74 18 -149q5 -23 5 -53v-2q0 -55 -53 -74q-16 -4 -24 -4q-37 0 -66 36q-26 37 -35 85q-19 107 -20 206q-4 81 -4 184q0 169 10 322q4 58 14 174q1 19 5 57q1 9 1 27v14q0 17 1 26v5l1 9
q4 26 21 42t41 17h4l9 1h7q39 0 87 5q63 5 114 5h16l39 -2q41 -2 74 -7l9 -1q21 -3 39 -15q18 -15 27 -37q6 -14 6 -28z" />
    <glyph glyph-name="summation" unicode="&#x2211;" horiz-adv-x="520" 
d="M153 2q-44 0 -72.5 23.5t-33.5 64.5l-1 10q0 15 10 45q17 50 82 201q51 124 71 169q15 33 15 68q0 37 -18 75q-8 18 -36.5 76t-46 97t-31.5 78q-44 126 -53 143q-9 18 -9 37q0 47 39.5 85.5t86.5 38.5l53 -1q64 0 163 9h9q26 0 47 -7q27 -7 42.5 -27.5t15.5 -46.5
t-15.5 -46.5t-42.5 -28.5q-18 -6 -49 -6h-133l-16 1q-8 0 -18 -3q11 -31 48 -108q17 -37 51.5 -110t51.5 -110q27 -56 35 -101q4 -17 4 -40q0 -47 -23 -112q-5 -15 -104 -251q-14 -31 -15 -45h69l60 -1q17 -1 37 -6q29 -11 46.5 -33t17.5 -47l-1 -10q-4 -28 -27.5 -46.5
t-58.5 -20.5h-9q-16 0 -44 2h-14q-74 0 -154 -13q-15 -3 -29 -3z" />
    <glyph glyph-name="minus" unicode="&#x2212;" horiz-adv-x="469" 
d="M350 519h-5q-95 5 -171 5l-51 -1q-7 2 -17.5 3.5t-13.5 2.5q-29 8 -45.5 28.5t-16.5 46.5v8q3 29 22.5 48.5t50.5 20.5q134 10 201 10h27q33 -1 65 -19q43 -25 43 -71q0 -9 -1 -14q-5 -26 -25 -44t-49 -23z" />
    <glyph glyph-name="radical" unicode="&#x221a;" horiz-adv-x="721" 
d="M321 -2q-48 0 -81 40q-17 19 -34 63q-20 62 -39 205l-21 140q-1 2 -3 6.5t-3 6.5q-17 -4 -28 -5l-9 -1q-38 0 -59 30q-14 19 -14 39q0 17 10 31q44 68 124 71l6 1q63 0 103 -69q15 -28 40 -115q10 2 10 13q29 208 142 503q40 108 73 176q23 44 46 62q29 20 58 20
q27 0 51 -19q28 -22 28 -55q0 -23 -15 -46q-21 -29 -39 -75q-107 -259 -151 -438q-27 -111 -48 -310q-11 -115 -35 -178q-14 -36 -31 -56q-33 -40 -81 -40z" />
    <glyph glyph-name="infinity" unicode="&#x221e;" horiz-adv-x="627" 
d="M188 562q4 0 7 2t6.5 6t5.5 5q3 3 3 8t-5 8q-1 1 -3 3.5t-3.5 4t-4.5 3t-6 1.5q-8 -16 -8 -31q0 -10 7 -10h1zM399 561q48 0 48 38q0 15 -5 28q-20 -16 -55 -65zM187 407q-62 0 -109.5 47t-47.5 112l1 14q9 110 87 180q38 34 85 34q69 0 106 -66q6 -8 9 -9q5 2 23 20
q34 31 67 44q26 9 49 9q67 0 108 -63q32 -52 32 -117q0 -80 -45 -137q-42 -55 -109 -62q-34 -4 -51 -4q-57 0 -108 19q-4 2 -12 2t-15 -4q-34 -19 -70 -19z" />
    <glyph glyph-name="integral" unicode="&#x222b;" horiz-adv-x="466" 
d="M139 0q-33 0 -58 19q-51 40 -51 109q0 16 5 36q19 56 78 60q24 2 28.5 6t6.5 27q9 78 13 201q1 56 2.5 158t3.5 186t6 159q5 72 18 122q17 73 75 112q30 20 62 20t58 -20t39 -55q2 -5 11 -57q-5 -106 -78 -141q-22 -11 -23 -36q-3 -57 -4.5 -161.5t-2.5 -137.5
q-5 -247 -11 -325q-7 -85 -28 -150q-25 -74 -79 -109q-33 -23 -71 -23z" />
    <glyph glyph-name="approxequal" unicode="&#x2248;" horiz-adv-x="532" 
d="M308 389q-43 3 -76 22q-16 8 -21 14q-18 13 -30 14h-2q-14 0 -29 -14q-15 -15 -39 -15h-3q-22 2 -40 15q-34 23 -34 68l1 7l1 16q10 36 46 59q43 28 89 28q9 0 13 -1q18 0 49 -9q27 -8 56 -27q11 -8 25 -10q16 0 32 11q29 19 33 27l-9 1h-9q-24 -6 -45 -6l-12 1
q-51 3 -95 35q-2 2 -9 6t-10 7q-8 6 -14 6h-2q-9 0 -16 -10q-20 -20 -49 -20h-10q-41 3 -59 40q-10 23 -10 42v8q2 24 17 44q45 57 119 57q11 0 17 -1l15 -1q40 -4 81 -32q17 -11 30 -12h3q17 0 41 17q16 12 30 20q19 9 38 9h5q30 -2 50.5 -24.5t20.5 -55.5v-8
q-4 -48 -47 -80q-6 -4 -29 -16.5t-32 -24.5q13 5 21 6h19q32 -2 52.5 -25t20.5 -56v-7q-3 -32 -24 -57q-58 -69 -155 -69q-2 0 -7.5 0.5t-7.5 0.5z" />
    <glyph glyph-name="lessequal" unicode="&#x2264;" horiz-adv-x="530" 
d="M369 348q-14 0 -29 6q-4 2 -8.5 4.5t-10 5.5t-8.5 5q-122 86 -182 129q-42 28 -60 50q-36 41 -36 87l1 14q3 37 29 73q127 165 250 261q26 21 52 32q19 8 37 8q16 0 33 -6q48 -17 48 -64v-2q0 -22 -12.5 -39.5t-34.5 -24.5q-24 -6 -48 -30q-29 -28 -56 -57.5t-69 -80
t-52 -62.5q-7 -8 -7 -14t12 -16l104 -71q55 -39 73 -54q39 -29 42 -74l1 -9q0 -30 -20 -50.5t-49 -20.5zM216 169q-11 1 -31 2t-31 2q-5 1 -26.5 3.5t-32.5 4.5q-30 7 -47.5 26.5t-17.5 47.5v8q3 29 23 48t51 19h3l19 -1q8 0 22.5 -0.5t21.5 -0.5q74 0 222 16l19 1
q12 0 29 -5q28 -7 44 -28t16 -47v-2q-1 -25 -20 -48q-32 -39 -87 -42q-72 -5 -128 -5q-32 0 -49 1z" />
    <glyph glyph-name="greaterequal" unicode="&#x2265;" horiz-adv-x="530" 
d="M161 348q-29 0 -49 20.5t-20 50.5v9q4 45 42 74q24 20 74 54l103 71q12 10 12 16q0 7 -6 14q-14 16 -42 50t-45 54t-42.5 47.5t-48.5 48.5q-24 24 -48 30q-21 7 -33.5 24.5t-12.5 39.5v2q0 47 48 64q16 6 32 6q18 0 37 -8q27 -11 53 -32q126 -100 249 -261q27 -35 30 -73
v-14q0 -48 -36 -87q-17 -20 -59 -50l-183 -129q-19 -12 -27 -15q-13 -6 -28 -6zM313 169q-16 -1 -49 -1q-57 0 -127 5q-56 3 -88 42q-17 22 -19 48v2q0 26 16 47t44 28q15 5 29 5l19 -1q148 -16 221 -16q7 0 22 0.5t23 0.5l18 1h4q30 0 50 -19t24 -48v-8q0 -28 -17.5 -47.5
t-47.5 -26.5q-11 -2 -32 -4.5t-27 -3.5q-10 -1 -31 -2t-32 -2z" />
    </font>
</defs>
</svg>
